<?xml version="1.0" ?><svg id="Layer_1" style="enable-background:new 0 0 64 64;" version="1.1" viewBox="0 0 64 64" xml:space="preserve" xmlns="http://www.w3.org/2000/svg" xmlns:xlink="http://www.w3.org/1999/xlink"><style type="text/css">
	.st0{fill:#62BEE7;}
	.st1{fill:#474E5E;}
	.st2{fill:#F3EEE4;}
	.st3{fill:#FFFFFF;}
	.st4{fill:#E8DCCA;}
	.st5{opacity:0.1;fill:#231F20;}
	.st6{fill:#506268;}
	.st7{fill:#EB5151;}
	.st8{fill:#C64444;}
	.st9{fill:#9CCB5B;}
	.st10{fill:#404A4C;}
	.st11{fill:#676767;}
	.st12{fill:#E0E1E5;}
	.st13{fill:#9D9EA0;}
	.st14{fill:#B3B4B7;}
	.st15{opacity:0.1;}
	.st16{fill:#231F20;}
	.st17{fill:#FACC20;}
	.st18{fill:#FDEF34;}
	.st19{fill:#F7A90B;}
	.st20{fill:#20B8EA;}
	.st21{fill:#00A8EA;}
	.st22{fill:#33D3F4;}
	.st23{opacity:0.25;fill:#FFFFFF;}
	.st24{fill:#CACBCE;}
	.st25{fill:#2E3545;}
	.st26{fill:#8DAF4A;}
	.st27{fill:#F9C2AF;}
	.st28{fill:#AFDDF4;}
	.st29{fill:#677177;}
	.st30{fill:#FFEDB3;}
	.st31{fill:#695652;}
	.st32{fill:#30A7BF;}
	.st33{fill:#4D5556;}
	.st34{opacity:0.35;}
	.st35{fill:#FFCB04;}
	.st36{fill:#99E9FA;}
	.st37{opacity:0.2;}
	.st38{opacity:3.000000e-02;}
	.st39{fill:#9ECA5B;}
	.st40{fill:#98BA56;}
	.st41{fill:#40EEFF;}
	.st42{fill:#FF6A52;}
	.st43{opacity:0.1;fill:#FFFFFF;}
	.st44{opacity:0.4;}
	.st45{fill:#57606D;}
	.st46{fill:#BACA5B;}
	.st47{opacity:0.25;}
	.st48{opacity:5.000000e-02;fill:#231F20;}
	.st49{opacity:0.2;fill:#FFFFFF;}
	.st50{opacity:0.3;}
	.st51{fill:#FFD82F;}
	.st52{fill:#F4C121;}
	.st53{fill:#EF9D0A;}
	.st54{fill:#F9E532;}
	.st55{fill:#F4C01E;}
	.st56{fill:#FFE14D;}
	.st57{fill:#B7C156;}
	.st58{fill:#DBA92C;}
	.st59{fill:#363D4D;}
	.st60{fill:#3F4656;}
	.st61{fill:#463E33;}
	.st62{fill:none;}
	.st63{opacity:4.000000e-02;}
	.st64{fill:#4DB6AC;}
	.st65{fill:#CADE49;}
	.st66{fill:#9FD343;}
	.st67{fill:#AAD643;}
	.st68{fill:#82C736;}
	.st69{opacity:0.3;fill:#FFFFFF;}
	.st70{fill:#FFD640;}
	.st71{opacity:0.5;}
	.st72{opacity:0.6;}
</style><g><circle class="st7" cx="32" cy="32" r="32"/><g><path class="st3" d="M49.7,27.7C49.7,27.8,49.7,27.8,49.7,27.7c-0.1,1.4-0.3,2.7-0.8,4c0.4-1.2,0.4-2.6,0.4-3.8    c-0.1-3-1.4-5.9-3.5-8c-0.7-0.7-1.4-1.2-2.2-1.7c-0.8-0.5-1.7-0.9-2.6-1.2c-2.6-0.8-5.5-0.8-8.1,0.3c-0.7,0.3-1.4,0.6-2.1,1    c-0.6,0.4-1.2,0.8-1.7,1.3c-0.7,0.7-1.3,1.5-1.9,2.4c1.9,1.1,3,3,3.2,5.1c-0.1-1-0.8-2.1-1.4-2.9c-0.7-0.8-1.5-1.4-2.5-1.8    c-0.5-0.2-1-0.4-1.6-0.5c-1.9-0.3-3.8,0.5-5.1,1.7c-1.3,1.2-1.9,3-1.9,4.8c0-0.4-0.1-0.9-0.1-1.3c0,0,0,0,0,0    c-3.2,1.3-5.4,4.5-5.4,8.1c0,4.9,3.9,8.8,8.8,8.8c4.2,0,23.4,0,26.6,0c4.5,0,8.2-3.7,8.2-8.2C56,31.8,53.3,28.6,49.7,27.7z"/><path class="st5" d="M53,29.4c1.1,1.4,1.8,3.2,1.8,5.1c0,4.5-3.7,8.2-8.2,8.2c-3.1,0-22.4,0-26.6,0c-2.1,0-4.1-0.7-5.6-2    c1.6,2,4.1,3.2,6.8,3.2c4.2,0,23.4,0,26.6,0c4.5,0,8.2-3.7,8.2-8.2C56,33.2,54.8,30.9,53,29.4z"/><path class="st4" d="M12.4,35.1c0-3.6,2.2-6.8,5.4-8.1c0,0,0,0,0,0c0,0.4,0.1,0.9,0.1,1.3c0.1-1.8,0.6-3.6,1.9-4.8    c1.4-1.3,3.3-2.1,5.1-1.7c0.5,0.1,1.1,0.3,1.6,0.5c1,0.4,1.8,1,2.5,1.8c0.6,0.7,1.3,1.9,1.4,2.9c-0.1-2.2-1.2-4.1-3.2-5.1    c0.5-0.9,1.1-1.7,1.9-2.4c0.5-0.5,1.1-0.9,1.7-1.3c0.6-0.4,1.4-0.8,2.1-1c1-0.4,2.1-0.7,3.2-0.8c-0.4-0.5-0.7-0.9-1.2-1.3    c-0.5-0.5-1.1-0.9-1.7-1.3c-0.6-0.4-1.4-0.8-2.1-1c-2.5-1-5.5-1.1-8.1-0.3c-0.9,0.3-1.8,0.7-2.6,1.2c-0.8,0.5-1.5,1.1-2.2,1.7    c-2.1,2.1-3.4,5-3.5,8c0,1.2,0,2.7,0.4,3.8c-0.4-1.3-0.7-2.5-0.8-3.9c0,0,0-0.1,0-0.1c-3.6,0.8-6.3,4.1-6.3,8    c0,3.5,2.2,6.5,5.3,7.7C12.8,37.8,12.4,36.5,12.4,35.1z"/><g><circle class="st17" cx="34.2" cy="42.3" r="9.8"/><circle class="st18" cx="34.2" cy="42.3" r="6.7"/><path class="st5" d="M36.6,43.2c-0.1-0.3-0.4-1-2.1-1.3v-2c0.4,0.1,0.7,0.4,0.8,0.8c0.1,0.3,0.3,0.5,0.6,0.5     c0.2,0,1.2-0.3,0.1-1.6c-0.2-0.2-0.5-0.6-1.5-0.7v-0.8h-0.6v0.8c-1.9,0.2-2.1,1.4-2.1,2c0,1.7,1.6,2,2.1,2.1v2.3     c-0.8-0.2-1-1-1-1.3c-0.1-0.4-0.4-0.4-0.6-0.4c-0.5,0-0.6,0.5-0.6,0.6c0,0.2,0.1,1.2,1.3,1.8c0.3,0.1,0.6,0.2,1,0.3l0,0.8h0.6     v-0.8c0.5,0,0.9-0.2,1.2-0.4C36.7,45.3,37,44.2,36.6,43.2z M33.9,41.7c-0.5-0.2-0.8-0.3-0.9-0.9c0-0.3,0.1-0.7,0.9-0.9V41.7z      M34.5,45.3v-2.1c1,0.3,1,0.8,1,1C35.6,44.4,35.5,45,34.5,45.3z"/><path class="st49" d="M25.2,43.1c0-5.4,4.4-9.8,9.8-9.8c2.5,0,4.8,0.9,6.5,2.5c-1.8-2-4.4-3.3-7.4-3.3c-5.4,0-9.8,4.4-9.8,9.8     c0,2.9,1.3,5.6,3.3,7.4C26.2,47.9,25.2,45.6,25.2,43.1z"/><path class="st5" d="M40.7,34.9c1.5,1.7,2.5,4,2.5,6.5c0,5.4-4.4,9.8-9.8,9.8c-2.5,0-4.8-0.9-6.5-2.5c1.8,2,4.4,3.3,7.4,3.3     c5.4,0,9.8-4.4,9.8-9.8C44,39.3,42.8,36.7,40.7,34.9z"/><g class="st50"><path class="st3" d="M39.9,34.3L26.2,48c-0.1-0.2-0.3-0.4-0.4-0.6v0l13.5-13.5h0C39.5,34,39.7,34.1,39.9,34.3z"/><path class="st3" d="M42.6,37.2L29.1,50.7c-0.6-0.4-1.2-0.9-1.8-1.4l13.9-13.9C41.8,35.9,42.2,36.5,42.6,37.2z"/></g><path class="st42" d="M36.6,42.9c-0.1-0.3-0.4-1-2.1-1.3v-2c0.4,0.1,0.7,0.4,0.8,0.8c0.1,0.3,0.3,0.5,0.6,0.5     c0.2,0,1.2-0.3,0.1-1.6c-0.2-0.2-0.5-0.6-1.5-0.7v-0.8h-0.6v0.8c-1.9,0.2-2.1,1.4-2.1,2c0,1.7,1.6,2,2.1,2.1v2.3     c-0.8-0.2-1-1-1-1.3c-0.1-0.4-0.4-0.4-0.6-0.4c-0.5,0-0.6,0.5-0.6,0.6c0,0.2,0.1,1.2,1.3,1.8c0.3,0.1,0.6,0.2,1,0.3l0,0.8h0.6     v-0.8c0.5,0,0.9-0.2,1.2-0.4C36.7,45,37,43.9,36.6,42.9z M33.9,41.4c-0.5-0.2-0.8-0.3-0.9-0.9c0-0.3,0.1-0.7,0.9-0.9V41.4z      M34.5,45v-2.1c1,0.3,1,0.8,1,1C35.6,44.2,35.5,44.8,34.5,45z"/></g></g></g></svg>