<?xml version="1.0" ?><svg id="Layer_1" style="enable-background:new 0 0 64 64;" version="1.1" viewBox="0 0 64 64" xml:space="preserve" xmlns="http://www.w3.org/2000/svg" xmlns:xlink="http://www.w3.org/1999/xlink"><style type="text/css">
	.st0{fill:#62BEE7;}
	.st1{fill:#474E5E;}
	.st2{fill:#F3EEE4;}
	.st3{fill:#FFFFFF;}
	.st4{fill:#E8DCCA;}
	.st5{opacity:0.1;fill:#231F20;}
	.st6{fill:#506268;}
	.st7{fill:#EB5151;}
	.st8{fill:#C64444;}
	.st9{fill:#9CCB5B;}
	.st10{fill:#404A4C;}
	.st11{fill:#676767;}
	.st12{fill:#E0E1E5;}
	.st13{fill:#9D9EA0;}
	.st14{fill:#B3B4B7;}
	.st15{opacity:0.1;}
	.st16{fill:#231F20;}
	.st17{fill:#FACC20;}
	.st18{fill:#FDEF34;}
	.st19{fill:#F7A90B;}
	.st20{fill:#20B8EA;}
	.st21{fill:#00A8EA;}
	.st22{fill:#33D3F4;}
	.st23{opacity:0.25;fill:#FFFFFF;}
	.st24{fill:#CACBCE;}
	.st25{fill:#2E3545;}
	.st26{fill:#8DAF4A;}
	.st27{fill:#F9C2AF;}
	.st28{fill:#AFDDF4;}
	.st29{fill:#677177;}
	.st30{fill:#FFEDB3;}
	.st31{fill:#695652;}
	.st32{fill:#30A7BF;}
	.st33{fill:#4D5556;}
	.st34{opacity:0.35;}
	.st35{fill:#FFCB04;}
	.st36{fill:#99E9FA;}
	.st37{opacity:0.2;}
	.st38{opacity:3.000000e-02;}
	.st39{fill:#9ECA5B;}
	.st40{fill:#98BA56;}
	.st41{fill:#40EEFF;}
	.st42{fill:#FF6A52;}
	.st43{opacity:0.1;fill:#FFFFFF;}
	.st44{opacity:0.4;}
	.st45{fill:#57606D;}
	.st46{fill:#BACA5B;}
	.st47{opacity:0.25;}
	.st48{opacity:5.000000e-02;fill:#231F20;}
	.st49{opacity:0.2;fill:#FFFFFF;}
	.st50{opacity:0.3;}
	.st51{fill:#FFD82F;}
	.st52{fill:#F4C121;}
	.st53{fill:#EF9D0A;}
	.st54{fill:#F9E532;}
	.st55{fill:#F4C01E;}
	.st56{fill:#FFE14D;}
	.st57{fill:#B7C156;}
	.st58{fill:#DBA92C;}
	.st59{fill:#363D4D;}
	.st60{fill:#3F4656;}
	.st61{fill:#463E33;}
	.st62{fill:none;}
	.st63{opacity:4.000000e-02;}
	.st64{fill:#4DB6AC;}
	.st65{fill:#CADE49;}
	.st66{fill:#9FD343;}
	.st67{fill:#AAD643;}
	.st68{fill:#82C736;}
	.st69{opacity:0.3;fill:#FFFFFF;}
	.st70{fill:#FFD640;}
	.st71{opacity:0.5;}
	.st72{opacity:0.6;}
</style><g><circle class="st7" cx="32" cy="32" r="32"/><g><g><path class="st18" d="M46.8,31.3c0-8.4-7-15.1-15.5-14.7c-7.3,0.3-13.4,6.2-14,13.4c-0.5,5.4,2,10.2,5.9,13.1     c1.7,1.2,2.6,3.2,2.6,5.3v0h12.4v0c0-2.1,1-4,2.6-5.3C44.4,40.4,46.8,36.1,46.8,31.3z"/></g><g><circle class="st17" cx="32" cy="32.9" r="9.5"/></g><g><path class="st4" d="M26.6,53c1.5,1.5,2.4,2.4,3.9,3.9h3.1c1.5-1.5,2.4-2.4,3.9-3.9H26.6z"/></g><g class="st15"><path class="st16" d="M35.8,34.6c-0.2-0.4-0.6-1.6-3.2-2.1v-3.2c0.6,0.2,1,0.6,1.2,1.3c0.2,0.5,0.5,0.8,1,0.8     c0.3,0,1.9-0.5,0.2-2.5c-0.3-0.3-0.7-0.9-2.4-1.1v-1.3h-1v1.3c-3,0.3-3.3,2.2-3.3,3.1c0,2.6,2.6,3.1,3.3,3.3v3.5     c-1.2-0.3-1.5-1.6-1.6-2c-0.2-0.6-0.7-0.6-0.9-0.6c-0.8,0-1,0.7-1,1c0,0.3,0.2,1.9,2,2.8c0.4,0.2,1,0.4,1.6,0.4l0,1.2h1v-1.2     c0.7-0.1,1.3-0.3,1.9-0.6C35.9,37.9,36.3,36.2,35.8,34.6z M31.6,32.2c-0.8-0.4-1.3-0.5-1.4-1.5c0-0.4,0.1-1.1,1.4-1.5V32.2z      M32.5,37.8v-3.3c1.6,0.5,1.6,1.2,1.6,1.6C34.1,36.5,34,37.5,32.5,37.8z"/></g><g><g><g><path class="st19" d="M55.3,32.9h-4.7c-0.4,0-0.8-0.3-0.8-0.8c0-0.4,0.3-0.8,0.8-0.8h4.7c0.4,0,0.8,0.3,0.8,0.8       C56.1,32.5,55.7,32.9,55.3,32.9z"/></g><g><path class="st19" d="M13.4,32.9H8.7c-0.4,0-0.8-0.3-0.8-0.8c0-0.4,0.3-0.8,0.8-0.8h4.7c0.4,0,0.8,0.3,0.8,0.8       C14.1,32.5,13.8,32.9,13.4,32.9z"/></g></g><g><g><path class="st19" d="M45.2,19.7c-0.2,0-0.4-0.1-0.6-0.2c-0.3-0.3-0.3-0.8,0-1.1l3.3-3.3c0.3-0.3,0.8-0.3,1.1,0s0.3,0.8,0,1.1       l-3.3,3.3C45.6,19.6,45.4,19.7,45.2,19.7z"/></g><g><path class="st19" d="M15.5,49.3c-0.2,0-0.4-0.1-0.6-0.2c-0.3-0.3-0.3-0.8,0-1.1l3.3-3.3c0.3-0.3,0.8-0.3,1.1,0       c0.3,0.3,0.3,0.8,0,1.1l-3.3,3.3C15.9,49.3,15.7,49.3,15.5,49.3z"/></g></g><g><g><path class="st19" d="M32,14.2c-0.4,0-0.8-0.3-0.8-0.8V8.8C31.2,8.3,31.6,8,32,8c0.4,0,0.8,0.3,0.8,0.8v4.7       C32.8,13.9,32.4,14.2,32,14.2z"/></g></g><g><g><path class="st19" d="M18.8,19.7c-0.2,0-0.4-0.1-0.6-0.2L15,16.2c-0.3-0.3-0.3-0.8,0-1.1s0.8-0.3,1.1,0l3.3,3.3       c0.3,0.3,0.3,0.8,0,1.1C19.2,19.6,19,19.7,18.8,19.7z"/></g><g><path class="st19" d="M48.5,49.3c-0.2,0-0.4-0.1-0.6-0.2l-3.3-3.3c-0.3-0.3-0.3-0.8,0-1.1c0.3-0.3,0.8-0.3,1.1,0L49,48       c0.3,0.3,0.3,0.8,0,1.1C48.9,49.3,48.7,49.3,48.5,49.3z"/></g></g></g><g><path class="st31" d="M38.7,48.4H25.3c-1.3,0-2.3,1-2.3,2.3c0,1.3,1,2.3,2.3,2.3h13.3c1.3,0,2.3-1,2.3-2.3     C41,49.4,39.9,48.4,38.7,48.4z"/></g><path class="st69" d="M25.3,43.1c-3.9-2.9-6.4-7.8-5.9-13.1c0.6-7.2,6.5-12.9,13.7-13.4c-0.6,0-1.2-0.1-1.8,0    c-7.3,0.3-13.4,6.2-14,13.4c-0.5,5.4,2,10.2,5.9,13.1c1.7,1.2,2.6,3.2,2.6,5.3h2.1C27.9,46.3,26.9,44.4,25.3,43.1z"/><path class="st5" d="M31.3,16.6c-0.1,0-0.2,0-0.3,0c7.7,0.5,13.7,6.9,13.7,14.7c0,4.8-2.3,9.1-5.9,11.8c-1.7,1.2-2.6,3.2-2.6,5.3    v0h2.1v0c0-2.1,1-4,2.6-5.3c3.6-2.7,5.9-7,5.9-11.8C46.8,22.9,39.8,16.2,31.3,16.6z"/><g><path class="st7" d="M35.8,33.9c-0.2-0.4-0.6-1.6-3.2-2.1v-3.2c0.6,0.2,1,0.6,1.2,1.3c0.2,0.5,0.5,0.8,1,0.8     c0.3,0,1.9-0.5,0.2-2.5c-0.3-0.3-0.7-0.9-2.4-1.1v-1.3h-1v1.3c-3,0.3-3.3,2.2-3.3,3.1c0,2.6,2.6,3.1,3.3,3.3v3.5     c-1.2-0.3-1.5-1.6-1.6-2c-0.2-0.6-0.7-0.6-0.9-0.6c-0.8,0-1,0.7-1,1c0,0.3,0.2,1.9,2,2.8c0.4,0.2,1,0.4,1.6,0.4l0,1.2h1v-1.2     c0.7-0.1,1.3-0.3,1.9-0.6C35.9,37.2,36.3,35.5,35.8,33.9z M31.6,31.5c-0.8-0.4-1.3-0.5-1.4-1.5c0-0.4,0.1-1.1,1.4-1.5V31.5z      M32.5,37.1v-3.3c1.6,0.5,1.6,1.2,1.6,1.6C34.1,35.9,34,36.8,32.5,37.1z"/></g></g></g></svg>