<?xml version="1.0" ?><svg id="Layer_1" style="enable-background:new 0 0 64 64;" version="1.1" viewBox="0 0 64 64" xml:space="preserve" xmlns="http://www.w3.org/2000/svg" xmlns:xlink="http://www.w3.org/1999/xlink"><style type="text/css">
	.st0{fill:#62BEE7;}
	.st1{fill:#474E5E;}
	.st2{fill:#F3EEE4;}
	.st3{fill:#FFFFFF;}
	.st4{fill:#E8DCCA;}
	.st5{opacity:0.1;fill:#231F20;}
	.st6{fill:#506268;}
	.st7{fill:#EB5151;}
	.st8{fill:#C64444;}
	.st9{fill:#9CCB5B;}
	.st10{fill:#404A4C;}
	.st11{fill:#676767;}
	.st12{fill:#E0E1E5;}
	.st13{fill:#9D9EA0;}
	.st14{fill:#B3B4B7;}
	.st15{opacity:0.1;}
	.st16{fill:#231F20;}
	.st17{fill:#FACC20;}
	.st18{fill:#FDEF34;}
	.st19{fill:#F7A90B;}
	.st20{fill:#20B8EA;}
	.st21{fill:#00A8EA;}
	.st22{fill:#33D3F4;}
	.st23{opacity:0.25;fill:#FFFFFF;}
	.st24{fill:#CACBCE;}
	.st25{fill:#2E3545;}
	.st26{fill:#8DAF4A;}
	.st27{fill:#F9C2AF;}
	.st28{fill:#AFDDF4;}
	.st29{fill:#677177;}
	.st30{fill:#FFEDB3;}
	.st31{fill:#695652;}
	.st32{fill:#30A7BF;}
	.st33{fill:#4D5556;}
	.st34{opacity:0.35;}
	.st35{fill:#FFCB04;}
	.st36{fill:#99E9FA;}
	.st37{opacity:0.2;}
	.st38{opacity:3.000000e-02;}
	.st39{fill:#9ECA5B;}
	.st40{fill:#98BA56;}
	.st41{fill:#40EEFF;}
	.st42{fill:#FF6A52;}
	.st43{opacity:0.1;fill:#FFFFFF;}
	.st44{opacity:0.4;}
	.st45{fill:#57606D;}
	.st46{fill:#BACA5B;}
	.st47{opacity:0.25;}
	.st48{opacity:5.000000e-02;fill:#231F20;}
	.st49{opacity:0.2;fill:#FFFFFF;}
	.st50{opacity:0.3;}
	.st51{fill:#FFD82F;}
	.st52{fill:#F4C121;}
	.st53{fill:#EF9D0A;}
	.st54{fill:#F9E532;}
	.st55{fill:#F4C01E;}
	.st56{fill:#FFE14D;}
	.st57{fill:#B7C156;}
	.st58{fill:#DBA92C;}
	.st59{fill:#363D4D;}
	.st60{fill:#3F4656;}
	.st61{fill:#463E33;}
	.st62{fill:none;}
	.st63{opacity:4.000000e-02;}
	.st64{fill:#4DB6AC;}
	.st65{fill:#CADE49;}
	.st66{fill:#9FD343;}
	.st67{fill:#AAD643;}
	.st68{fill:#82C736;}
	.st69{opacity:0.3;fill:#FFFFFF;}
	.st70{fill:#FFD640;}
	.st71{opacity:0.5;}
	.st72{opacity:0.6;}
</style><g><circle class="st35" cx="32" cy="32" r="32"/><g><path class="st3" d="M54.2,42c0,1-0.9,1.9-1.9,1.9H11.7c-1,0-1.9-0.9-1.9-1.9V17.9c0-1,0.9-1.9,1.9-1.9h40.6c1,0,1.9,0.9,1.9,1.9    V42z"/><rect class="st21" height="19.3" width="39.6" x="12.2" y="22.2"/><polygon class="st5" points="12.2,41.5 51.8,22.2 51.8,41.5   "/><path class="st31" d="M55.2,44.7H40c-0.5,0-0.9,0.1-0.9,0.2c-0.1,0.1-0.3,0.4-0.6,0.7C38.2,45.8,37,46,36.6,46h-9.2    c-0.5,0-1.1-0.1-1.5-0.2c-0.4-0.1-1-0.8-1-0.9c-0.1-0.1-0.5-0.2-0.9-0.2H8.8C8.4,44.7,8,45,8,45.5v1.6c0,0.5,0.4,0.8,0.8,0.8h46.3    c0.5,0,0.8-0.4,0.8-0.8v-1.6C56,45,55.6,44.7,55.2,44.7z"/><circle class="st1" cx="32" cy="19.1" r="0.7"/><g><g><path class="st1" d="M39.5,25.5H24.5c-0.3,0-0.6-0.3-0.6-0.6c0-0.3,0.3-0.6,0.6-0.6h15.1c0.3,0,0.6,0.3,0.6,0.6      C40.1,25.2,39.9,25.5,39.5,25.5z"/></g><g><g><g><rect class="st65" height="14" width="11.6" x="26.2" y="24.9"/></g></g><g><g><rect class="st67" height="12.2" width="8" x="28" y="24.9"/></g></g><g><ellipse class="st68" cx="32" cy="29.1" rx="3.1" ry="2.3"/></g><g><g><path class="st68" d="M36,37h-2.5c0-1.4,1.1-2.5,2.5-2.5V37z"/></g></g><g><g><path class="st68" d="M30.5,37H28v-2.5C29.4,34.5,30.5,35.6,30.5,37z"/></g></g><g><g><g><path class="st3" d="M31.7,30.2c0.1,0,0.5-0.2,0.7-1h1c-0.1,0.2-0.2,0.3-0.4,0.4c-0.2,0-0.3,0.1-0.3,0.3         c0,0.1,0.1,0.6,0.8,0.1c0.1-0.1,0.3-0.2,0.3-0.8h0.4v-0.3h-0.4c-0.1-0.9-0.7-1-1-1c-0.8,0-1,0.8-1,1h-1.1         c0.1-0.4,0.5-0.5,0.6-0.5c0.2-0.1,0.2-0.2,0.2-0.3c0-0.2-0.2-0.3-0.3-0.3c-0.1,0-0.6,0.1-0.9,0.6c-0.1,0.1-0.1,0.3-0.1,0.5         l-0.4,0v0.3h0.4c0,0.2,0.1,0.4,0.2,0.6C30.6,30.3,31.2,30.4,31.7,30.2z M32.4,28.9c0.1-0.2,0.2-0.4,0.5-0.4         c0.1,0,0.4,0,0.5,0.4H32.4z M30.6,29.2h1.1c-0.2,0.5-0.4,0.5-0.5,0.5C31.1,29.7,30.8,29.7,30.6,29.2z"/></g></g></g><g><circle class="st68" cx="32" cy="32.8" r="0.6"/></g></g></g></g></g></svg>