<?xml version="1.0" ?><svg id="Layer_1" style="enable-background:new 0 0 64 64;" version="1.1" viewBox="0 0 64 64" xml:space="preserve" xmlns="http://www.w3.org/2000/svg" xmlns:xlink="http://www.w3.org/1999/xlink"><style type="text/css">
	.st0{fill:#62BEE7;}
	.st1{fill:#474E5E;}
	.st2{fill:#F3EEE4;}
	.st3{fill:#FFFFFF;}
	.st4{fill:#E8DCCA;}
	.st5{opacity:0.1;fill:#231F20;}
	.st6{fill:#506268;}
	.st7{fill:#EB5151;}
	.st8{fill:#C64444;}
	.st9{fill:#9CCB5B;}
	.st10{fill:#404A4C;}
	.st11{fill:#676767;}
	.st12{fill:#E0E1E5;}
	.st13{fill:#9D9EA0;}
	.st14{fill:#B3B4B7;}
	.st15{opacity:0.1;}
	.st16{fill:#231F20;}
	.st17{fill:#FACC20;}
	.st18{fill:#FDEF34;}
	.st19{fill:#F7A90B;}
	.st20{fill:#20B8EA;}
	.st21{fill:#00A8EA;}
	.st22{fill:#33D3F4;}
	.st23{opacity:0.25;fill:#FFFFFF;}
	.st24{fill:#CACBCE;}
	.st25{fill:#2E3545;}
	.st26{fill:#8DAF4A;}
	.st27{fill:#F9C2AF;}
	.st28{fill:#AFDDF4;}
	.st29{fill:#677177;}
	.st30{fill:#FFEDB3;}
	.st31{fill:#695652;}
	.st32{fill:#30A7BF;}
	.st33{fill:#4D5556;}
	.st34{opacity:0.35;}
	.st35{fill:#FFCB04;}
	.st36{fill:#99E9FA;}
	.st37{opacity:0.2;}
	.st38{opacity:3.000000e-02;}
	.st39{fill:#9ECA5B;}
	.st40{fill:#98BA56;}
	.st41{fill:#40EEFF;}
	.st42{fill:#FF6A52;}
	.st43{opacity:0.1;fill:#FFFFFF;}
	.st44{opacity:0.4;}
	.st45{fill:#57606D;}
	.st46{fill:#BACA5B;}
	.st47{opacity:0.25;}
	.st48{opacity:5.000000e-02;fill:#231F20;}
	.st49{opacity:0.2;fill:#FFFFFF;}
	.st50{opacity:0.3;}
	.st51{fill:#FFD82F;}
	.st52{fill:#F4C121;}
	.st53{fill:#EF9D0A;}
	.st54{fill:#F9E532;}
	.st55{fill:#F4C01E;}
	.st56{fill:#FFE14D;}
	.st57{fill:#B7C156;}
	.st58{fill:#DBA92C;}
	.st59{fill:#363D4D;}
	.st60{fill:#3F4656;}
	.st61{fill:#463E33;}
	.st62{fill:none;}
	.st63{opacity:4.000000e-02;}
	.st64{fill:#4DB6AC;}
	.st65{fill:#CADE49;}
	.st66{fill:#9FD343;}
	.st67{fill:#AAD643;}
	.st68{fill:#82C736;}
	.st69{opacity:0.3;fill:#FFFFFF;}
	.st70{fill:#FFD640;}
	.st71{opacity:0.5;}
	.st72{opacity:0.6;}
</style><g><circle class="st7" cx="32" cy="32" r="32"/><g><g><path class="st17" d="M37.5,38.2c0,3.4,1.9,6.4,4.6,8c1.2,0.7,2.5,1.1,3.9,1.2v6.5c0,1.1-0.9,2.1-2.1,2.1H14     c-1.1,0-2.1-0.9-2.1-2.1V14.7c0-1.1,0.9-2.1,2.1-2.1h6.4v5.4h17v-5.4h6.5c1.1,0,2.1,0.9,2.1,2.1V29c-1.4,0.1-2.7,0.5-3.9,1.2     C39.4,31.8,37.5,34.8,37.5,38.2z"/></g><path class="st18" d="M35.6,16.5c-4.2,10.4-12.9,18.4-23.7,21.8V14.7c0-1.1,0.9-2.1,2.1-2.1h7.2v3.9H35.6z"/><path class="st19" d="M46,32.2v21.7c0,1.2-0.9,2.1-2.1,2.1H27.7C28.4,44.9,35.9,35.6,46,32.2z"/><g><path class="st31" d="M32.1,11.1c0-0.3,0-0.5-0.1-0.8C31.6,9,30.4,8,29,8c-1.7,0-3.1,1.4-3.1,3.1h-5.4v7h17v-7H32.1z M29,9.2     c0.8,0,1.4,0.4,1.7,1.1c0.1,0.2,0.2,0.5,0.2,0.8c0,0.9-0.7,1.7-1.5,1.8c-0.1,0-0.2,0-0.3,0c-0.1,0-0.2,0-0.3,0     c-0.1,0-0.2,0-0.4-0.1c-0.7-0.3-1.2-0.9-1.2-1.7C27.1,10.1,27.9,9.2,29,9.2z"/></g><g><path class="st3" d="M37.5,38.2c0,3.4,1.9,6.4,4.6,8v5.9H15.8V16.5h4.6v1.5h17v-1.5h4.6v13.7C39.4,31.8,37.5,34.8,37.5,38.2z"/></g><path class="st21" d="M56.1,38.2c0,2.6-1,4.9-2.7,6.6h0c-0.3,0.3-0.7,0.6-1,0.9c-1.5,1.1-3.4,1.8-5.5,1.8c-2.6,0-4.9-1-6.6-2.7    c-1.7-1.7-2.7-4-2.7-6.6c0-5.1,4.2-9.3,9.3-9.3c2.1,0,4,0.7,5.5,1.8c0.4,0.3,0.7,0.6,1,0.9C55,33.3,56.1,35.6,56.1,38.2z"/><g><rect class="st14" height="11.2" width="1.5" x="18.5" y="39.2"/><rect class="st14" height="15.5" width="1.5" x="21.1" y="35"/><rect class="st14" height="5.9" width="1.5" x="23.7" y="44.5"/><rect class="st14" height="9.6" width="1.5" x="26.3" y="40.9"/><rect class="st14" height="11.9" width="1.5" x="28.9" y="38.6"/><rect class="st14" height="13.8" width="1.5" x="31.5" y="36.6"/><rect class="st14" height="8.9" width="1.5" x="34.2" y="41.6"/></g><g><rect class="st13" height="3" width="1.5" x="18.5" y="47.4"/><rect class="st13" height="3" width="1.5" x="21.1" y="47.4"/><rect class="st13" height="3" width="1.5" x="23.7" y="47.4"/><rect class="st13" height="3" width="1.5" x="26.3" y="47.4"/><rect class="st13" height="3" width="1.5" x="28.9" y="47.4"/><rect class="st13" height="3" width="1.5" x="31.5" y="47.4"/><rect class="st13" height="3" width="1.5" x="34.2" y="47.4"/></g><g><g><g><path class="st39" d="M25,28.1l-1.6,1.6c0.2,0.1,0.4,0.3,0.5,0.5l1.5-1.6C25.2,28.5,25.1,28.4,25,28.1z"/></g><g><path class="st39" d="M30.3,29.2C30.3,29.2,30.3,29.1,30.3,29.2c0-0.3,0.1-0.5,0.2-0.6l-3.5-0.9c0,0,0,0.1,0,0.1       c0,0.2-0.1,0.4-0.1,0.5L30.3,29.2z"/></g><g><path class="st39" d="M37.6,21.8C37.6,21.9,37.6,21.9,37.6,21.8l-6,6.4c0.2,0.1,0.4,0.3,0.5,0.5l6-6.4c0,0,0,0,0-0.1       C37.9,22.2,37.8,22,37.6,21.8z"/></g><g><path class="st39" d="M22,30.7c0-0.2,0.1-0.4,0.2-0.6l-1.7-0.6c0,0,0,0,0,0c0,0.2-0.1,0.4-0.2,0.6c0,0,0,0,0.1,0L22,30.7       C22,30.7,22,30.7,22,30.7z"/></g></g><g><path class="st40" d="M19.5,30.7c-0.7,0-1.3-0.6-1.3-1.3c0-0.7,0.6-1.3,1.3-1.3c0.7,0,1.3,0.6,1.3,1.3      C20.8,30.1,20.2,30.7,19.5,30.7z M19.5,28.8c-0.4,0-0.7,0.3-0.7,0.7c0,0.4,0.3,0.7,0.7,0.7c0.4,0,0.7-0.3,0.7-0.7      C20.1,29.1,19.8,28.8,19.5,28.8z"/></g><g><path class="st40" d="M23,32c-0.7,0-1.3-0.6-1.3-1.3c0-0.7,0.6-1.3,1.3-1.3s1.3,0.6,1.3,1.3C24.3,31.4,23.7,32,23,32z M23,30      c-0.4,0-0.7,0.3-0.7,0.7c0,0.4,0.3,0.7,0.7,0.7c0.4,0,0.7-0.3,0.7-0.7C23.7,30.3,23.4,30,23,30z"/></g><g><path class="st40" d="M25.9,29.1c-0.7,0-1.3-0.6-1.3-1.3s0.6-1.3,1.3-1.3s1.3,0.6,1.3,1.3S26.6,29.1,25.9,29.1z M25.9,27.1      c-0.4,0-0.7,0.3-0.7,0.7s0.3,0.7,0.7,0.7c0.4,0,0.7-0.3,0.7-0.7S26.3,27.1,25.9,27.1z"/></g><g><path class="st40" d="M31.2,30.4c-0.7,0-1.3-0.6-1.3-1.3c0-0.7,0.6-1.3,1.3-1.3c0.7,0,1.3,0.6,1.3,1.3      C32.6,29.8,32,30.4,31.2,30.4z M31.2,28.5c-0.4,0-0.7,0.3-0.7,0.7c0,0.4,0.3,0.7,0.7,0.7c0.4,0,0.7-0.3,0.7-0.7      C31.9,28.8,31.6,28.5,31.2,28.5z"/></g><g><path class="st40" d="M38.5,22.6c-0.7,0-1.3-0.6-1.3-1.3c0-0.7,0.6-1.3,1.3-1.3s1.3,0.6,1.3,1.3C39.8,22,39.2,22.6,38.5,22.6z       M38.5,20.7c-0.4,0-0.7,0.3-0.7,0.7s0.3,0.7,0.7,0.7c0.4,0,0.7-0.3,0.7-0.7S38.8,20.7,38.5,20.7z"/></g></g><path class="st41" d="M56.1,38.2c0-2.6-1-4.9-2.7-6.6l-6.6,6.6l6.6,6.6C55,43.1,56.1,40.8,56.1,38.2z"/><g class="st15"><path class="st16" d="M53.6,44.4c-0.1,0.1-0.2,0.2-0.3,0.3h0C53.4,44.7,53.5,44.5,53.6,44.4L53.6,44.4z"/><path class="st16" d="M53.3,31.6c-0.2-0.2-0.4-0.4-0.6-0.6l-7.2,7.2l7.1,7.1c0.2-0.2,0.4-0.4,0.6-0.6l-6.6-6.6L53.3,31.6     c0.1,0.1,0.2,0.2,0.3,0.4l0,0C53.6,31.9,53.5,31.8,53.3,31.6z"/></g></g></g></svg>