<?xml version="1.0" ?><svg id="Layer_1" style="enable-background:new 0 0 64 64;" version="1.1" viewBox="0 0 64 64" xml:space="preserve" xmlns="http://www.w3.org/2000/svg" xmlns:xlink="http://www.w3.org/1999/xlink"><style type="text/css">
	.st0{fill:#62BEE7;}
	.st1{fill:#474E5E;}
	.st2{fill:#F3EEE4;}
	.st3{fill:#FFFFFF;}
	.st4{fill:#E8DCCA;}
	.st5{opacity:0.1;fill:#231F20;}
	.st6{fill:#506268;}
	.st7{fill:#EB5151;}
	.st8{fill:#C64444;}
	.st9{fill:#9CCB5B;}
	.st10{fill:#404A4C;}
	.st11{fill:#676767;}
	.st12{fill:#E0E1E5;}
	.st13{fill:#9D9EA0;}
	.st14{fill:#B3B4B7;}
	.st15{opacity:0.1;}
	.st16{fill:#231F20;}
	.st17{fill:#FACC20;}
	.st18{fill:#FDEF34;}
	.st19{fill:#F7A90B;}
	.st20{fill:#20B8EA;}
	.st21{fill:#00A8EA;}
	.st22{fill:#33D3F4;}
	.st23{opacity:0.25;fill:#FFFFFF;}
	.st24{fill:#CACBCE;}
	.st25{fill:#2E3545;}
	.st26{fill:#8DAF4A;}
	.st27{fill:#F9C2AF;}
	.st28{fill:#AFDDF4;}
	.st29{fill:#677177;}
	.st30{fill:#FFEDB3;}
	.st31{fill:#695652;}
	.st32{fill:#30A7BF;}
	.st33{fill:#4D5556;}
	.st34{opacity:0.35;}
	.st35{fill:#FFCB04;}
	.st36{fill:#99E9FA;}
	.st37{opacity:0.2;}
	.st38{opacity:3.000000e-02;}
	.st39{fill:#9ECA5B;}
	.st40{fill:#98BA56;}
	.st41{fill:#40EEFF;}
	.st42{fill:#FF6A52;}
	.st43{opacity:0.1;fill:#FFFFFF;}
	.st44{opacity:0.4;}
	.st45{fill:#57606D;}
	.st46{fill:#BACA5B;}
	.st47{opacity:0.25;}
	.st48{opacity:5.000000e-02;fill:#231F20;}
	.st49{opacity:0.2;fill:#FFFFFF;}
	.st50{opacity:0.3;}
	.st51{fill:#FFD82F;}
	.st52{fill:#F4C121;}
	.st53{fill:#EF9D0A;}
	.st54{fill:#F9E532;}
	.st55{fill:#F4C01E;}
	.st56{fill:#FFE14D;}
	.st57{fill:#B7C156;}
	.st58{fill:#DBA92C;}
	.st59{fill:#363D4D;}
	.st60{fill:#3F4656;}
	.st61{fill:#463E33;}
	.st62{fill:none;}
	.st63{opacity:4.000000e-02;}
	.st64{fill:#4DB6AC;}
	.st65{fill:#CADE49;}
	.st66{fill:#9FD343;}
	.st67{fill:#AAD643;}
	.st68{fill:#82C736;}
	.st69{opacity:0.3;fill:#FFFFFF;}
	.st70{fill:#FFD640;}
	.st71{opacity:0.5;}
	.st72{opacity:0.6;}
</style><g><circle class="st35" cx="32" cy="32" r="32"/><g><g><ellipse class="st31" cx="32" cy="32" rx="13.2" ry="13.2" transform="matrix(0.7071 -0.7071 0.7071 0.7071 -13.2548 32)"/></g><path class="st5" d="M39.9,21.5c1.6,2.2,2.6,4.9,2.6,7.9c0,7.3-5.9,13.2-13.2,13.2c-3,0-5.7-1-7.9-2.6c2.4,3.2,6.2,5.3,10.5,5.3    c7.3,0,13.2-5.9,13.2-13.2C45.2,27.7,43.1,23.9,39.9,21.5z"/><g><path class="st21" d="M56,32C56,18.7,45.3,8,32,8v10.8c7.3,0,13.2,5.9,13.2,13.2c0,3.7-1.5,7-3.9,9.3l7.7,7.7     C53.3,44.7,56,38.6,56,32z"/></g><g><path class="st8" d="M32,45.2c-7.3,0-13.2-5.9-13.2-13.2c0-0.1,0-0.2,0-0.3H8c0,0.1,0,0.2,0,0.3c0,13.3,10.7,24,24,24     c6.6,0,12.6-2.7,16.9-7l-7.7-7.7C38.9,43.7,35.6,45.2,32,45.2z"/></g><g><path class="st19" d="M32,18.8V8C18.9,8,8.2,18.6,8,31.7h10.8C19,24.6,24.8,18.8,32,18.8z"/></g><g><g><path class="st3" d="M38.7,25.3c-0.4-0.4-1-0.4-1.4,0L25.3,37.2c-0.4,0.4-0.4,1,0,1.4c0.2,0.2,0.5,0.3,0.7,0.3      c0.3,0,0.5-0.1,0.7-0.3l11.9-11.9C39.1,26.3,39.1,25.7,38.7,25.3z"/></g><g><path class="st3" d="M27.4,31.4c1.7,0,3.2-1.4,3.2-3.2S29.2,25,27.4,25c-1.7,0-3.2,1.4-3.2,3.2S25.7,31.4,27.4,31.4z M27.4,27.1      c0.6,0,1.1,0.5,1.1,1.1c0,0.6-0.5,1.1-1.1,1.1c-0.6,0-1.1-0.5-1.1-1.1C26.3,27.6,26.8,27.1,27.4,27.1z"/></g><g><path class="st3" d="M35.8,33.4c-1.7,0-3.2,1.4-3.2,3.2c0,1.7,1.4,3.2,3.2,3.2c1.7,0,3.2-1.4,3.2-3.2      C39,34.8,37.5,33.4,35.8,33.4z M35.8,37.7c-0.6,0-1.1-0.5-1.1-1.1c0-0.6,0.5-1.1,1.1-1.1c0.6,0,1.1,0.5,1.1,1.1      C36.9,37.2,36.4,37.7,35.8,37.7z"/></g></g><g><g><path class="st3" d="M32,15.5v2.8l-8.7-8.7c0.7-0.3,1.4-0.5,2.1-0.7L32,15.5z"/></g><g><path class="st3" d="M29.6,19.1c-0.8,0.1-1.5,0.3-2.2,0.6l-8.1-8.1c0.6-0.4,1.2-0.7,1.8-1L29.6,19.1z"/></g><g><path class="st3" d="M25.3,20.7c-0.6,0.3-1.1,0.7-1.6,1.2l-7.7-7.7c0.5-0.5,1-0.9,1.5-1.3L25.3,20.7z"/></g><g><path class="st3" d="M22,23.4c-0.4,0.5-0.8,1.1-1.2,1.6l-7.8-7.8c0.4-0.5,0.8-1,1.3-1.5L22,23.4z"/></g><g><path class="st3" d="M19.8,27.1c-0.3,0.7-0.5,1.4-0.7,2.2l-8.4-8.4c0.3-0.6,0.7-1.2,1-1.8L19.8,27.1z"/></g><g><path class="st3" d="M18.4,31.7h-2.8L9,25.1c0.2-0.7,0.5-1.4,0.7-2.1L18.4,31.7z"/></g></g><g class="st15"><path class="st16" d="M32,53.2c-11.7,0-21.2-9.5-21.2-21.2c0-0.2,0-0.3,0-0.5l0-0.1c0.3-11.6,9.6-20.7,21.2-20.7     c11.7,0,21.2,9.5,21.2,21.2c0,5.7-2.2,11-6.3,15.1C43,51,37.6,53.2,32,53.2z M32,16.8c-8.3,0-15,6.5-15.2,14.8c0,0.1,0,0.2,0,0.3     l0,0.1c0,8.4,6.8,15.2,15.2,15.2c4,0,7.9-1.6,10.7-4.4c2.9-2.9,4.5-6.7,4.5-10.8C47.2,23.6,40.4,16.8,32,16.8z"/></g></g></g></svg>