<?xml version="1.0" ?><svg id="Layer_1" style="enable-background:new 0 0 64 64;" version="1.1" viewBox="0 0 64 64" xml:space="preserve" xmlns="http://www.w3.org/2000/svg" xmlns:xlink="http://www.w3.org/1999/xlink"><style type="text/css">
	.st0{fill:#62BEE7;}
	.st1{fill:#474E5E;}
	.st2{fill:#F3EEE4;}
	.st3{fill:#FFFFFF;}
	.st4{fill:#E8DCCA;}
	.st5{opacity:0.1;fill:#231F20;}
	.st6{fill:#506268;}
	.st7{fill:#EB5151;}
	.st8{fill:#C64444;}
	.st9{fill:#9CCB5B;}
	.st10{fill:#404A4C;}
	.st11{fill:#676767;}
	.st12{fill:#E0E1E5;}
	.st13{fill:#9D9EA0;}
	.st14{fill:#B3B4B7;}
	.st15{opacity:0.1;}
	.st16{fill:#231F20;}
	.st17{fill:#FACC20;}
	.st18{fill:#FDEF34;}
	.st19{fill:#F7A90B;}
	.st20{fill:#20B8EA;}
	.st21{fill:#00A8EA;}
	.st22{fill:#33D3F4;}
	.st23{opacity:0.25;fill:#FFFFFF;}
	.st24{fill:#CACBCE;}
	.st25{fill:#2E3545;}
	.st26{fill:#8DAF4A;}
	.st27{fill:#F9C2AF;}
	.st28{fill:#AFDDF4;}
	.st29{fill:#677177;}
	.st30{fill:#FFEDB3;}
	.st31{fill:#695652;}
	.st32{fill:#30A7BF;}
	.st33{fill:#4D5556;}
	.st34{opacity:0.35;}
	.st35{fill:#FFCB04;}
	.st36{fill:#99E9FA;}
	.st37{opacity:0.2;}
	.st38{opacity:3.000000e-02;}
	.st39{fill:#9ECA5B;}
	.st40{fill:#98BA56;}
	.st41{fill:#40EEFF;}
	.st42{fill:#FF6A52;}
	.st43{opacity:0.1;fill:#FFFFFF;}
	.st44{opacity:0.4;}
	.st45{fill:#57606D;}
	.st46{fill:#BACA5B;}
	.st47{opacity:0.25;}
	.st48{opacity:5.000000e-02;fill:#231F20;}
	.st49{opacity:0.2;fill:#FFFFFF;}
	.st50{opacity:0.3;}
	.st51{fill:#FFD82F;}
	.st52{fill:#F4C121;}
	.st53{fill:#EF9D0A;}
	.st54{fill:#F9E532;}
	.st55{fill:#F4C01E;}
	.st56{fill:#FFE14D;}
	.st57{fill:#B7C156;}
	.st58{fill:#DBA92C;}
	.st59{fill:#363D4D;}
	.st60{fill:#3F4656;}
	.st61{fill:#463E33;}
	.st62{fill:none;}
	.st63{opacity:4.000000e-02;}
	.st64{fill:#4DB6AC;}
	.st65{fill:#CADE49;}
	.st66{fill:#9FD343;}
	.st67{fill:#AAD643;}
	.st68{fill:#82C736;}
	.st69{opacity:0.3;fill:#FFFFFF;}
	.st70{fill:#FFD640;}
	.st71{opacity:0.5;}
	.st72{opacity:0.6;}
</style><g><circle class="st0" cx="32" cy="32" r="32"/><g><path class="st3" d="M54.3,43c-0.6-1.4-2.2-2-3.6-1.6L39,45l0,0c0-0.1,0-0.2,0-0.3c0-1.3-1-2.4-2.2-2.5l-23.6-2.3V50l15.5,5.5    c0.8,0.3,1.7,0.5,2.6,0.5c1.1,0,2.2-0.2,3.3-0.7l18.3-8.2C54.4,46.4,55,44.6,54.3,43z"/><path class="st24" d="M39,44.7c0,0,0,0.2,0,0.6c-0.1,0.2-0.1,0.4-0.2,0.6c-0.1,0.1-0.1,0.2-0.2,0.4c-0.1,0.1-0.2,0.2-0.3,0.4    c-0.1,0.1-0.3,0.2-0.4,0.3c-0.1,0.1-0.3,0.2-0.5,0.3c-0.2,0.1-0.4,0.1-0.5,0.2c-0.2,0-0.4,0-0.6,0c-0.8,0-1.6-0.1-2.4-0.1    c-0.8-0.1-1.6-0.1-2.4-0.2c-0.8-0.1-1.5-0.1-2.1-0.2c-1.2-0.1-2-0.2-2-0.2s0.8,0,2,0c0.6,0,1.3,0,2.1,0.1c0.8,0,1.6,0.1,2.4,0.1    c0.8,0.1,1.6,0.1,2.4,0.2c0.2,0,0.4,0,0.5,0c0.2,0,0.3-0.1,0.5-0.1c0.1-0.1,0.3-0.1,0.4-0.2c0.1-0.1,0.3-0.2,0.4-0.3    c0.1-0.1,0.2-0.2,0.3-0.3c0.1-0.1,0.1-0.2,0.2-0.3c0.1-0.2,0.2-0.4,0.3-0.6C39,44.9,39,44.7,39,44.7z"/><g><circle class="st17" cx="34.4" cy="30.2" r="9.7"/><circle class="st18" cx="34.4" cy="30.2" r="6.5"/><path class="st49" d="M25.6,31c0-5.3,4.3-9.7,9.7-9.7c2.5,0,4.7,0.9,6.4,2.4c-1.8-2-4.4-3.3-7.2-3.3c-5.3,0-9.7,4.3-9.7,9.7     c0,2.9,1.3,5.5,3.3,7.2C26.5,35.7,25.6,33.5,25.6,31z"/><path class="st5" d="M40.8,23c1.5,1.7,2.4,3.9,2.4,6.4c0,5.3-4.3,9.7-9.7,9.7c-2.5,0-4.7-0.9-6.4-2.4c1.8,2,4.4,3.3,7.2,3.3     c5.3,0,9.7-4.3,9.7-9.7C44.1,27.3,42.8,24.7,40.8,23z"/><g class="st50"><path class="st3" d="M40,22.3L26.5,35.8c-0.1-0.2-0.3-0.4-0.4-0.6v0l13.3-13.3h0C39.6,22.1,39.8,22.2,40,22.3z"/><path class="st3" d="M42.7,25.2L29.4,38.5c-0.6-0.4-1.2-0.8-1.8-1.4l13.7-13.7C41.8,24,42.3,24.5,42.7,25.2z"/></g><path class="st19" d="M37.2,31c-0.1-0.3-0.5-1.2-2.4-1.6v-2.4c0.5,0.2,0.8,0.5,0.9,0.9c0.1,0.4,0.4,0.6,0.7,0.6     c0.2,0,1.4-0.3,0.2-1.9c-0.2-0.3-0.6-0.7-1.8-0.8V25h-0.7v0.9c-2.2,0.2-2.4,1.7-2.4,2.3c0,1.9,1.9,2.3,2.4,2.4v2.6     c-0.9-0.2-1.1-1.2-1.2-1.5c-0.2-0.4-0.5-0.5-0.7-0.5c-0.6,0-0.7,0.5-0.7,0.7c0,0.2,0.1,1.4,1.5,2.1c0.3,0.2,0.7,0.3,1.2,0.3     l0,0.9h0.7v-0.9c0.5,0,1-0.2,1.4-0.4C37.3,33.4,37.6,32.2,37.2,31z M34.1,29.2c-0.6-0.3-1-0.4-1-1.1c0-0.3,0.1-0.8,1-1.1V29.2z      M34.8,33.4v-2.5c1.2,0.4,1.2,0.9,1.2,1.2C36,32.4,35.9,33.1,34.8,33.4z"/></g><g><circle class="st17" cx="47.4" cy="14.5" r="6.5"/><circle class="st18" cx="47.4" cy="14.5" r="4.4"/><path class="st49" d="M41.4,15.1c0-3.6,2.9-6.5,6.5-6.5c1.7,0,3.2,0.6,4.3,1.6C51.1,8.9,49.4,8,47.4,8c-3.6,0-6.5,2.9-6.5,6.5     c0,1.9,0.9,3.7,2.2,4.9C42.1,18.3,41.4,16.8,41.4,15.1z"/><path class="st5" d="M51.7,9.6c1,1.2,1.6,2.7,1.6,4.3c0,3.6-2.9,6.5-6.5,6.5c-1.7,0-3.2-0.6-4.3-1.6c1.2,1.4,2.9,2.2,4.9,2.2     c3.6,0,6.5-2.9,6.5-6.5C53.9,12.6,53.1,10.8,51.7,9.6z"/><g class="st50"><path class="st3" d="M51.2,9.2l-9.1,9.1c-0.1-0.1-0.2-0.3-0.3-0.4v0l9-9h0C50.9,9,51.1,9.1,51.2,9.2z"/><path class="st3" d="M53,11.1l-9,9c-0.4-0.3-0.8-0.6-1.2-0.9l9.2-9.2C52.4,10.3,52.7,10.7,53,11.1z"/></g><path class="st19" d="M49.3,15.1c-0.1-0.2-0.3-0.8-1.6-1.1v-1.6c0.3,0.1,0.5,0.3,0.6,0.6c0.1,0.3,0.2,0.4,0.5,0.4     c0.1,0,0.9-0.2,0.1-1.3c-0.1-0.2-0.4-0.5-1.2-0.5V11h-0.5v0.6c-1.5,0.2-1.6,1.1-1.6,1.6c0,1.3,1.3,1.5,1.6,1.6v1.8     c-0.6-0.1-0.8-0.8-0.8-1c-0.1-0.3-0.3-0.3-0.5-0.3c-0.4,0-0.5,0.4-0.5,0.5c0,0.2,0.1,0.9,1,1.4c0.2,0.1,0.5,0.2,0.8,0.2l0,0.6     h0.5v-0.6c0.4,0,0.7-0.1,0.9-0.3C49.3,16.7,49.6,15.9,49.3,15.1z M47.2,13.9c-0.4-0.2-0.7-0.2-0.7-0.7c0-0.2,0.1-0.6,0.7-0.7     V13.9z M47.7,16.7V15c0.8,0.3,0.8,0.6,0.8,0.8C48.5,16,48.4,16.5,47.7,16.7z"/></g><g><circle class="st17" cx="21.1" cy="16.7" r="7.5"/><circle class="st18" cx="21.1" cy="16.7" r="5"/><path class="st49" d="M14.3,17.3c0-4.1,3.3-7.5,7.5-7.5c1.9,0,3.6,0.7,4.9,1.9c-1.4-1.5-3.4-2.5-5.6-2.5c-4.1,0-7.5,3.3-7.5,7.5     c0,2.2,1,4.2,2.5,5.6C15,20.9,14.3,19.2,14.3,17.3z"/><path class="st5" d="M26,11.1c1.2,1.3,1.9,3,1.9,4.9c0,4.1-3.3,7.5-7.5,7.5c-1.9,0-3.6-0.7-4.9-1.9c1.4,1.5,3.4,2.5,5.6,2.5     c4.1,0,7.5-3.3,7.5-7.5C28.6,14.4,27.6,12.5,26,11.1z"/><g class="st50"><path class="st3" d="M25.4,10.6L15,21c-0.1-0.2-0.2-0.3-0.3-0.5v0L25,10.3h0C25.1,10.4,25.3,10.5,25.4,10.6z"/><path class="st3" d="M27.5,12.8L17.2,23.1c-0.5-0.3-0.9-0.7-1.4-1.1l10.5-10.5C26.8,11.9,27.2,12.3,27.5,12.8z"/></g><path class="st19" d="M23.3,17.3c-0.1-0.2-0.4-0.9-1.9-1.2v-1.8c0.4,0.1,0.6,0.4,0.7,0.7c0.1,0.3,0.3,0.5,0.6,0.5     c0.2,0,1.1-0.3,0.1-1.4c-0.2-0.2-0.4-0.5-1.4-0.6v-0.7h-0.6v0.7c-1.7,0.2-1.9,1.3-1.9,1.8c0,1.5,1.5,1.8,1.9,1.9v2     c-0.7-0.2-0.9-0.9-0.9-1.1c-0.1-0.3-0.4-0.4-0.5-0.4c-0.4,0-0.6,0.4-0.6,0.6c0,0.2,0.1,1.1,1.1,1.6c0.3,0.1,0.6,0.2,0.9,0.2     l0,0.7h0.6V20c0.4,0,0.8-0.1,1.1-0.3C23.3,19.2,23.6,18.2,23.3,17.3z M20.8,15.9c-0.4-0.2-0.8-0.3-0.8-0.8c0-0.2,0.1-0.7,0.8-0.8     V15.9z M21.4,19.1v-1.9c0.9,0.3,0.9,0.7,0.9,0.9C22.3,18.4,22.3,18.9,21.4,19.1z"/></g><g><rect class="st25" height="17.6" width="4.7" x="9.4" y="36.4"/></g><path class="st2" d="M36.3,43.1l-2-0.2L34,46l2,0.2c0.9,0.1,1.7-0.5,1.8-1.4C37.9,44,37.2,43.2,36.3,43.1z"/><rect class="st24" height="14.6" width="2.5" x="14.1" y="37.9"/><circle class="st3" cx="11.7" cy="51.8" r="1"/></g></g></svg>