<?xml version="1.0" ?><svg id="Layer_1" style="enable-background:new 0 0 64 64;" version="1.1" viewBox="0 0 64 64" xml:space="preserve" xmlns="http://www.w3.org/2000/svg" xmlns:xlink="http://www.w3.org/1999/xlink"><style type="text/css">
	.st0{fill:#62BEE7;}
	.st1{fill:#474E5E;}
	.st2{fill:#F3EEE4;}
	.st3{fill:#FFFFFF;}
	.st4{fill:#E8DCCA;}
	.st5{opacity:0.1;fill:#231F20;}
	.st6{fill:#506268;}
	.st7{fill:#EB5151;}
	.st8{fill:#C64444;}
	.st9{fill:#9CCB5B;}
	.st10{fill:#404A4C;}
	.st11{fill:#676767;}
	.st12{fill:#E0E1E5;}
	.st13{fill:#9D9EA0;}
	.st14{fill:#B3B4B7;}
	.st15{opacity:0.1;}
	.st16{fill:#231F20;}
	.st17{fill:#FACC20;}
	.st18{fill:#FDEF34;}
	.st19{fill:#F7A90B;}
	.st20{fill:#20B8EA;}
	.st21{fill:#00A8EA;}
	.st22{fill:#33D3F4;}
	.st23{opacity:0.25;fill:#FFFFFF;}
	.st24{fill:#CACBCE;}
	.st25{fill:#2E3545;}
	.st26{fill:#8DAF4A;}
	.st27{fill:#F9C2AF;}
	.st28{fill:#AFDDF4;}
	.st29{fill:#677177;}
	.st30{fill:#FFEDB3;}
	.st31{fill:#695652;}
	.st32{fill:#30A7BF;}
	.st33{fill:#4D5556;}
	.st34{opacity:0.35;}
	.st35{fill:#FFCB04;}
	.st36{fill:#99E9FA;}
	.st37{opacity:0.2;}
	.st38{opacity:3.000000e-02;}
	.st39{fill:#9ECA5B;}
	.st40{fill:#98BA56;}
	.st41{fill:#40EEFF;}
	.st42{fill:#FF6A52;}
	.st43{opacity:0.1;fill:#FFFFFF;}
	.st44{opacity:0.4;}
	.st45{fill:#57606D;}
	.st46{fill:#BACA5B;}
	.st47{opacity:0.25;}
	.st48{opacity:5.000000e-02;fill:#231F20;}
	.st49{opacity:0.2;fill:#FFFFFF;}
	.st50{opacity:0.3;}
	.st51{fill:#FFD82F;}
	.st52{fill:#F4C121;}
	.st53{fill:#EF9D0A;}
	.st54{fill:#F9E532;}
	.st55{fill:#F4C01E;}
	.st56{fill:#FFE14D;}
	.st57{fill:#B7C156;}
	.st58{fill:#DBA92C;}
	.st59{fill:#363D4D;}
	.st60{fill:#3F4656;}
	.st61{fill:#463E33;}
	.st62{fill:none;}
	.st63{opacity:4.000000e-02;}
	.st64{fill:#4DB6AC;}
	.st65{fill:#CADE49;}
	.st66{fill:#9FD343;}
	.st67{fill:#AAD643;}
	.st68{fill:#82C736;}
	.st69{opacity:0.3;fill:#FFFFFF;}
	.st70{fill:#FFD640;}
	.st71{opacity:0.5;}
	.st72{opacity:0.6;}
</style><g><circle class="st0" cx="32" cy="32" r="32"/><g><path class="st25" d="M40.1,21.1v17.4c-0.8,0.5-1.3,1.2-2.8,1.2c-2.2,0-2.2-1.6-4.4-1.6c-2.2,0-2.2,1.6-4.4,1.6    c-2.2,0-2.2-1.6-4.4-1.6c-2.2,0-2.2,1.6-4.4,1.6s-2.2-1.6-4.4-1.6c-2.2,0-2.2,1.6-4.4,1.6c-1.6,0-2-0.9-3-1.3V23.8    c0-1.5,1.2-2.7,2.7-2.7H40.1z"/><path class="st59" d="M40.1,31.8v10.5c-0.8,0.5-1.3,1.2-2.8,1.2c-2.2,0-2.2-1.6-4.4-1.6c-2.2,0-2.2,1.6-4.4,1.6    c-2.2,0-2.2-1.6-4.4-1.6c-2.2,0-2.2,1.6-4.4,1.6s-2.2-1.6-4.4-1.6c-2.2,0-2.2,1.6-4.4,1.6c-1.6,0-2-0.9-3-1.3c0-0.1,0-0.3,0-0.4    v-10c1,0.5,1.4,1.3,3,1.3c2.2,0,2.2-1.6,4.4-1.6c2.2,0,2.2,1.6,4.4,1.6c2.2,0,2.2-1.6,4.4-1.6c2.2,0,2.2,1.6,4.4,1.6    c2.2,0,2.2-1.6,4.4-1.6c2.2,0,2.2,1.6,4.4,1.6C38.8,33,39.3,32.3,40.1,31.8z"/><path class="st60" d="M40.1,35.6v8.8H10.7c-1.3,0-2.4-1-2.6-2.2c0-0.1,0-0.3,0-0.4v-6.3c1,0.5,1.4,1.3,3,1.3    c2.2,0,2.2-1.6,4.4-1.6c2.2,0,2.2,1.6,4.4,1.6c2.2,0,2.2-1.6,4.4-1.6c2.2,0,2.2,1.6,4.4,1.6c2.2,0,2.2-1.6,4.4-1.6    c2.2,0,2.2,1.6,4.4,1.6C38.8,36.8,39.3,36,40.1,35.6z"/><path class="st1" d="M40.1,39.3v5.1H10.7c-1.3,0-2.4-1-2.6-2.2c0-0.1,0-0.3,0-0.4v-2.5c1,0.5,1.4,1.3,3,1.3c2.2,0,2.2-1.6,4.4-1.6    c2.2,0,2.2,1.6,4.4,1.6c2.2,0,2.2-1.6,4.4-1.6c2.2,0,2.2,1.6,4.4,1.6c2.2,0,2.2-1.6,4.4-1.6c2.2,0,2.2,1.6,4.4,1.6    C38.8,40.5,39.3,39.8,40.1,39.3z"/><g><path class="st18" d="M52.9,47.5H39c-1.2-1.2-1.9-1.9-3.1-3.1V33.6c1.2-1.2,1.9-1.9,3.1-3.1h13.9c1.2,1.2,1.9,1.9,3.1,3.1v10.8     C54.8,45.6,54.1,46.3,52.9,47.5z"/></g><g><path class="st3" d="M42.1,30.5v-6.2c0-2.1,1.7-3.9,3.9-3.9s3.9,1.7,3.9,3.9v6.2h3.9v-6.2c0-4.3-3.5-7.7-7.8-7.7     s-7.8,3.5-7.8,7.7v6.2H42.1z"/></g><g><path class="st18" d="M44,30.5l-8.1,8.1v-6.1c0.8-0.8,1.3-1.3,2.1-2.1H44z"/><path class="st17" d="M53.4,30.5L37.2,46.7c-0.4-0.4-0.8-0.8-1.3-1.3v-6.8l8.1-8.1H53.4z"/><path class="st19" d="M56,32.5v12.9c-0.8,0.8-1.3,1.3-2.1,2.1H38c-0.3-0.3-0.6-0.6-0.8-0.8l16.2-16.2h0.6     C54.7,31.3,55.2,31.7,56,32.5z"/></g><g class="st15"><path class="st16" d="M53.7,24.3v1.3c0-4.3-3.5-7.8-7.7-7.8c-4.3,0-7.7,3.5-7.7,7.8v-1.3c0-4.3,3.5-7.8,7.7-7.8     C50.2,16.5,53.7,20,53.7,24.3z"/></g><path class="st61" d="M48.4,37.9c0-1.3-1.1-2.4-2.4-2.4c-1.3,0-2.4,1.1-2.4,2.4c0,0.9,0.5,1.7,1.3,2.1v1.3c0,0.6,0.5,1.1,1.1,1.1    c0.6,0,1.1-0.5,1.1-1.1V40C47.8,39.6,48.4,38.8,48.4,37.9z"/><rect class="st58" height="5" width="5" x="11.4" y="25.1"/><g class="st37"><polygon class="st3" points="14.1,25.1 11.4,27.9 11.4,26.6 12.9,25.1    "/><polygon class="st3" points="16.4,25.1 16.4,25.9 12.2,30.1 11.4,30.1 11.4,29 15.2,25.1    "/></g><g><g><circle class="st14" cx="10.2" cy="37.9" r="0.7"/><circle class="st14" cx="12.1" cy="37.9" r="0.7"/><circle class="st14" cx="13.9" cy="37.9" r="0.7"/><circle class="st14" cx="15.7" cy="37.9" r="0.7"/></g><g><circle class="st14" cx="19.1" cy="37.9" r="0.7"/><circle class="st14" cx="20.9" cy="37.9" r="0.7"/><circle class="st14" cx="22.8" cy="37.9" r="0.7"/><circle class="st14" cx="24.6" cy="37.9" r="0.7"/></g><g><circle class="st14" cx="28" cy="37.9" r="0.7"/><circle class="st14" cx="29.8" cy="37.9" r="0.7"/><circle class="st14" cx="31.6" cy="37.9" r="0.7"/><circle class="st14" cx="33.4" cy="37.9" r="0.7"/></g></g><g><path class="st22" d="M32.9,27.7c-0.4,0-0.7,0.3-0.7,0.7c0,0.4,0.3,0.7,0.7,0.7s0.7-0.3,0.7-0.7C33.6,28,33.3,27.7,32.9,27.7z"/><path class="st7" d="M32.9,26.7c-0.2,0-0.5,0.1-0.7,0.2c-0.1,0-0.2,0.1-0.2,0.1v-0.3v-1.5h-0.7v2.2v0.9c0,0.6,0.3,1.1,0.7,1.4     c0.1,0.1,0.2,0.1,0.2,0.1c0.2,0.1,0.4,0.2,0.7,0.2c0.9,0,1.7-0.8,1.7-1.7C34.6,27.4,33.9,26.7,32.9,26.7z M32.9,29.3     c-0.3,0-0.5-0.1-0.7-0.3c-0.2-0.2-0.2-0.4-0.2-0.6c0-0.2,0.1-0.5,0.2-0.6c0.2-0.2,0.4-0.3,0.7-0.3c0.5,0,0.9,0.4,0.9,0.9     C33.9,28.9,33.5,29.3,32.9,29.3z"/></g></g></g></svg>