<?xml version="1.0" ?><svg id="Layer_1" style="enable-background:new 0 0 64 64;" version="1.1" viewBox="0 0 64 64" xml:space="preserve" xmlns="http://www.w3.org/2000/svg" xmlns:xlink="http://www.w3.org/1999/xlink"><style type="text/css">
	.st0{fill:#62BEE7;}
	.st1{fill:#474E5E;}
	.st2{fill:#F3EEE4;}
	.st3{fill:#FFFFFF;}
	.st4{fill:#E8DCCA;}
	.st5{opacity:0.1;fill:#231F20;}
	.st6{fill:#506268;}
	.st7{fill:#EB5151;}
	.st8{fill:#C64444;}
	.st9{fill:#9CCB5B;}
	.st10{fill:#404A4C;}
	.st11{fill:#676767;}
	.st12{fill:#E0E1E5;}
	.st13{fill:#9D9EA0;}
	.st14{fill:#B3B4B7;}
	.st15{opacity:0.1;}
	.st16{fill:#231F20;}
	.st17{fill:#FACC20;}
	.st18{fill:#FDEF34;}
	.st19{fill:#F7A90B;}
	.st20{fill:#20B8EA;}
	.st21{fill:#00A8EA;}
	.st22{fill:#33D3F4;}
	.st23{opacity:0.25;fill:#FFFFFF;}
	.st24{fill:#CACBCE;}
	.st25{fill:#2E3545;}
	.st26{fill:#8DAF4A;}
	.st27{fill:#F9C2AF;}
	.st28{fill:#AFDDF4;}
	.st29{fill:#677177;}
	.st30{fill:#FFEDB3;}
	.st31{fill:#695652;}
	.st32{fill:#30A7BF;}
	.st33{fill:#4D5556;}
	.st34{opacity:0.35;}
	.st35{fill:#FFCB04;}
	.st36{fill:#99E9FA;}
	.st37{opacity:0.2;}
	.st38{opacity:3.000000e-02;}
	.st39{fill:#9ECA5B;}
	.st40{fill:#98BA56;}
	.st41{fill:#40EEFF;}
	.st42{fill:#FF6A52;}
	.st43{opacity:0.1;fill:#FFFFFF;}
	.st44{opacity:0.4;}
	.st45{fill:#57606D;}
	.st46{fill:#BACA5B;}
	.st47{opacity:0.25;}
	.st48{opacity:5.000000e-02;fill:#231F20;}
	.st49{opacity:0.2;fill:#FFFFFF;}
	.st50{opacity:0.3;}
	.st51{fill:#FFD82F;}
	.st52{fill:#F4C121;}
	.st53{fill:#EF9D0A;}
	.st54{fill:#F9E532;}
	.st55{fill:#F4C01E;}
	.st56{fill:#FFE14D;}
	.st57{fill:#B7C156;}
	.st58{fill:#DBA92C;}
	.st59{fill:#363D4D;}
	.st60{fill:#3F4656;}
	.st61{fill:#463E33;}
	.st62{fill:none;}
	.st63{opacity:4.000000e-02;}
	.st64{fill:#4DB6AC;}
	.st65{fill:#CADE49;}
	.st66{fill:#9FD343;}
	.st67{fill:#AAD643;}
	.st68{fill:#82C736;}
	.st69{opacity:0.3;fill:#FFFFFF;}
	.st70{fill:#FFD640;}
	.st71{opacity:0.5;}
	.st72{opacity:0.6;}
</style><g><circle class="st40" cx="32" cy="32" r="32"/><g><rect class="st3" height="27.6" width="41.4" x="11.3" y="15"/><rect class="st17" height="3.2" width="44.9" x="9.6" y="11.8"/><polygon class="st19" points="54.4,11.8 9.6,11.8 11.2,10.3 52.8,10.3   "/><path class="st17" d="M44.1,49.5H19.9c-1,0-1.7-0.8-1.7-1.7v0c0-1,0.8-1.7,1.7-1.7h24.2c1,0,1.7,0.8,1.7,1.7v0    C45.8,48.7,45.1,49.5,44.1,49.5z"/><g><polygon class="st8" points="46.3,56.9 42,49.5 38,49.5 42.3,56.9    "/><polygon class="st8" points="21.7,56.9 26,49.5 22,49.5 17.7,56.9    "/></g><path class="st19" d="M32.8,28.8c0,5.2-4.2,9.4-9.4,9.4v-3.4c3.3,0,5.9-2.7,5.9-5.9H32.8z"/><rect class="st8" height="3.5" width="13.8" x="25.1" y="42.6"/><g><rect class="st24" height="1.7" width="14.3" x="35.3" y="29.1"/><rect class="st24" height="1.7" width="14.3" x="35.3" y="32.7"/><rect class="st24" height="1.7" width="8.6" x="35.3" y="36.4"/></g><path class="st21" d="M30.1,22.2l-2.4,2.4h0c-1.1-1.1-2.5-1.7-4.2-1.7c-3.3,0-5.9,2.7-5.9,5.9c0,3.3,2.6,5.9,5.9,5.9v3.4    c-5.2,0-9.4-4.2-9.4-9.4c0-5.2,4.2-9.4,9.4-9.4C26.1,19.4,28.4,20.5,30.1,22.2z"/><path class="st22" d="M32.8,28.8h-3.4c0-1.6-0.7-3.1-1.7-4.2l2.4-2.4C31.8,23.9,32.8,26.2,32.8,28.8z"/><g><rect class="st4" height="5.8" width="5.8" x="35.4" y="17.9"/><rect class="st4" height="5.8" width="5.8" x="43.9" y="17.9"/></g></g></g></svg>