<?xml version="1.0" ?><svg id="Layer_1" style="enable-background:new 0 0 64 64;" version="1.1" viewBox="0 0 64 64" xml:space="preserve" xmlns="http://www.w3.org/2000/svg" xmlns:xlink="http://www.w3.org/1999/xlink"><style type="text/css">
	.st0{fill:#62BEE7;}
	.st1{fill:#474E5E;}
	.st2{fill:#F3EEE4;}
	.st3{fill:#FFFFFF;}
	.st4{fill:#E8DCCA;}
	.st5{opacity:0.1;fill:#231F20;}
	.st6{fill:#506268;}
	.st7{fill:#EB5151;}
	.st8{fill:#C64444;}
	.st9{fill:#9CCB5B;}
	.st10{fill:#404A4C;}
	.st11{fill:#676767;}
	.st12{fill:#E0E1E5;}
	.st13{fill:#9D9EA0;}
	.st14{fill:#B3B4B7;}
	.st15{opacity:0.1;}
	.st16{fill:#231F20;}
	.st17{fill:#FACC20;}
	.st18{fill:#FDEF34;}
	.st19{fill:#F7A90B;}
	.st20{fill:#20B8EA;}
	.st21{fill:#00A8EA;}
	.st22{fill:#33D3F4;}
	.st23{opacity:0.25;fill:#FFFFFF;}
	.st24{fill:#CACBCE;}
	.st25{fill:#2E3545;}
	.st26{fill:#8DAF4A;}
	.st27{fill:#F9C2AF;}
	.st28{fill:#AFDDF4;}
	.st29{fill:#677177;}
	.st30{fill:#FFEDB3;}
	.st31{fill:#695652;}
	.st32{fill:#30A7BF;}
	.st33{fill:#4D5556;}
	.st34{opacity:0.35;}
	.st35{fill:#FFCB04;}
	.st36{fill:#99E9FA;}
	.st37{opacity:0.2;}
	.st38{opacity:3.000000e-02;}
	.st39{fill:#9ECA5B;}
	.st40{fill:#98BA56;}
	.st41{fill:#40EEFF;}
	.st42{fill:#FF6A52;}
	.st43{opacity:0.1;fill:#FFFFFF;}
	.st44{opacity:0.4;}
	.st45{fill:#57606D;}
	.st46{fill:#BACA5B;}
	.st47{opacity:0.25;}
	.st48{opacity:5.000000e-02;fill:#231F20;}
	.st49{opacity:0.2;fill:#FFFFFF;}
	.st50{opacity:0.3;}
	.st51{fill:#FFD82F;}
	.st52{fill:#F4C121;}
	.st53{fill:#EF9D0A;}
	.st54{fill:#F9E532;}
	.st55{fill:#F4C01E;}
	.st56{fill:#FFE14D;}
	.st57{fill:#B7C156;}
	.st58{fill:#DBA92C;}
	.st59{fill:#363D4D;}
	.st60{fill:#3F4656;}
	.st61{fill:#463E33;}
	.st62{fill:none;}
	.st63{opacity:4.000000e-02;}
	.st64{fill:#4DB6AC;}
	.st65{fill:#CADE49;}
	.st66{fill:#9FD343;}
	.st67{fill:#AAD643;}
	.st68{fill:#82C736;}
	.st69{opacity:0.3;fill:#FFFFFF;}
	.st70{fill:#FFD640;}
	.st71{opacity:0.5;}
	.st72{opacity:0.6;}
</style><g><circle class="st7" cx="32" cy="32" r="32"/><g><g><circle class="st19" cx="38.7" cy="29.9" r="2.5"/></g><polygon class="st3" points="37.4,32.2 36.4,31.2 32.7,34.9 32.7,20.7 31.3,20.7 31.3,31.5 27.6,27.8 26.6,28.9 31.3,33.5     31.3,39.1 32.7,39.1 32.7,36.9   "/><g><circle class="st21" cx="25.3" cy="26.6" r="2.5"/></g><g><path class="st40" d="M37.5,56h-11c-2.1,0-4-1.5-4.4-3.6l-2.6-9.8h25l-2.6,9.8C41.5,54.5,39.6,56,37.5,56z"/></g><g><path class="st31" d="M45.3,42.7H18.7c-1.4,0-2.5-1.1-2.5-2.5v0c0-1.4,1.1-2.5,2.5-2.5h26.7c1.4,0,2.5,1.1,2.5,2.5v0     C47.8,41.5,46.7,42.7,45.3,42.7z"/></g><g><g><g><rect class="st65" height="14.8" width="24.9" x="19.6" y="8"/></g></g><g><g><rect class="st67" height="10.1" width="20.3" x="21.9" y="10.3"/></g></g><g><ellipse class="st68" cx="32.1" cy="15.4" rx="2.9" ry="3.9"/></g><g><g><path class="st68" d="M25.2,10.3c0,1.8-1.4,3.2-3.2,3.2h0v-3.2H25.2z"/></g></g><g><g><path class="st68" d="M42.2,10.3v3.2c-1.8,0-3.2-1.4-3.2-3.2H42.2z"/></g></g><g><g><path class="st68" d="M25.2,20.5h-3.2v-3.2h0C23.7,17.2,25.2,18.7,25.2,20.5z"/></g></g><g><g><path class="st68" d="M42.2,17.2v3.2H39C39,18.7,40.4,17.2,42.2,17.2z"/></g></g><g><g><g><path class="st3" d="M33.6,15.8c-0.1-0.2-0.3-0.6-1.3-0.8v-1.3c0.3,0.1,0.4,0.3,0.5,0.5c0.1,0.2,0.2,0.3,0.4,0.3        c0.1,0,0.8-0.2,0.1-1c-0.1-0.1-0.3-0.4-1-0.4v-0.5h-0.4v0.5c-1.2,0.1-1.3,0.9-1.3,1.3c0,1,1,1.2,1.3,1.3v1.4        c-0.5-0.1-0.6-0.6-0.7-0.8C31.1,16,31,16,30.9,16c-0.3,0-0.4,0.3-0.4,0.4c0,0.1,0.1,0.7,0.8,1.1c0.2,0.1,0.4,0.1,0.6,0.2        l0,0.5h0.4v-0.5c0.3,0,0.5-0.1,0.8-0.2C33.6,17.1,33.8,16.4,33.6,15.8z M31.9,14.8c-0.3-0.1-0.5-0.2-0.5-0.6        c0-0.2,0.1-0.5,0.5-0.6V14.8z M32.3,17.1v-1.3c0.6,0.2,0.6,0.5,0.6,0.7C32.9,16.6,32.9,17,32.3,17.1z"/></g></g></g><g><circle class="st68" cx="27.3" cy="15.4" r="0.7"/><circle class="st68" cx="36.8" cy="15.4" r="0.7"/></g></g><path class="st69" d="M24.3,52.4l-2.6-9.8h-2.2l2.6,9.8c0.4,2.1,2.2,3.6,4.4,3.6h2.2C26.5,56,24.7,54.5,24.3,52.4z"/><path class="st5" d="M42.4,42.7l-2.6,9.8c-0.4,2.1-2.2,3.6-4.4,3.6h2.2c2.1,0,4-1.5,4.4-3.6l2.6-9.8H42.4z"/><g class="st50"><circle class="st3" cx="38" cy="29.2" r="1.5"/></g><g class="st50"><circle class="st3" cx="24.6" cy="25.9" r="1.5"/></g></g></g></svg>