<?xml version="1.0" ?><svg id="Layer_1" style="enable-background:new 0 0 64 64;" version="1.1" viewBox="0 0 64 64" xml:space="preserve" xmlns="http://www.w3.org/2000/svg" xmlns:xlink="http://www.w3.org/1999/xlink"><style type="text/css">
	.st0{fill:#62BEE7;}
	.st1{fill:#474E5E;}
	.st2{fill:#F3EEE4;}
	.st3{fill:#FFFFFF;}
	.st4{fill:#E8DCCA;}
	.st5{opacity:0.1;fill:#231F20;}
	.st6{fill:#506268;}
	.st7{fill:#EB5151;}
	.st8{fill:#C64444;}
	.st9{fill:#9CCB5B;}
	.st10{fill:#404A4C;}
	.st11{fill:#676767;}
	.st12{fill:#E0E1E5;}
	.st13{fill:#9D9EA0;}
	.st14{fill:#B3B4B7;}
	.st15{opacity:0.1;}
	.st16{fill:#231F20;}
	.st17{fill:#FACC20;}
	.st18{fill:#FDEF34;}
	.st19{fill:#F7A90B;}
	.st20{fill:#20B8EA;}
	.st21{fill:#00A8EA;}
	.st22{fill:#33D3F4;}
	.st23{opacity:0.25;fill:#FFFFFF;}
	.st24{fill:#CACBCE;}
	.st25{fill:#2E3545;}
	.st26{fill:#8DAF4A;}
	.st27{fill:#F9C2AF;}
	.st28{fill:#AFDDF4;}
	.st29{fill:#677177;}
	.st30{fill:#FFEDB3;}
	.st31{fill:#695652;}
	.st32{fill:#30A7BF;}
	.st33{fill:#4D5556;}
	.st34{opacity:0.35;}
	.st35{fill:#FFCB04;}
	.st36{fill:#99E9FA;}
	.st37{opacity:0.2;}
	.st38{opacity:3.000000e-02;}
	.st39{fill:#9ECA5B;}
	.st40{fill:#98BA56;}
	.st41{fill:#40EEFF;}
	.st42{fill:#FF6A52;}
	.st43{opacity:0.1;fill:#FFFFFF;}
	.st44{opacity:0.4;}
	.st45{fill:#57606D;}
	.st46{fill:#BACA5B;}
	.st47{opacity:0.25;}
	.st48{opacity:5.000000e-02;fill:#231F20;}
	.st49{opacity:0.2;fill:#FFFFFF;}
	.st50{opacity:0.3;}
	.st51{fill:#FFD82F;}
	.st52{fill:#F4C121;}
	.st53{fill:#EF9D0A;}
	.st54{fill:#F9E532;}
	.st55{fill:#F4C01E;}
	.st56{fill:#FFE14D;}
	.st57{fill:#B7C156;}
	.st58{fill:#DBA92C;}
	.st59{fill:#363D4D;}
	.st60{fill:#3F4656;}
	.st61{fill:#463E33;}
	.st62{fill:none;}
	.st63{opacity:4.000000e-02;}
	.st64{fill:#4DB6AC;}
	.st65{fill:#CADE49;}
	.st66{fill:#9FD343;}
	.st67{fill:#AAD643;}
	.st68{fill:#82C736;}
	.st69{opacity:0.3;fill:#FFFFFF;}
	.st70{fill:#FFD640;}
	.st71{opacity:0.5;}
	.st72{opacity:0.6;}
</style><g><circle class="st7" cx="32" cy="32" r="32"/><g><g><g><path class="st25" d="M53.6,53.9L53.6,53.9c-1.8,1.8-4.7,1.8-6.5,0L35.6,42.5l6.5-6.5l11.4,11.4C55.4,49.2,55.4,52.1,53.6,53.9z      "/></g><rect class="st19" height="5.5" transform="matrix(0.7071 -0.7071 0.7071 0.7071 -19.0125 45.3765)" width="9.2" x="40.7" y="42.9"/></g><g><circle class="st3" cx="27" cy="27.4" r="14.7"/></g><g class="st63"><circle class="st16" cx="21.3" cy="21.7" r="4.9"/></g><path class="st5" d="M37.4,17c-0.4-0.4-0.8-0.8-1.3-1.1c4.6,5.8,4.2,14.1-1.1,19.5c-5.3,5.3-13.7,5.7-19.5,1.1    c0.4,0.4,0.7,0.9,1.1,1.3c5.7,5.7,15,5.7,20.7,0C43.1,32,43.1,22.7,37.4,17z"/><g><path class="st21" d="M7.6,27.4c0-5.2,2-10,5.7-13.7S21.8,8,27,8s10.1,2,13.7,5.7c-0.5-0.5-1.1-0.7-1.8-0.7     c-0.7,0-1.3,0.3-1.8,0.7c-1,1-1,2.6,0,3.6c-2.7-2.7-6.3-4.2-10.1-4.2c-3.8,0-7.4,1.5-10.1,4.2c-5.5,5.5-5.5,14.6,0,20.1     c0.5,0.5,0.8,1.1,0.8,1.8c0,0.7-0.3,1.3-0.8,1.8c-0.9,0.9-2.5,1-3.4,0.2c-0.1-0.1-0.1-0.1-0.2-0.2c-0.1-0.1-0.1-0.1-0.2-0.2     C9.6,37.3,7.6,32.5,7.6,27.4z"/><path class="st22" d="M13.5,41.3c1,0.8,2.5,0.7,3.4-0.2c0.5-0.5,0.8-1.1,0.8-1.8c0-0.7-0.3-1.3-0.8-1.8c2.7,2.7,6.3,4.2,10.1,4.2     c3.8,0,7.4-1.5,10.1-4.2c2.7-2.7,4.2-6.3,4.2-10.1c0-3.8-1.5-7.4-4.2-10.1c-1-1-1-2.6,0-3.6c0.5-0.5,1.1-0.7,1.8-0.7     c0.7,0,1.3,0.3,1.8,0.7c0.1,0.1,0.1,0.1,0.2,0.2c3.5,3.6,5.5,8.4,5.5,13.5c0,5.2-2,10.1-5.7,13.7c-3.7,3.6-8.5,5.7-13.7,5.7     C21.9,46.8,17.1,44.8,13.5,41.3z"/></g><g><g><path class="st42" d="M31.7,28.7c-0.2-0.5-0.8-2-4-2.6v-4c0.8,0.3,1.3,0.8,1.5,1.6c0.2,0.7,0.6,1,1.2,1c0.3,0,2.3-0.6,0.3-3.1      c-0.3-0.4-0.9-1.1-3-1.4v-1.6h-1.2v1.6c-3.7,0.4-4,2.8-4,3.9c0,3.3,3.2,3.8,4,4.1v4.4c-1.5-0.4-1.9-1.9-2-2.5      c-0.3-0.7-0.8-0.8-1.1-0.8c-0.9,0-1.2,0.9-1.2,1.2c0,0.4,0.2,2.3,2.5,3.5c0.5,0.3,1.2,0.4,1.9,0.5l0,1.5h1.2v-1.5      c0.9-0.1,1.7-0.3,2.3-0.7C31.8,32.8,32.4,30.7,31.7,28.7z M26.4,25.7c-0.9-0.4-1.7-0.6-1.7-1.8c0-0.5,0.2-1.4,1.7-1.8V25.7z       M27.7,32.7v-4.2c2,0.6,2,1.5,2,2C29.7,31.1,29.5,32.2,27.7,32.7z"/></g></g></g></g></svg>