<?xml version="1.0" ?><svg id="Layer_1" style="enable-background:new 0 0 64 64;" version="1.1" viewBox="0 0 64 64" xml:space="preserve" xmlns="http://www.w3.org/2000/svg" xmlns:xlink="http://www.w3.org/1999/xlink"><style type="text/css">
	.st0{fill:#62BEE7;}
	.st1{fill:#474E5E;}
	.st2{fill:#F3EEE4;}
	.st3{fill:#FFFFFF;}
	.st4{fill:#E8DCCA;}
	.st5{opacity:0.1;fill:#231F20;}
	.st6{fill:#506268;}
	.st7{fill:#EB5151;}
	.st8{fill:#C64444;}
	.st9{fill:#9CCB5B;}
	.st10{fill:#404A4C;}
	.st11{fill:#676767;}
	.st12{fill:#E0E1E5;}
	.st13{fill:#9D9EA0;}
	.st14{fill:#B3B4B7;}
	.st15{opacity:0.1;}
	.st16{fill:#231F20;}
	.st17{fill:#FACC20;}
	.st18{fill:#FDEF34;}
	.st19{fill:#F7A90B;}
	.st20{fill:#20B8EA;}
	.st21{fill:#00A8EA;}
	.st22{fill:#33D3F4;}
	.st23{opacity:0.25;fill:#FFFFFF;}
	.st24{fill:#CACBCE;}
	.st25{fill:#2E3545;}
	.st26{fill:#8DAF4A;}
	.st27{fill:#F9C2AF;}
	.st28{fill:#AFDDF4;}
	.st29{fill:#677177;}
	.st30{fill:#FFEDB3;}
	.st31{fill:#695652;}
	.st32{fill:#30A7BF;}
	.st33{fill:#4D5556;}
	.st34{opacity:0.35;}
	.st35{fill:#FFCB04;}
	.st36{fill:#99E9FA;}
	.st37{opacity:0.2;}
	.st38{opacity:3.000000e-02;}
	.st39{fill:#9ECA5B;}
	.st40{fill:#98BA56;}
	.st41{fill:#40EEFF;}
	.st42{fill:#FF6A52;}
	.st43{opacity:0.1;fill:#FFFFFF;}
	.st44{opacity:0.4;}
	.st45{fill:#57606D;}
	.st46{fill:#BACA5B;}
	.st47{opacity:0.25;}
	.st48{opacity:5.000000e-02;fill:#231F20;}
	.st49{opacity:0.2;fill:#FFFFFF;}
	.st50{opacity:0.3;}
	.st51{fill:#FFD82F;}
	.st52{fill:#F4C121;}
	.st53{fill:#EF9D0A;}
	.st54{fill:#F9E532;}
	.st55{fill:#F4C01E;}
	.st56{fill:#FFE14D;}
	.st57{fill:#B7C156;}
	.st58{fill:#DBA92C;}
	.st59{fill:#363D4D;}
	.st60{fill:#3F4656;}
	.st61{fill:#463E33;}
	.st62{fill:none;}
	.st63{opacity:4.000000e-02;}
	.st64{fill:#4DB6AC;}
	.st65{fill:#CADE49;}
	.st66{fill:#9FD343;}
	.st67{fill:#AAD643;}
	.st68{fill:#82C736;}
	.st69{opacity:0.3;fill:#FFFFFF;}
	.st70{fill:#FFD640;}
	.st71{opacity:0.5;}
	.st72{opacity:0.6;}
</style><g><circle class="st26" cx="32" cy="32" r="32"/><g><g><polygon class="st3" points="29.7,12.7 18.1,24.2 18.1,56 50.6,56 50.6,12.7    "/></g><g><circle class="st27" cx="41.3" cy="21.2" r="5.4"/></g><g><polygon class="st28" points="29.7,24.2 29.7,12.7 18.1,24.2    "/></g><g><rect class="st28" height="17.1" width="24.8" x="21.9" y="29.6"/></g><g><rect class="st3" height="4.6" width="3.1" x="25.8" y="39"/></g><g><rect class="st3" height="7.7" width="3.1" x="32.8" y="35.9"/></g><g><rect class="st3" height="10.9" width="3.1" x="39.7" y="32.8"/></g><g><polygon class="st27" points="18.1,24.2 29.7,12.7 45.9,12.7 45.9,8 13.4,8 13.4,51.3 18.1,51.3    "/></g><g><path class="st29" d="M30.5,50.6h-8.5c-0.4,0-0.8-0.3-0.8-0.8c0-0.4,0.3-0.8,0.8-0.8h8.5c0.4,0,0.8,0.3,0.8,0.8     C31.2,50.2,30.9,50.6,30.5,50.6z"/></g><g><path class="st29" d="M30.5,53.7h-8.5c-0.4,0-0.8-0.3-0.8-0.8c0-0.4,0.3-0.8,0.8-0.8h8.5c0.4,0,0.8,0.3,0.8,0.8     C31.2,53.3,30.9,53.7,30.5,53.7z"/></g><g><path class="st29" d="M46.7,50.6h-8.5c-0.4,0-0.8-0.3-0.8-0.8c0-0.4,0.3-0.8,0.8-0.8h8.5c0.4,0,0.8,0.3,0.8,0.8     C47.5,50.2,47.1,50.6,46.7,50.6z"/></g><g><path class="st29" d="M46.7,53.7h-8.5c-0.4,0-0.8-0.3-0.8-0.8c0-0.4,0.3-0.8,0.8-0.8h8.5c0.4,0,0.8,0.3,0.8,0.8     C47.5,53.3,47.1,53.7,46.7,53.7z"/></g><g><path class="st29" d="M43.2,21.7c-0.1-0.2-0.3-0.8-1.6-1v-1.6c0.3,0.1,0.5,0.3,0.6,0.6c0.1,0.3,0.2,0.4,0.5,0.4     c0.1,0,0.9-0.2,0.1-1.2c-0.1-0.2-0.4-0.5-1.2-0.5v-0.6h-0.5v0.6c-1.5,0.2-1.6,1.1-1.6,1.5c0,1.3,1.3,1.5,1.6,1.6v1.8     c-0.6-0.1-0.7-0.8-0.8-1c-0.1-0.3-0.3-0.3-0.5-0.3c-0.4,0-0.5,0.4-0.5,0.5c0,0.2,0.1,0.9,1,1.4c0.2,0.1,0.5,0.2,0.8,0.2l0,0.6     h0.5V24c0.4,0,0.7-0.1,0.9-0.3C43.2,23.3,43.4,22.5,43.2,21.7z M41.1,20.5c-0.4-0.2-0.7-0.2-0.7-0.7c0-0.2,0.1-0.6,0.7-0.7V20.5z      M41.6,23.3v-1.7c0.8,0.3,0.8,0.6,0.8,0.8C42.3,22.6,42.3,23.1,41.6,23.3z"/></g></g></g></svg>