<?xml version="1.0" ?><svg id="Layer_1" style="enable-background:new 0 0 64 64;" version="1.1" viewBox="0 0 64 64" xml:space="preserve" xmlns="http://www.w3.org/2000/svg" xmlns:xlink="http://www.w3.org/1999/xlink"><style type="text/css">
	.st0{fill:#62BEE7;}
	.st1{fill:#474E5E;}
	.st2{fill:#F3EEE4;}
	.st3{fill:#FFFFFF;}
	.st4{fill:#E8DCCA;}
	.st5{opacity:0.1;fill:#231F20;}
	.st6{fill:#506268;}
	.st7{fill:#EB5151;}
	.st8{fill:#C64444;}
	.st9{fill:#9CCB5B;}
	.st10{fill:#404A4C;}
	.st11{fill:#676767;}
	.st12{fill:#E0E1E5;}
	.st13{fill:#9D9EA0;}
	.st14{fill:#B3B4B7;}
	.st15{opacity:0.1;}
	.st16{fill:#231F20;}
	.st17{fill:#FACC20;}
	.st18{fill:#FDEF34;}
	.st19{fill:#F7A90B;}
	.st20{fill:#20B8EA;}
	.st21{fill:#00A8EA;}
	.st22{fill:#33D3F4;}
	.st23{opacity:0.25;fill:#FFFFFF;}
	.st24{fill:#CACBCE;}
	.st25{fill:#2E3545;}
	.st26{fill:#8DAF4A;}
	.st27{fill:#F9C2AF;}
	.st28{fill:#AFDDF4;}
	.st29{fill:#677177;}
	.st30{fill:#FFEDB3;}
	.st31{fill:#695652;}
	.st32{fill:#30A7BF;}
	.st33{fill:#4D5556;}
	.st34{opacity:0.35;}
	.st35{fill:#FFCB04;}
	.st36{fill:#99E9FA;}
	.st37{opacity:0.2;}
	.st38{opacity:3.000000e-02;}
	.st39{fill:#9ECA5B;}
	.st40{fill:#98BA56;}
	.st41{fill:#40EEFF;}
	.st42{fill:#FF6A52;}
	.st43{opacity:0.1;fill:#FFFFFF;}
	.st44{opacity:0.4;}
	.st45{fill:#57606D;}
	.st46{fill:#BACA5B;}
	.st47{opacity:0.25;}
	.st48{opacity:5.000000e-02;fill:#231F20;}
	.st49{opacity:0.2;fill:#FFFFFF;}
	.st50{opacity:0.3;}
	.st51{fill:#FFD82F;}
	.st52{fill:#F4C121;}
	.st53{fill:#EF9D0A;}
	.st54{fill:#F9E532;}
	.st55{fill:#F4C01E;}
	.st56{fill:#FFE14D;}
	.st57{fill:#B7C156;}
	.st58{fill:#DBA92C;}
	.st59{fill:#363D4D;}
	.st60{fill:#3F4656;}
	.st61{fill:#463E33;}
	.st62{fill:none;}
	.st63{opacity:4.000000e-02;}
	.st64{fill:#4DB6AC;}
	.st65{fill:#CADE49;}
	.st66{fill:#9FD343;}
	.st67{fill:#AAD643;}
	.st68{fill:#82C736;}
	.st69{opacity:0.3;fill:#FFFFFF;}
	.st70{fill:#FFD640;}
	.st71{opacity:0.5;}
	.st72{opacity:0.6;}
</style><g><circle class="st1" cx="32" cy="32" r="32"/><g><g><g><polygon class="st17" points="27.9,18.2 30.7,19.9 23.1,25.3 15.7,30.6 14.2,29.5 18.2,22.2     "/></g><g><polyline class="st18" points="23.1,25.3 18.2,22.2 14.2,29.5 15.7,30.6 23.1,25.3     "/></g><g><polygon class="st17" points="57.7,43.5 45.1,50.7 32,41.7 39.5,35.5 46.8,29.6 54.2,34.1     "/></g><g><polyline class="st19" points="45.1,39 45.1,50.7 57.7,43.5 54.2,34.1 45.1,39     "/></g><g><polyline class="st18" points="39.5,35.5 32,41.7 45.1,50.7 45.1,39 39.5,35.5     "/></g><polygon class="st19" points="19.8,51.6 18.9,39.9 44.2,20.9 48.7,28    "/><polygon class="st18" points="19.8,51.6 18.9,39.9 9,35.4 8,45.7    "/><polygon class="st17" points="44.2,20.9 18.9,39.9 9,35.4 34.3,17.3    "/><polygon class="st51" points="27.2,33 18.9,39.2 12.3,36.2 18.9,37.3    "/><polygon class="st52" points="44.2,20.9 34.5,19.6 9,35.4 34.3,17.3    "/><path class="st3" d="M40.2,20.9l2,0.7c0.2,0.1,0.4,0.3,0.5,0.5l0.7,2l0.7-2c0.1-0.2,0.3-0.4,0.5-0.5l2-0.7l-2-0.7     c-0.2-0.1-0.4-0.3-0.5-0.5l-0.7-2l-0.7,2c-0.1,0.2-0.3,0.4-0.5,0.5L40.2,20.9z"/><g><path class="st3" d="M24.6,14.3c-0.3-0.1-0.6-0.4-0.7-0.7L23,11l-0.9,2.6c-0.1,0.3-0.4,0.6-0.7,0.7l-2.6,0.9l2.6,0.9      c0.3,0.1,0.6,0.4,0.7,0.7l0.9,2.6l0.9-2.6c0.1-0.3,0.4-0.6,0.7-0.7l2.6-0.9L24.6,14.3z"/><path class="st3" d="M18.6,18.2c-0.1,0-0.3-0.2-0.3-0.3l-0.4-1.2l-0.4,1.2c0,0.1-0.2,0.3-0.3,0.3l-1.2,0.4l1.2,0.4      c0.1,0,0.3,0.2,0.3,0.3l0.4,1.2l0.4-1.2c0-0.1,0.2-0.3,0.3-0.3l1.2-0.4L18.6,18.2z"/></g><path class="st3" d="M14.2,30.7l1.2,0.4c0.1,0,0.3,0.2,0.3,0.3l0.4,1.2l0.4-1.2c0-0.1,0.2-0.3,0.3-0.3l1.2-0.4l-1.2-0.4     c-0.1,0-0.3-0.2-0.3-0.3l-0.4-1.2L15.7,30c0,0.1-0.2,0.3-0.3,0.3L14.2,30.7z"/><polygon class="st53" points="34.6,33 27,39.8 34.6,34.3 27,41 34.6,35.5 27,42.2 34.6,36.7 21,48.8 20.5,42.1 34.6,31.8      27,38.5    "/><polygon class="st54" points="18,46 17.7,41.6 10.2,37.9 10.2,37.9 17.3,42.4 10.3,38.9 17.5,43.4 10.5,39.9 17.6,44.4      10.7,40.9    "/><polygon class="st53" points="53.1,39.6 47.1,43.1 52.8,38.4 46.2,42.4 52.9,37.4 46.2,41.4 53,36.4 46.3,40.4 53.1,35.4      53.1,35.4 45.9,39.7 45.9,43.8 45.9,43.8 45.9,48.2 52.8,42.6 46.2,46.6 52.9,41.6 46.2,45.6 53,40.6 46.3,44.5 53.1,39.6    "/></g><g><path class="st55" d="M19.9,32.6c-0.4,0-0.8,0-1.2,0.1c-0.4,0.1-0.7,0.2-1,0.4c-0.2,0.1-0.3,0.3-0.4,0.4s0,0.3,0.1,0.4     c0.1,0.1,0.3,0.2,0.5,0.4c0.2,0.1,0.6,0.2,1,0.3c0.4,0.1,0.8,0.1,1.1,0.2c0.4,0,0.7,0,1,0s0.6-0.1,0.9-0.2     c0.3-0.1,0.5-0.2,0.7-0.3c0.3-0.2,0.4-0.4,0.5-0.5c0.1-0.2,0-0.3-0.1-0.5L22.2,33l-1.1,0.8L20,33.5l1.9-1.3l3.8,0.8L25,33.5     l-0.6,0c0.1,0.2,0,0.3-0.1,0.5c-0.1,0.2-0.3,0.4-0.6,0.5c-0.3,0.2-0.7,0.4-1.1,0.6c-0.4,0.1-0.9,0.2-1.4,0.3     c-0.5,0.1-1,0.1-1.6,0.1c-0.5,0-1.1-0.1-1.6-0.2c-0.6-0.1-1-0.3-1.3-0.4c-0.3-0.2-0.6-0.4-0.7-0.6c-0.1-0.2-0.1-0.4-0.1-0.6     c0.1-0.2,0.3-0.4,0.6-0.7c0.2-0.2,0.5-0.3,0.9-0.5c0.3-0.1,0.7-0.2,1-0.3s0.7-0.1,1.1-0.1c0.4,0,0.8,0,1.2,0.1L19.9,32.6z"/><path class="st55" d="M21.4,29.4c0.3-0.2,0.7-0.4,1.1-0.5c0.4-0.1,0.9-0.2,1.4-0.3c0.5-0.1,1-0.1,1.6-0.1s1.1,0.1,1.6,0.2     c0.5,0.1,1,0.3,1.3,0.4s0.6,0.4,0.7,0.6c0.1,0.2,0.2,0.4,0.1,0.6c-0.1,0.2-0.3,0.4-0.6,0.7s-0.7,0.4-1.1,0.5s-0.9,0.2-1.4,0.3     c-0.5,0.1-1,0.1-1.6,0.1c-0.5,0-1.1-0.1-1.6-0.2c-0.5-0.1-1-0.3-1.3-0.4c-0.3-0.2-0.6-0.4-0.7-0.6s-0.2-0.4-0.1-0.6     C20.9,29.8,21.1,29.6,21.4,29.4z M27.5,30.7c0.2-0.1,0.3-0.3,0.3-0.4c0-0.1,0-0.3-0.1-0.4c-0.1-0.1-0.3-0.2-0.5-0.4     c-0.2-0.1-0.6-0.2-0.9-0.3c-0.4-0.1-0.8-0.1-1.1-0.2s-0.7,0-1,0c-0.3,0-0.6,0.1-0.9,0.2c-0.3,0.1-0.5,0.2-0.7,0.3     c-0.2,0.1-0.3,0.3-0.3,0.4s0,0.3,0.1,0.4s0.3,0.2,0.5,0.4c0.2,0.1,0.6,0.2,0.9,0.3c0.4,0.1,0.8,0.1,1.1,0.2c0.4,0,0.7,0,1,0     s0.6-0.1,0.9-0.2C27,31,27.3,30.9,27.5,30.7z"/><path class="st55" d="M34.3,26.9l-2.8,2l-7-1.6l0.8-0.6l5.8,1.3l2-1.4L34.3,26.9z"/><path class="st55" d="M35.2,22.9c2.4,0.5,2.8,1.3,1.3,2.4l-1.4,1l-7-1.6l1.4-1C31,22.7,32.9,22.4,35.2,22.9z M34.4,23.5     c-0.4-0.1-0.7-0.1-1-0.2c-0.3,0-0.6,0-0.9,0s-0.6,0.1-0.9,0.2c-0.3,0.1-0.6,0.3-0.8,0.4l-0.6,0.4l4.6,1l0.6-0.4     c0.3-0.2,0.4-0.4,0.5-0.5s0.1-0.3,0-0.4s-0.3-0.2-0.5-0.3S34.7,23.6,34.4,23.5z"/></g><g><path class="st56" d="M19.9,32.2c-0.4,0-0.8,0-1.2,0.1c-0.4,0.1-0.7,0.2-1,0.4c-0.2,0.1-0.3,0.3-0.4,0.4c0,0.1,0,0.3,0.1,0.4     c0.1,0.1,0.3,0.2,0.5,0.4c0.2,0.1,0.6,0.2,1,0.3c0.4,0.1,0.8,0.1,1.1,0.2c0.4,0,0.7,0,1,0c0.3,0,0.6-0.1,0.9-0.2s0.5-0.2,0.7-0.3     c0.3-0.2,0.4-0.4,0.5-0.5s0-0.3-0.1-0.5l-0.7-0.2l-1.1,0.8L20,33.1l1.9-1.3l3.8,0.8L25,33l-0.6,0c0.1,0.2,0,0.3-0.1,0.5     c-0.1,0.2-0.3,0.4-0.6,0.5c-0.3,0.2-0.7,0.4-1.1,0.6c-0.4,0.1-0.9,0.2-1.4,0.3c-0.5,0.1-1,0.1-1.6,0.1c-0.5,0-1.1-0.1-1.6-0.2     c-0.6-0.1-1-0.3-1.3-0.4c-0.3-0.2-0.6-0.4-0.7-0.6c-0.1-0.2-0.1-0.4-0.1-0.6c0.1-0.2,0.3-0.4,0.6-0.7c0.2-0.2,0.5-0.3,0.9-0.5     c0.3-0.1,0.7-0.2,1-0.3c0.4-0.1,0.7-0.1,1.1-0.1c0.4,0,0.8,0,1.2,0.1L19.9,32.2z"/><path class="st56" d="M21.4,29c0.3-0.2,0.7-0.4,1.1-0.5c0.4-0.1,0.9-0.2,1.4-0.3c0.5-0.1,1-0.1,1.6-0.1c0.6,0,1.1,0.1,1.6,0.2     c0.5,0.1,1,0.3,1.3,0.4s0.6,0.4,0.7,0.6s0.2,0.4,0.1,0.6c-0.1,0.2-0.3,0.4-0.6,0.7s-0.7,0.4-1.1,0.5s-0.9,0.2-1.4,0.3     c-0.5,0.1-1,0.1-1.6,0.1c-0.5,0-1.1-0.1-1.6-0.2c-0.5-0.1-1-0.3-1.3-0.4c-0.3-0.2-0.6-0.4-0.7-0.6s-0.2-0.4-0.1-0.6     C20.9,29.4,21.1,29.2,21.4,29z M27.5,30.3c0.2-0.1,0.3-0.3,0.3-0.4c0-0.1,0-0.3-0.1-0.4c-0.1-0.1-0.3-0.2-0.5-0.4     c-0.2-0.1-0.6-0.2-0.9-0.3c-0.4-0.1-0.8-0.1-1.1-0.2s-0.7,0-1,0c-0.3,0-0.6,0.1-0.9,0.2c-0.3,0.1-0.5,0.2-0.7,0.3     c-0.2,0.1-0.3,0.3-0.3,0.4s0,0.3,0.1,0.4s0.3,0.2,0.5,0.4c0.2,0.1,0.6,0.2,0.9,0.3c0.4,0.1,0.8,0.1,1.1,0.2c0.4,0,0.7,0,1,0     s0.6-0.1,0.9-0.2C27,30.6,27.3,30.5,27.5,30.3z"/><path class="st56" d="M34.3,26.5l-2.8,2l-7-1.6l0.8-0.6l5.8,1.3l2-1.4L34.3,26.5z"/><path class="st56" d="M35.2,22.5c2.4,0.5,2.8,1.3,1.3,2.4l-1.4,1l-7-1.6l1.4-1C31,22.3,32.9,22,35.2,22.5z M34.4,23.1     c-0.4-0.1-0.7-0.1-1-0.2c-0.3,0-0.6,0-0.9,0c-0.3,0-0.6,0.1-0.9,0.2c-0.3,0.1-0.6,0.3-0.8,0.4L30.1,24l4.6,1l0.6-0.4     c0.3-0.2,0.4-0.4,0.5-0.5s0.1-0.3,0-0.4s-0.3-0.2-0.5-0.3S34.7,23.2,34.4,23.1z"/></g><g><path class="st17" d="M19.9,32.4c-0.4,0-0.8,0-1.2,0.1c-0.4,0.1-0.7,0.2-1,0.4c-0.2,0.1-0.3,0.3-0.4,0.4s0,0.3,0.1,0.4     c0.1,0.1,0.3,0.2,0.5,0.4c0.2,0.1,0.6,0.2,1,0.3c0.4,0.1,0.8,0.1,1.1,0.2s0.7,0,1,0c0.3,0,0.6-0.1,0.9-0.2s0.5-0.2,0.7-0.3     c0.3-0.2,0.4-0.4,0.5-0.5s0-0.3-0.1-0.5l-0.7-0.2l-1.1,0.8L20,33.3l1.9-1.3l3.8,0.8L25,33.3l-0.6,0c0.1,0.2,0,0.3-0.1,0.5     c-0.1,0.2-0.3,0.4-0.6,0.5c-0.3,0.2-0.7,0.4-1.1,0.6c-0.4,0.1-0.9,0.2-1.4,0.3c-0.5,0.1-1,0.1-1.6,0.1c-0.5,0-1.1-0.1-1.6-0.2     c-0.6-0.1-1-0.3-1.3-0.4c-0.3-0.2-0.6-0.4-0.7-0.6c-0.1-0.2-0.1-0.4-0.1-0.6c0.1-0.2,0.3-0.4,0.6-0.7c0.2-0.2,0.5-0.3,0.9-0.5     c0.3-0.1,0.7-0.2,1-0.3c0.4-0.1,0.7-0.1,1.1-0.1c0.4,0,0.8,0,1.2,0.1L19.9,32.4z"/><path class="st17" d="M21.4,29.2c0.3-0.2,0.7-0.4,1.1-0.5c0.4-0.1,0.9-0.2,1.4-0.3c0.5-0.1,1-0.1,1.6-0.1s1.1,0.1,1.6,0.2     c0.5,0.1,1,0.3,1.3,0.4c0.3,0.2,0.6,0.4,0.7,0.6s0.2,0.4,0.1,0.6c-0.1,0.2-0.3,0.4-0.6,0.7c-0.3,0.2-0.7,0.4-1.1,0.5     c-0.4,0.1-0.9,0.2-1.4,0.3s-1,0.1-1.6,0.1c-0.5,0-1.1-0.1-1.6-0.2c-0.5-0.1-1-0.3-1.3-0.4c-0.3-0.2-0.6-0.4-0.7-0.6     c-0.1-0.2-0.2-0.4-0.1-0.6C20.9,29.6,21.1,29.4,21.4,29.2z M27.5,30.5c0.2-0.1,0.3-0.3,0.3-0.4c0-0.1,0-0.3-0.1-0.4     c-0.1-0.1-0.3-0.2-0.5-0.4s-0.6-0.2-0.9-0.3c-0.4-0.1-0.8-0.1-1.1-0.2s-0.7,0-1,0c-0.3,0-0.6,0.1-0.9,0.2s-0.5,0.2-0.7,0.3     c-0.2,0.1-0.3,0.3-0.3,0.4c0,0.1,0,0.3,0.1,0.4c0.1,0.1,0.3,0.2,0.5,0.4c0.2,0.1,0.6,0.2,0.9,0.3c0.4,0.1,0.8,0.1,1.1,0.2     c0.4,0,0.7,0,1,0c0.3,0,0.6-0.1,0.9-0.2C27,30.8,27.3,30.7,27.5,30.5z"/><path class="st17" d="M34.3,26.7l-2.8,2l-7-1.6l0.8-0.6l5.8,1.3l2-1.4L34.3,26.7z"/><path class="st17" d="M35.2,22.7c2.4,0.5,2.8,1.3,1.3,2.4l-1.4,1l-7-1.6l1.4-1C31,22.5,32.9,22.2,35.2,22.7z M34.4,23.3     c-0.4-0.1-0.7-0.1-1-0.2c-0.3,0-0.6,0-0.9,0c-0.3,0-0.6,0.1-0.9,0.2c-0.3,0.1-0.6,0.3-0.8,0.4l-0.6,0.4l4.6,1l0.6-0.4     c0.3-0.2,0.4-0.4,0.5-0.5s0.1-0.3,0-0.4s-0.3-0.2-0.5-0.3S34.7,23.4,34.4,23.3z"/></g></g></g></svg>