<?xml version="1.0" ?><svg id="Layer_1" style="enable-background:new 0 0 64 64;" version="1.1" viewBox="0 0 64 64" xml:space="preserve" xmlns="http://www.w3.org/2000/svg" xmlns:xlink="http://www.w3.org/1999/xlink"><style type="text/css">
	.st0{fill:#62BEE7;}
	.st1{fill:#474E5E;}
	.st2{fill:#F3EEE4;}
	.st3{fill:#FFFFFF;}
	.st4{fill:#E8DCCA;}
	.st5{opacity:0.1;fill:#231F20;}
	.st6{fill:#506268;}
	.st7{fill:#EB5151;}
	.st8{fill:#C64444;}
	.st9{fill:#9CCB5B;}
	.st10{fill:#404A4C;}
	.st11{fill:#676767;}
	.st12{fill:#E0E1E5;}
	.st13{fill:#9D9EA0;}
	.st14{fill:#B3B4B7;}
	.st15{opacity:0.1;}
	.st16{fill:#231F20;}
	.st17{fill:#FACC20;}
	.st18{fill:#FDEF34;}
	.st19{fill:#F7A90B;}
	.st20{fill:#20B8EA;}
	.st21{fill:#00A8EA;}
	.st22{fill:#33D3F4;}
	.st23{opacity:0.25;fill:#FFFFFF;}
	.st24{fill:#CACBCE;}
	.st25{fill:#2E3545;}
	.st26{fill:#8DAF4A;}
	.st27{fill:#F9C2AF;}
	.st28{fill:#AFDDF4;}
	.st29{fill:#677177;}
	.st30{fill:#FFEDB3;}
	.st31{fill:#695652;}
	.st32{fill:#30A7BF;}
	.st33{fill:#4D5556;}
	.st34{opacity:0.35;}
	.st35{fill:#FFCB04;}
	.st36{fill:#99E9FA;}
	.st37{opacity:0.2;}
	.st38{opacity:3.000000e-02;}
	.st39{fill:#9ECA5B;}
	.st40{fill:#98BA56;}
	.st41{fill:#40EEFF;}
	.st42{fill:#FF6A52;}
	.st43{opacity:0.1;fill:#FFFFFF;}
	.st44{opacity:0.4;}
	.st45{fill:#57606D;}
	.st46{fill:#BACA5B;}
	.st47{opacity:0.25;}
	.st48{opacity:5.000000e-02;fill:#231F20;}
	.st49{opacity:0.2;fill:#FFFFFF;}
	.st50{opacity:0.3;}
	.st51{fill:#FFD82F;}
	.st52{fill:#F4C121;}
	.st53{fill:#EF9D0A;}
	.st54{fill:#F9E532;}
	.st55{fill:#F4C01E;}
	.st56{fill:#FFE14D;}
	.st57{fill:#B7C156;}
	.st58{fill:#DBA92C;}
	.st59{fill:#363D4D;}
	.st60{fill:#3F4656;}
	.st61{fill:#463E33;}
	.st62{fill:none;}
	.st63{opacity:4.000000e-02;}
	.st64{fill:#4DB6AC;}
	.st65{fill:#CADE49;}
	.st66{fill:#9FD343;}
	.st67{fill:#AAD643;}
	.st68{fill:#82C736;}
	.st69{opacity:0.3;fill:#FFFFFF;}
	.st70{fill:#FFD640;}
	.st71{opacity:0.5;}
	.st72{opacity:0.6;}
</style><g><circle class="st35" cx="32" cy="32" r="32"/><g><g><path class="st25" d="M52.9,27.9v9.1h-3.1V29c0-1.2-0.9-2.1-2.1-2.1H15v6.9l-3.9-5.6l0.2-1.3c0.4-1.8,2-3.2,4-3.2l33.3,0     C51,23.7,52.9,25.6,52.9,27.9z"/></g><g><path class="st21" d="M49.3,20.9L40,26.9H22.6l-0.1-0.1l-1.7-2.7L19,21.3c-0.3-0.5-0.2-1.1,0.3-1.4L40.2,6.6     c0.5-0.3,1.1-0.2,1.4,0.3l1.8,2.8l1.7,2.7l4.5,7.1C49.9,20,49.8,20.6,49.3,20.9z"/></g><g><polyline class="st3" points="45.2,12.4 22.6,26.7 20.9,24.1 43.5,9.8    "/></g><g><path class="st25" d="M49.7,43.6h3.1v6.3c0,1.2-0.9,2.1-2.1,2.1h-1V43.6z"/></g><g><path class="st1" d="M39,37.5c-0.7,0.7-1.2,1.7-1.2,2.8c0,2.2,1.8,3.9,3.9,3.9h8.6v8.1c0,1.2-0.9,2.1-2.1,2.1H13.2     c-1.2,0-2.1-0.9-2.1-2.1V28.3c0-1.2,0.9-2.1,2.1-2.1h35.1c1.2,0,2.1,0.9,2.1,2.1v8.1h-8.6C40.7,36.4,39.7,36.8,39,37.5z"/><path class="st25" d="M13.8,51.8V28.9h33.8v4.8h-5.9c-1.8,0-3.4,0.7-4.7,1.9c-1.3,1.3-1.9,2.9-1.9,4.7c0,3.7,3,6.6,6.6,6.6h5.9     v4.8H13.8z"/></g><g><path class="st45" d="M48,53.2h-1.3c-0.1,0-0.1-0.1-0.1-0.1s0.1-0.1,0.1-0.1H48c0.1,0,0.1,0.1,0.1,0.1S48.1,53.2,48,53.2z      M45.3,53.2H44c-0.1,0-0.1-0.1-0.1-0.1S43.9,53,44,53h1.3c0.1,0,0.1,0.1,0.1,0.1S45.4,53.2,45.3,53.2z M42.7,53.2h-1.3     c-0.1,0-0.1-0.1-0.1-0.1s0.1-0.1,0.1-0.1h1.3c0.1,0,0.1,0.1,0.1,0.1S42.7,53.2,42.7,53.2z M40,53.2h-1.3c-0.1,0-0.1-0.1-0.1-0.1     s0.1-0.1,0.1-0.1H40c0.1,0,0.1,0.1,0.1,0.1S40.1,53.2,40,53.2z M37.3,53.2H36c-0.1,0-0.1-0.1-0.1-0.1S35.9,53,36,53h1.3     c0.1,0,0.1,0.1,0.1,0.1S37.4,53.2,37.3,53.2z M34.6,53.2h-1.3c-0.1,0-0.1-0.1-0.1-0.1s0.1-0.1,0.1-0.1h1.3c0.1,0,0.1,0.1,0.1,0.1     S34.7,53.2,34.6,53.2z M32,53.2h-1.3c-0.1,0-0.1-0.1-0.1-0.1s0.1-0.1,0.1-0.1H32c0.1,0,0.1,0.1,0.1,0.1S32,53.2,32,53.2z      M29.3,53.2H28c-0.1,0-0.1-0.1-0.1-0.1S27.9,53,28,53h1.3c0.1,0,0.1,0.1,0.1,0.1S29.4,53.2,29.3,53.2z M26.6,53.2h-1.3     c-0.1,0-0.1-0.1-0.1-0.1s0.1-0.1,0.1-0.1h1.3c0.1,0,0.1,0.1,0.1,0.1S26.7,53.2,26.6,53.2z M23.9,53.2h-1.3     c-0.1,0-0.1-0.1-0.1-0.1s0.1-0.1,0.1-0.1h1.3c0.1,0,0.1,0.1,0.1,0.1S24,53.2,23.9,53.2z M21.3,53.2h-1.3c-0.1,0-0.1-0.1-0.1-0.1     s0.1-0.1,0.1-0.1h1.3c0.1,0,0.1,0.1,0.1,0.1S21.3,53.2,21.3,53.2z M18.6,53.2h-1.3c-0.1,0-0.1-0.1-0.1-0.1s0.1-0.1,0.1-0.1h1.3     c0.1,0,0.1,0.1,0.1,0.1S18.7,53.2,18.6,53.2z M15.9,53.2h-1.3c-0.1,0-0.1-0.1-0.1-0.1s0.1-0.1,0.1-0.1h1.3c0.1,0,0.1,0.1,0.1,0.1     S16,53.2,15.9,53.2z M13.2,53.2L13.2,53.2c-0.5,0-0.9-0.4-0.9-0.9v-0.1c0-0.1,0.1-0.1,0.1-0.1s0.1,0.1,0.1,0.1v0.1     c0,0.4,0.3,0.6,0.6,0.6c0.1,0,0.1,0.1,0.1,0.1S13.3,53.2,13.2,53.2z M49,52.6C49,52.6,49,52.6,49,52.6c-0.1,0-0.1-0.1-0.1-0.1     c0,0,0-0.1,0-0.1v-1.2c0-0.1,0.1-0.1,0.1-0.1s0.1,0.1,0.1,0.1v1.2c0,0.1,0,0.1,0,0.2C49.1,52.6,49.1,52.6,49,52.6z M12.5,51     c-0.1,0-0.1-0.1-0.1-0.1v-1.3c0-0.1,0.1-0.1,0.1-0.1s0.1,0.1,0.1,0.1v1.3C12.6,50.9,12.5,51,12.5,51z M49.1,50     c-0.1,0-0.1-0.1-0.1-0.1v-1.3c0-0.1,0.1-0.1,0.1-0.1s0.1,0.1,0.1,0.1v1.3C49.2,49.9,49.1,50,49.1,50z M12.5,48.3     c-0.1,0-0.1-0.1-0.1-0.1v-1.3c0-0.1,0.1-0.1,0.1-0.1s0.1,0.1,0.1,0.1v1.3C12.6,48.3,12.5,48.3,12.5,48.3z M49.1,47.3     c-0.1,0-0.1-0.1-0.1-0.1v-1.3c0-0.1,0.1-0.1,0.1-0.1s0.1,0.1,0.1,0.1v1.3C49.2,47.2,49.1,47.3,49.1,47.3z M12.5,45.7     c-0.1,0-0.1-0.1-0.1-0.1v-1.3c0-0.1,0.1-0.1,0.1-0.1s0.1,0.1,0.1,0.1v1.3C12.6,45.6,12.5,45.7,12.5,45.7z M49.1,44.6     c-0.1,0-0.1-0.1-0.1-0.1v-1.3c0-0.1,0.1-0.1,0.1-0.1s0.1,0.1,0.1,0.1v1.3C49.2,44.6,49.1,44.6,49.1,44.6z M12.5,43     c-0.1,0-0.1-0.1-0.1-0.1v-1.3c0-0.1,0.1-0.1,0.1-0.1s0.1,0.1,0.1,0.1v1.3C12.6,42.9,12.5,43,12.5,43z M49.1,41.9     c-0.1,0-0.1-0.1-0.1-0.1v-1.3c0-0.1,0.1-0.1,0.1-0.1s0.1,0.1,0.1,0.1v1.3C49.2,41.9,49.1,41.9,49.1,41.9z M12.5,40.3     c-0.1,0-0.1-0.1-0.1-0.1v-1.3c0-0.1,0.1-0.1,0.1-0.1s0.1,0.1,0.1,0.1v1.3C12.6,40.3,12.5,40.3,12.5,40.3z M49.1,39.3     c-0.1,0-0.1-0.1-0.1-0.1v-1.3c0-0.1,0.1-0.1,0.1-0.1s0.1,0.1,0.1,0.1v1.3C49.2,39.2,49.1,39.3,49.1,39.3z M12.5,37.6     c-0.1,0-0.1-0.1-0.1-0.1v-1.3c0-0.1,0.1-0.1,0.1-0.1s0.1,0.1,0.1,0.1v1.3C12.6,37.6,12.5,37.6,12.5,37.6z M49.1,36.6     c-0.1,0-0.1-0.1-0.1-0.1v-1.3c0-0.1,0.1-0.1,0.1-0.1s0.1,0.1,0.1,0.1v1.3C49.2,36.5,49.1,36.6,49.1,36.6z M12.5,35     c-0.1,0-0.1-0.1-0.1-0.1v-1.3c0-0.1,0.1-0.1,0.1-0.1s0.1,0.1,0.1,0.1v1.3C12.6,34.9,12.5,35,12.5,35z M49.1,33.9     c-0.1,0-0.1-0.1-0.1-0.1v-1.3c0-0.1,0.1-0.1,0.1-0.1s0.1,0.1,0.1,0.1v1.3C49.2,33.9,49.1,33.9,49.1,33.9z M12.5,32.3     c-0.1,0-0.1-0.1-0.1-0.1v-1.3c0-0.1,0.1-0.1,0.1-0.1s0.1,0.1,0.1,0.1v1.3C12.6,32.2,12.5,32.3,12.5,32.3z M49.1,31.2     c-0.1,0-0.1-0.1-0.1-0.1v-1.3c0-0.1,0.1-0.1,0.1-0.1s0.1,0.1,0.1,0.1v1.3C49.2,31.2,49.1,31.2,49.1,31.2z M12.5,29.6     c-0.1,0-0.1-0.1-0.1-0.1v-1.2c0-0.1,0-0.1,0-0.2c0-0.1,0.1-0.1,0.1-0.1c0.1,0,0.1,0.1,0.1,0.1c0,0,0,0.1,0,0.1v1.2     C12.6,29.6,12.5,29.6,12.5,29.6z M49.1,28.6c-0.1,0-0.1-0.1-0.1-0.1v-0.1c0-0.4-0.3-0.6-0.6-0.6c-0.1,0-0.1-0.1-0.1-0.1     s0.1-0.1,0.1-0.1h0c0.5,0,0.9,0.4,0.9,0.9v0.1C49.2,28.5,49.1,28.6,49.1,28.6z M47,27.7h-1.3c-0.1,0-0.1-0.1-0.1-0.1     s0.1-0.1,0.1-0.1H47c0.1,0,0.1,0.1,0.1,0.1S47,27.7,47,27.7z M44.3,27.7h-1.3c-0.1,0-0.1-0.1-0.1-0.1s0.1-0.1,0.1-0.1h1.3     c0.1,0,0.1,0.1,0.1,0.1S44.3,27.7,44.3,27.7z M41.6,27.7h-1.3c-0.1,0-0.1-0.1-0.1-0.1s0.1-0.1,0.1-0.1h1.3c0.1,0,0.1,0.1,0.1,0.1     S41.7,27.7,41.6,27.7z M38.9,27.7h-1.3c-0.1,0-0.1-0.1-0.1-0.1s0.1-0.1,0.1-0.1h1.3c0.1,0,0.1,0.1,0.1,0.1S39,27.7,38.9,27.7z      M36.3,27.7h-1.3c-0.1,0-0.1-0.1-0.1-0.1s0.1-0.1,0.1-0.1h1.3c0.1,0,0.1,0.1,0.1,0.1S36.3,27.7,36.3,27.7z M33.6,27.7h-1.3     c-0.1,0-0.1-0.1-0.1-0.1s0.1-0.1,0.1-0.1h1.3c0.1,0,0.1,0.1,0.1,0.1S33.6,27.7,33.6,27.7z M30.9,27.7h-1.3     c-0.1,0-0.1-0.1-0.1-0.1s0.1-0.1,0.1-0.1h1.3c0.1,0,0.1,0.1,0.1,0.1S31,27.7,30.9,27.7z M28.2,27.7h-1.3c-0.1,0-0.1-0.1-0.1-0.1     s0.1-0.1,0.1-0.1h1.3c0.1,0,0.1,0.1,0.1,0.1S28.3,27.7,28.2,27.7z M25.6,27.7h-1.3c-0.1,0-0.1-0.1-0.1-0.1s0.1-0.1,0.1-0.1h1.3     c0.1,0,0.1,0.1,0.1,0.1S25.6,27.7,25.6,27.7z M22.9,27.7h-1.3c-0.1,0-0.1-0.1-0.1-0.1s0.1-0.1,0.1-0.1h1.3c0.1,0,0.1,0.1,0.1,0.1     S22.9,27.7,22.9,27.7z M20.2,27.7h-1.3c-0.1,0-0.1-0.1-0.1-0.1s0.1-0.1,0.1-0.1h1.3c0.1,0,0.1,0.1,0.1,0.1S20.3,27.7,20.2,27.7z      M17.5,27.7h-1.3c-0.1,0-0.1-0.1-0.1-0.1s0.1-0.1,0.1-0.1h1.3c0.1,0,0.1,0.1,0.1,0.1S17.6,27.7,17.5,27.7z M14.9,27.7h-1.3     c-0.1,0-0.1-0.1-0.1-0.1s0.1-0.1,0.1-0.1h1.3c0.1,0,0.1,0.1,0.1,0.1S14.9,27.7,14.9,27.7z"/></g><g><path class="st7" d="M52.9,44.3H41.1c-2.2,0-3.9-1.8-3.9-3.9v0c0-2.2,1.8-3.9,3.9-3.9h11.8V44.3z"/></g><path class="st43" d="M48.5,37.7c0-0.4,0-0.9-0.1-1.3h-7.3c-2.2,0-3.9,1.8-3.9,3.9v0c0,1.3,0.6,2.4,1.6,3.2c0.9,0.5,2,0.8,3.1,0.8    C45.5,44.3,48.5,41.3,48.5,37.7z"/><circle class="st3" cx="41.9" cy="40.3" r="2.2"/><path class="st5" d="M43.1,38.4c0.2,0.3,0.4,0.8,0.4,1.2c0,1.2-1,2.2-2.2,2.2c-0.4,0-0.9-0.1-1.2-0.4c0.4,0.6,1.1,1,1.9,1    c1.2,0,2.2-1,2.2-2.2C44.1,39.5,43.7,38.8,43.1,38.4z"/></g></g></svg>