<?xml version="1.0" ?><svg id="Layer_1" style="enable-background:new 0 0 64 64;" version="1.1" viewBox="0 0 64 64" xml:space="preserve" xmlns="http://www.w3.org/2000/svg" xmlns:xlink="http://www.w3.org/1999/xlink"><style type="text/css">
	.st0{fill:#62BEE7;}
	.st1{fill:#474E5E;}
	.st2{fill:#F3EEE4;}
	.st3{fill:#FFFFFF;}
	.st4{fill:#E8DCCA;}
	.st5{opacity:0.1;fill:#231F20;}
	.st6{fill:#506268;}
	.st7{fill:#EB5151;}
	.st8{fill:#C64444;}
	.st9{fill:#9CCB5B;}
	.st10{fill:#404A4C;}
	.st11{fill:#676767;}
	.st12{fill:#E0E1E5;}
	.st13{fill:#9D9EA0;}
	.st14{fill:#B3B4B7;}
	.st15{opacity:0.1;}
	.st16{fill:#231F20;}
	.st17{fill:#FACC20;}
	.st18{fill:#FDEF34;}
	.st19{fill:#F7A90B;}
	.st20{fill:#20B8EA;}
	.st21{fill:#00A8EA;}
	.st22{fill:#33D3F4;}
	.st23{opacity:0.25;fill:#FFFFFF;}
	.st24{fill:#CACBCE;}
	.st25{fill:#2E3545;}
	.st26{fill:#8DAF4A;}
	.st27{fill:#F9C2AF;}
	.st28{fill:#AFDDF4;}
	.st29{fill:#677177;}
	.st30{fill:#FFEDB3;}
	.st31{fill:#695652;}
	.st32{fill:#30A7BF;}
	.st33{fill:#4D5556;}
	.st34{opacity:0.35;}
	.st35{fill:#FFCB04;}
	.st36{fill:#99E9FA;}
	.st37{opacity:0.2;}
	.st38{opacity:3.000000e-02;}
	.st39{fill:#9ECA5B;}
	.st40{fill:#98BA56;}
	.st41{fill:#40EEFF;}
	.st42{fill:#FF6A52;}
	.st43{opacity:0.1;fill:#FFFFFF;}
	.st44{opacity:0.4;}
	.st45{fill:#57606D;}
	.st46{fill:#BACA5B;}
	.st47{opacity:0.25;}
	.st48{opacity:5.000000e-02;fill:#231F20;}
	.st49{opacity:0.2;fill:#FFFFFF;}
	.st50{opacity:0.3;}
	.st51{fill:#FFD82F;}
	.st52{fill:#F4C121;}
	.st53{fill:#EF9D0A;}
	.st54{fill:#F9E532;}
	.st55{fill:#F4C01E;}
	.st56{fill:#FFE14D;}
	.st57{fill:#B7C156;}
	.st58{fill:#DBA92C;}
	.st59{fill:#363D4D;}
	.st60{fill:#3F4656;}
	.st61{fill:#463E33;}
	.st62{fill:none;}
	.st63{opacity:4.000000e-02;}
	.st64{fill:#4DB6AC;}
	.st65{fill:#CADE49;}
	.st66{fill:#9FD343;}
	.st67{fill:#AAD643;}
	.st68{fill:#82C736;}
	.st69{opacity:0.3;fill:#FFFFFF;}
	.st70{fill:#FFD640;}
	.st71{opacity:0.5;}
	.st72{opacity:0.6;}
</style><g><circle class="st9" cx="32" cy="32" r="32"/><g><g><path class="st10" d="M52.5,46l-14-12.2l-3.8,3.8l12.2,14c1.5,1.7,4.2,1.8,5.8,0.2C54.4,50.2,54.3,47.5,52.5,46z"/></g><g><polygon class="st4" points="32.5,28.6 29.5,31.6 34.7,37.6 38.5,33.8    "/></g><g><path class="st10" d="M23.6,19.8c-0.7-0.6-1.8-0.6-2.4,0.1l-0.3,0.3c-0.6,0.6-0.7,1.7-0.1,2.4l2.4,2.7c0.6,0.7,1.6,0.7,2.3,0.1     l1-1c0.6-0.6,0.6-1.7-0.1-2.3L23.6,19.8z"/></g><g><path class="st18" d="M23.1,46.7h-8.3c-1.6,0-3,1.3-3,3V50h14.2v-0.4C26.1,48,24.8,46.7,23.1,46.7z"/></g><g><rect class="st17" height="2.4" width="17.7" x="10.1" y="50"/></g><g><rect class="st7" height="13.3" transform="matrix(0.7071 -0.7071 0.7071 0.7071 -10.5319 26.7513)" width="21.4" x="16.3" y="19.5"/></g><path class="st10" d="M25.4,36.8l-9.1-9.1c-0.6-0.6-1.5-1-2.4-1c-0.9,0-1.7,0.3-2.4,1c-0.6,0.6-1,1.5-1,2.4c0,0.9,0.3,1.7,1,2.4    l9.1,9.1c0.6,0.6,1.5,1,2.4,1c0.9,0,1.7-0.3,2.4-1C26.6,40.2,26.6,38.1,25.4,36.8z"/><path class="st10" d="M42.5,19.7l-9.1-9.1c-0.6-0.6-1.5-1-2.4-1c-0.9,0-1.7,0.3-2.4,1c-1.3,1.3-1.3,3.4,0,4.7l9.1,9.1    c0.6,0.6,1.5,1,2.4,1c0.9,0,1.7-0.3,2.4-1c0.6-0.6,1-1.5,1-2.4C43.4,21.2,43.1,20.3,42.5,19.7z"/><g><g><path class="st3" d="M41.4,11.8l3.4-3.4c0.2-0.2,0.6-0.2,0.8,0c0.2,0.2,0.2,0.6,0,0.8l-3.4,3.4c-0.2,0.2-0.6,0.2-0.8,0      C41.2,12.3,41.2,12,41.4,11.8z"/></g><g><g><path class="st3" d="M42.7,13.5c0.1-0.1,0.2-0.2,0.4-0.2l3.8,0c0.3,0,0.6,0.3,0.6,0.6c0,0.3-0.3,0.6-0.6,0.6l-3.8,0       c-0.3,0-0.6-0.3-0.6-0.6C42.5,13.8,42.6,13.6,42.7,13.5z"/></g><g><path class="st3" d="M39.6,6.7c0.1-0.1,0.2-0.2,0.4-0.2c0.3,0,0.6,0.3,0.6,0.6l0,3.8c0,0.3-0.3,0.6-0.6,0.6s-0.6-0.3-0.6-0.6       l0-3.8C39.5,7,39.5,6.8,39.6,6.7z"/></g></g></g></g></g></svg>