<?xml version="1.0" ?><svg id="Layer_1" style="enable-background:new 0 0 64 64;" version="1.1" viewBox="0 0 64 64" xml:space="preserve" xmlns="http://www.w3.org/2000/svg" xmlns:xlink="http://www.w3.org/1999/xlink"><style type="text/css">
	.st0{fill:#62BEE7;}
	.st1{fill:#474E5E;}
	.st2{fill:#F3EEE4;}
	.st3{fill:#FFFFFF;}
	.st4{fill:#E8DCCA;}
	.st5{opacity:0.1;fill:#231F20;}
	.st6{fill:#506268;}
	.st7{fill:#EB5151;}
	.st8{fill:#C64444;}
	.st9{fill:#9CCB5B;}
	.st10{fill:#404A4C;}
	.st11{fill:#676767;}
	.st12{fill:#E0E1E5;}
	.st13{fill:#9D9EA0;}
	.st14{fill:#B3B4B7;}
	.st15{opacity:0.1;}
	.st16{fill:#231F20;}
	.st17{fill:#FACC20;}
	.st18{fill:#FDEF34;}
	.st19{fill:#F7A90B;}
	.st20{fill:#20B8EA;}
	.st21{fill:#00A8EA;}
	.st22{fill:#33D3F4;}
	.st23{opacity:0.25;fill:#FFFFFF;}
	.st24{fill:#CACBCE;}
	.st25{fill:#2E3545;}
	.st26{fill:#8DAF4A;}
	.st27{fill:#F9C2AF;}
	.st28{fill:#AFDDF4;}
	.st29{fill:#677177;}
	.st30{fill:#FFEDB3;}
	.st31{fill:#695652;}
	.st32{fill:#30A7BF;}
	.st33{fill:#4D5556;}
	.st34{opacity:0.35;}
	.st35{fill:#FFCB04;}
	.st36{fill:#99E9FA;}
	.st37{opacity:0.2;}
	.st38{opacity:3.000000e-02;}
	.st39{fill:#9ECA5B;}
	.st40{fill:#98BA56;}
	.st41{fill:#40EEFF;}
	.st42{fill:#FF6A52;}
	.st43{opacity:0.1;fill:#FFFFFF;}
	.st44{opacity:0.4;}
	.st45{fill:#57606D;}
	.st46{fill:#BACA5B;}
	.st47{opacity:0.25;}
	.st48{opacity:5.000000e-02;fill:#231F20;}
	.st49{opacity:0.2;fill:#FFFFFF;}
	.st50{opacity:0.3;}
	.st51{fill:#FFD82F;}
	.st52{fill:#F4C121;}
	.st53{fill:#EF9D0A;}
	.st54{fill:#F9E532;}
	.st55{fill:#F4C01E;}
	.st56{fill:#FFE14D;}
	.st57{fill:#B7C156;}
	.st58{fill:#DBA92C;}
	.st59{fill:#363D4D;}
	.st60{fill:#3F4656;}
	.st61{fill:#463E33;}
	.st62{fill:none;}
	.st63{opacity:4.000000e-02;}
	.st64{fill:#4DB6AC;}
	.st65{fill:#CADE49;}
	.st66{fill:#9FD343;}
	.st67{fill:#AAD643;}
	.st68{fill:#82C736;}
	.st69{opacity:0.3;fill:#FFFFFF;}
	.st70{fill:#FFD640;}
	.st71{opacity:0.5;}
	.st72{opacity:0.6;}
</style><g><circle class="st35" cx="32" cy="32" r="32"/><g><g><path class="st1" d="M53.9,11.9H17.8c-1.1,0-2.1,0.9-2.1,2.1v11.9h30.4c1.1,0,2.1,0.9,2.1,2.1v10.3h5.7c1.1,0,2.1-0.9,2.1-2.1     V13.9C56,12.8,55.1,11.9,53.9,11.9z"/></g><g><path class="st1" d="M56,13.9v22.2c0,1.1-0.9,2.1-2.1,2.1h-5.7V27.9c0-1.1-0.9-2.1-2.1-2.1H15.7V13.9c0-1.1,0.9-2.1,2.1-2.1h36.1     c0.1,0,0.2,0,0.3,0c0,0,0.1,0,0.1,0c0.1,0,0.2,0,0.2,0.1c0.1,0,0.1,0,0.2,0.1c0.3,0.1,0.5,0.3,0.7,0.6C55.8,13,56,13.4,56,13.9z"/></g><g><rect class="st25" height="4.6" width="40.3" x="15.7" y="16.5"/></g><g><path class="st8" d="M48.3,28.1v6.2c1.7,0,3.1-1.4,3.1-3.1S50,28.1,48.3,28.1z"/></g><g><path class="st21" d="M45.2,25.8H11.1c-1.7,0-3.1,1.4-3.1,3.1V49c0,1.7,1.4,3.1,3.1,3.1h34.1c1.7,0,3.1-1.4,3.1-3.1V28.9     C48.3,27.2,46.9,25.8,45.2,25.8z"/></g><g><path class="st21" d="M48.3,27.9v22.2c0,1.1-0.9,2.1-2.1,2.1H10.1c-0.1,0-0.2,0-0.3,0c0,0-0.1,0-0.1,0c0,0-0.1,0-0.1,0     c0,0-0.1,0-0.1,0c0,0-0.1,0-0.2-0.1c0,0-0.1,0-0.1-0.1c-0.1,0-0.2-0.1-0.3-0.2c0,0-0.1-0.1-0.1-0.1c0,0-0.1-0.1-0.1-0.1     c0,0-0.1-0.1-0.1-0.1c0-0.1-0.1-0.1-0.1-0.2c0,0-0.1-0.1-0.1-0.1c0,0,0-0.1,0-0.1c0-0.1-0.1-0.1-0.1-0.2c0-0.1,0-0.1-0.1-0.2     C8,50.5,8,50.4,8,50.2c0-0.1,0-0.1,0-0.2V27.9c0-1.1,0.9-2.1,2.1-2.1h36.1C47.3,25.8,48.3,26.7,48.3,27.9z"/></g><g><path class="st22" d="M28.6,51.4c0,0.2,0,0.5,0,0.7H10.4c-1.3,0-2.4-1.1-2.4-2.4V31.6c0.2,0,0.5,0,0.7,0     C19.7,31.5,28.6,40.4,28.6,51.4z"/><path class="st36" d="M22,51.4c0,0.2,0,0.5,0,0.7H10.4c-1.3,0-2.4-1.1-2.4-2.4V38.2c0.2,0,0.5,0,0.7,0C16,38.1,22,44.1,22,51.4z"/><path class="st3" d="M15.3,51.4c0,0.2,0,0.5,0,0.7h-4.9c-1.3,0-2.4-1.1-2.4-2.4v-4.9c0.2,0,0.5,0,0.7,0     C12.4,44.8,15.3,47.7,15.3,51.4z"/></g><g><g><path class="st8" d="M37.3,28.9c-1.2,0-2.2,1-2.2,2.2v3.6h1.1V33v-1.9c0-0.6,0.5-1.1,1.1-1.1s1.1,0.5,1.1,1.1s-0.5,1.1-1.1,1.1      c0,0,0,0,0,0v1.1c0,0,0,0,0,0c1.2,0,2.2-1,2.2-2.2S38.5,28.9,37.3,28.9z"/><g><path class="st3" d="M39.3,32.5h0.9c0.1,0,0.2,0,0.3,0c0.1,0,0.2,0.1,0.3,0.1s0.1,0.1,0.2,0.2c0,0.1,0.1,0.2,0.1,0.3       c0,0.2-0.1,0.4-0.2,0.5s-0.4,0.2-0.6,0.2h-0.5v0.8h-0.4V32.5z M39.7,33.5h0.5c0.1,0,0.1,0,0.2,0c0.1,0,0.1,0,0.1-0.1       c0,0,0.1-0.1,0.1-0.1s0-0.1,0-0.1c0-0.1,0-0.1,0-0.2c0,0-0.1-0.1-0.1-0.1s-0.1,0-0.1,0c-0.1,0-0.1,0-0.2,0h-0.5V33.5z"/><path class="st3" d="M43.2,34.1c0,0.2-0.1,0.4-0.2,0.5c-0.1,0.1-0.4,0.2-0.6,0.2h-0.9v-2.2h0.8c0.1,0,0.2,0,0.3,0       c0.1,0,0.2,0.1,0.3,0.1c0.1,0.1,0.1,0.1,0.2,0.2c0,0.1,0.1,0.2,0.1,0.3c0,0.1,0,0.2-0.1,0.2s-0.1,0.1-0.2,0.2       c0.1,0,0.1,0.1,0.1,0.1c0,0,0.1,0.1,0.1,0.1c0,0,0,0.1,0.1,0.1C43.2,34,43.2,34,43.2,34.1z M41.9,33.4h0.4c0.1,0,0.2,0,0.3-0.1       s0.1-0.1,0.1-0.2c0,0,0-0.1,0-0.1c0,0,0-0.1-0.1-0.1c0,0-0.1,0-0.1,0s-0.1,0-0.2,0h-0.4V33.4z M41.9,34.4h0.4       c0.3,0,0.4-0.1,0.4-0.3c0-0.1,0-0.1,0-0.1c0,0,0-0.1-0.1-0.1s-0.1,0-0.1-0.1c-0.1,0-0.1,0-0.2,0h-0.4V34.4z"/><path class="st3" d="M45.1,34.7h-1.4v-2.2H44v1.9h1V34.7z"/></g></g><g><rect class="st3" height="3.6" transform="matrix(0.7071 -0.7071 0.7071 0.7071 -18.1225 20.592)" width="3.6" x="14" y="30.4"/><path class="st19" d="M12.7,32.2l2-2c-0.4-0.2-0.8-0.3-1.2-0.3c-1.3,0-2.4,1.1-2.4,2.4c0,1.3,1.1,2.4,2.4,2.4      c0.4,0,0.9-0.1,1.2-0.3L12.7,32.2z"/><path class="st19" d="M18,29.8c-0.4,0-0.9,0.1-1.2,0.3l2,2l-2,2c0.4,0.2,0.8,0.3,1.2,0.3c1.3,0,2.4-1.1,2.4-2.4      C20.4,30.9,19.3,29.8,18,29.8z"/></g></g><g class="st15"><g><path class="st16" d="M13.2,42.8c0.1-0.1,0.3-0.1,0.4-0.1c0.4,0,0.6,0.3,0.6,0.5c0,0.2-0.1,0.4-0.3,0.5      c-0.2,0.1-0.4,0.2-0.6,0.2c-0.1,0-0.3-0.1-0.3-0.1c0,0-0.1-0.1-0.1-0.1c0,0,0-0.1,0.1-0.1c0,0,0.1,0,0.1,0      c0.1,0.1,0.2,0.2,0.4,0.2c0.3,0,0.4-0.2,0.4-0.5c0-0.3-0.2-0.5-0.5-0.5c-0.1,0-0.3,0-0.3,0.1l0.1-1h1l0,0l-0.1,0.2h-0.8      L13.2,42.8z"/><path class="st16" d="M15.2,42c0.4,0,0.7,0.4,0.7,0.8c0,0.6-0.3,1-0.8,1.2c-0.2,0.1-0.4,0.1-0.5,0.1l0-0.1      c0.5-0.1,0.8-0.4,0.9-0.9l-0.2,0.1c-0.1,0-0.1,0.1-0.2,0.1c-0.4,0-0.6-0.3-0.6-0.6C14.5,42.3,14.8,42,15.2,42L15.2,42z       M15.1,42.1c-0.2,0-0.3,0.3-0.3,0.5c0,0.3,0.2,0.5,0.4,0.5c0.1,0,0.2,0,0.3-0.1c0-0.1,0-0.2,0-0.2      C15.5,42.5,15.5,42.1,15.1,42.1L15.1,42.1z"/><path class="st16" d="M17.2,43.4v0.2c0,0.2,0,0.2,0.3,0.3V44h-0.9v-0.1c0.3,0,0.3-0.1,0.3-0.3v-0.2H16v-0.1      c0.3-0.5,0.7-0.9,1-1.4h0.1v1.3h0.3v0.2H17.2z M16.9,42.3L16.9,42.3c-0.2,0.3-0.4,0.6-0.6,0.9h0.6V42.3z"/><path class="st16" d="M18.3,42.8c0.1,0,0.1-0.1,0.2-0.1c0.4,0,0.6,0.3,0.6,0.6c0,0.4-0.3,0.7-0.7,0.7c-0.4,0-0.7-0.3-0.7-0.8      c0-0.7,0.5-1.1,0.9-1.2c0.1,0,0.3-0.1,0.4-0.1l0,0.1c-0.1,0-0.2,0.1-0.4,0.1c-0.2,0.1-0.5,0.3-0.6,0.7L18.3,42.8z M18.3,42.9      c-0.1,0-0.2,0-0.3,0.1c0,0.1,0,0.1,0,0.2c0,0.4,0.2,0.7,0.4,0.7c0.3,0,0.3-0.3,0.3-0.5C18.8,43.2,18.6,42.9,18.3,42.9L18.3,42.9      z"/><path class="st16" d="M21.9,42.8c0.3,0.1,0.5,0.3,0.5,0.5c0,0.5-0.7,0.8-0.9,0.8c-0.2,0-0.3-0.1-0.3-0.1c0,0-0.1-0.1-0.1-0.1      c0,0,0-0.1,0.1-0.1c0,0,0.1,0,0.1,0c0.1,0.1,0.2,0.2,0.4,0.2c0.2,0,0.4-0.2,0.4-0.5c0-0.3-0.2-0.4-0.4-0.4c-0.1,0-0.2,0-0.2,0      l0-0.1c0.3-0.1,0.5-0.2,0.5-0.4c0-0.2-0.1-0.3-0.3-0.3c-0.2,0-0.3,0.1-0.4,0.3l-0.1-0.1l0.1-0.2c0.1-0.1,0.2-0.2,0.4-0.2h0      c0.3,0,0.5,0.2,0.5,0.4c0,0.1,0,0.2-0.1,0.2C22.1,42.7,22,42.7,21.9,42.8L21.9,42.8z"/><path class="st16" d="M23.8,43.4v0.2c0,0.2,0,0.2,0.3,0.3V44h-0.9v-0.1c0.3,0,0.3-0.1,0.3-0.3v-0.2h-0.9v-0.1      c0.3-0.5,0.7-0.9,1-1.4h0.1v1.3h0.3v0.2H23.8z M23.5,42.3L23.5,42.3c-0.2,0.3-0.4,0.6-0.6,0.9h0.6V42.3z"/><path class="st16" d="M24.6,42.8c0.1-0.1,0.3-0.1,0.4-0.1c0.4,0,0.6,0.3,0.6,0.5c0,0.2-0.1,0.4-0.3,0.5      c-0.2,0.1-0.4,0.2-0.6,0.2c-0.1,0-0.3-0.1-0.3-0.1c0,0-0.1-0.1-0.1-0.1c0,0,0-0.1,0.1-0.1c0,0,0.1,0,0.1,0      c0.1,0.1,0.2,0.2,0.4,0.2c0.3,0,0.4-0.2,0.4-0.5c0-0.3-0.2-0.5-0.5-0.5c-0.1,0-0.3,0-0.3,0.1l0.1-1h1l0,0l-0.1,0.2h-0.8      L24.6,42.8z"/><path class="st16" d="M26.6,42c0.3,0,0.5,0.2,0.5,0.5c0,0.1,0,0.2-0.1,0.3c0,0-0.1,0.1-0.3,0.2c0.2,0.1,0.4,0.3,0.4,0.6      c0,0.4-0.4,0.6-0.7,0.6c-0.4,0-0.6-0.2-0.6-0.5c0-0.1,0.1-0.2,0.1-0.3c0.1-0.1,0.2-0.1,0.3-0.2c-0.2-0.1-0.4-0.3-0.4-0.5      C26,42.2,26.2,42,26.6,42L26.6,42z M26.6,43.9c0.2,0,0.3-0.1,0.3-0.4c0-0.2-0.2-0.4-0.5-0.5c-0.1,0.1-0.3,0.3-0.3,0.4      C26.2,43.8,26.4,43.9,26.6,43.9L26.6,43.9z M26.6,42.1c-0.2,0-0.3,0.2-0.3,0.3c0,0.2,0.2,0.3,0.4,0.5c0.1-0.1,0.2-0.2,0.2-0.4      C26.9,42.2,26.7,42.1,26.6,42.1L26.6,42.1z"/><path class="st16" d="M30,42c0.4,0,0.7,0.4,0.7,0.8c0,0.6-0.3,1-0.8,1.2c-0.2,0.1-0.4,0.1-0.5,0.1l0-0.1      c0.5-0.1,0.8-0.4,0.9-0.9l-0.2,0.1c-0.1,0-0.1,0.1-0.2,0.1c-0.4,0-0.6-0.3-0.6-0.6C29.3,42.3,29.5,42,30,42L30,42z M29.9,42.1      c-0.2,0-0.3,0.3-0.3,0.5c0,0.3,0.2,0.5,0.4,0.5c0.1,0,0.2,0,0.3-0.1c0-0.1,0-0.2,0-0.2C30.3,42.5,30.2,42.1,29.9,42.1L29.9,42.1      z"/><path class="st16" d="M31.5,42.8c0.1,0,0.1-0.1,0.2-0.1c0.4,0,0.6,0.3,0.6,0.6c0,0.4-0.3,0.7-0.7,0.7c-0.4,0-0.7-0.3-0.7-0.8      c0-0.7,0.5-1.1,0.9-1.2c0.1,0,0.3-0.1,0.4-0.1l0,0.1c-0.1,0-0.2,0.1-0.4,0.1c-0.2,0.1-0.5,0.3-0.6,0.7L31.5,42.8z M31.5,42.9      c-0.1,0-0.2,0-0.3,0.1c0,0.1,0,0.1,0,0.2c0,0.4,0.2,0.7,0.4,0.7c0.3,0,0.3-0.3,0.3-0.5C32,43.2,31.8,42.9,31.5,42.9L31.5,42.9z"/><path class="st16" d="M33.2,42c0.3,0,0.5,0.2,0.5,0.5c0,0.1,0,0.2-0.1,0.3c0,0-0.1,0.1-0.3,0.2c0.2,0.1,0.4,0.3,0.4,0.6      c0,0.4-0.4,0.6-0.7,0.6c-0.4,0-0.6-0.2-0.6-0.5c0-0.1,0.1-0.2,0.1-0.3c0.1-0.1,0.2-0.1,0.3-0.2c-0.2-0.1-0.4-0.3-0.4-0.5      C32.6,42.2,32.8,42,33.2,42L33.2,42z M33.2,43.9c0.2,0,0.3-0.1,0.3-0.4c0-0.2-0.2-0.4-0.5-0.5c-0.1,0.1-0.3,0.3-0.3,0.4      C32.8,43.8,33,43.9,33.2,43.9L33.2,43.9z M33.2,42.1c-0.2,0-0.3,0.2-0.3,0.3c0,0.2,0.2,0.3,0.4,0.5c0.1-0.1,0.2-0.2,0.2-0.4      C33.5,42.2,33.3,42.1,33.2,42.1L33.2,42.1z"/><path class="st16" d="M35.5,42c-0.3,0.7-0.6,1.3-0.9,2l-0.3,0l0,0c0.4-0.5,0.7-1.2,1-1.8h-0.7c-0.2,0-0.2,0-0.3,0.2h-0.1      c0-0.2,0-0.4,0.1-0.5L35.5,42L35.5,42z"/><path class="st16" d="M38.8,43.6c0,0.1-0.1,0.3-0.1,0.4h-1.3v-0.1c0.2-0.2,0.4-0.4,0.5-0.5c0.2-0.2,0.4-0.5,0.4-0.8      c0-0.3-0.1-0.4-0.4-0.4c-0.2,0-0.4,0.2-0.5,0.3l-0.1-0.1l0.2-0.3C37.8,42,38,42,38.1,42c0.3,0,0.6,0.2,0.6,0.6      c0,0.3-0.1,0.5-0.4,0.8l-0.5,0.5h0.6C38.6,43.8,38.6,43.7,38.8,43.6L38.8,43.6z"/><path class="st16" d="M39.3,44L39.3,44c0.3-0.1,0.3-0.1,0.3-0.4v-1.2c0-0.2,0-0.2-0.2-0.2l-0.2,0v-0.1c0.2,0,0.4-0.1,0.6-0.2      v1.7c0,0.2,0,0.3,0.3,0.3V44H39.3z"/><path class="st16" d="M41.8,43.4v0.2c0,0.2,0,0.2,0.3,0.3V44h-0.9v-0.1c0.3,0,0.3-0.1,0.3-0.3v-0.2h-0.9v-0.1      c0.3-0.5,0.7-0.9,1-1.4h0.1v1.3h0.3v0.2H41.8z M41.5,42.3L41.5,42.3c-0.2,0.3-0.4,0.6-0.6,0.9h0.6V42.3z"/><path class="st16" d="M42.6,42.8c0.1-0.1,0.3-0.1,0.4-0.1c0.4,0,0.6,0.3,0.6,0.5c0,0.2-0.1,0.4-0.3,0.5      c-0.2,0.1-0.4,0.2-0.6,0.2c-0.1,0-0.3-0.1-0.3-0.1c0,0-0.1-0.1-0.1-0.1c0,0,0-0.1,0.1-0.1c0,0,0.1,0,0.1,0      c0.1,0.1,0.2,0.2,0.4,0.2c0.3,0,0.4-0.2,0.4-0.5c0-0.3-0.2-0.5-0.5-0.5c-0.1,0-0.3,0-0.3,0.1l0.1-1h1l0,0l-0.1,0.2h-0.8      L42.6,42.8z"/></g><g><rect class="st16" height="1.7" width="6.9" x="12.2" y="46.9"/><rect class="st16" height="1.7" width="6.9" x="20.6" y="46.9"/></g></g><g><g><path class="st3" d="M13,42.7c0.1-0.1,0.3-0.1,0.4-0.1c0.4,0,0.6,0.3,0.6,0.5c0,0.2-0.1,0.4-0.3,0.5c-0.2,0.1-0.4,0.2-0.6,0.2      c-0.1,0-0.3-0.1-0.3-0.1c0,0-0.1-0.1-0.1-0.1c0,0,0-0.1,0.1-0.1c0,0,0.1,0,0.1,0c0.1,0.1,0.2,0.2,0.4,0.2c0.3,0,0.4-0.2,0.4-0.5      c0-0.3-0.2-0.5-0.5-0.5c-0.1,0-0.3,0-0.3,0.1l0.1-1h1l0,0l-0.1,0.2h-0.8L13,42.7z"/><path class="st3" d="M15,41.8c0.4,0,0.7,0.4,0.7,0.8c0,0.6-0.3,1-0.8,1.2c-0.2,0.1-0.4,0.1-0.5,0.1l0-0.1      c0.5-0.1,0.8-0.4,0.9-0.9l-0.2,0.1c-0.1,0-0.1,0.1-0.2,0.1c-0.4,0-0.6-0.3-0.6-0.6C14.4,42.2,14.6,41.8,15,41.8L15,41.8z       M15,41.9c-0.2,0-0.3,0.3-0.3,0.5c0,0.3,0.2,0.5,0.4,0.5c0.1,0,0.2,0,0.3-0.1c0-0.1,0-0.2,0-0.2C15.4,42.3,15.3,41.9,15,41.9      L15,41.9z"/><path class="st3" d="M17.1,43.3v0.2c0,0.2,0,0.2,0.3,0.3v0.1h-0.9v-0.1c0.3,0,0.3-0.1,0.3-0.3v-0.2h-0.9v-0.1      c0.3-0.5,0.7-0.9,1-1.4h0.1v1.3h0.3v0.2H17.1z M16.8,42.2L16.8,42.2c-0.2,0.3-0.4,0.6-0.6,0.9h0.6V42.2z"/><path class="st3" d="M18.1,42.7c0.1,0,0.1-0.1,0.2-0.1c0.4,0,0.6,0.3,0.6,0.6c0,0.4-0.3,0.7-0.7,0.7c-0.4,0-0.7-0.3-0.7-0.8      c0-0.7,0.5-1.1,0.9-1.2c0.1,0,0.3-0.1,0.4-0.1l0,0.1c-0.1,0-0.2,0.1-0.4,0.1c-0.2,0.1-0.5,0.3-0.6,0.7L18.1,42.7z M18.2,42.8      c-0.1,0-0.2,0-0.3,0.1c0,0.1,0,0.1,0,0.2c0,0.4,0.2,0.7,0.4,0.7c0.3,0,0.3-0.3,0.3-0.5C18.6,43,18.5,42.8,18.2,42.8L18.2,42.8z"/><path class="st3" d="M21.8,42.7c0.3,0.1,0.5,0.3,0.5,0.5c0,0.5-0.7,0.8-0.9,0.8c-0.2,0-0.3-0.1-0.3-0.1c0,0-0.1-0.1-0.1-0.1      c0,0,0-0.1,0.1-0.1c0,0,0.1,0,0.1,0c0.1,0.1,0.2,0.2,0.4,0.2c0.2,0,0.4-0.2,0.4-0.5c0-0.3-0.2-0.4-0.4-0.4c-0.1,0-0.2,0-0.2,0      l0-0.1c0.3-0.1,0.5-0.2,0.5-0.4c0-0.2-0.1-0.3-0.3-0.3c-0.2,0-0.3,0.1-0.4,0.3L21,42.2l0.1-0.2c0.1-0.1,0.2-0.2,0.4-0.2h0      c0.3,0,0.5,0.2,0.5,0.4c0,0.1,0,0.2-0.1,0.2C22,42.5,21.9,42.6,21.8,42.7L21.8,42.7z"/><path class="st3" d="M23.6,43.3v0.2c0,0.2,0,0.2,0.3,0.3v0.1H23v-0.1c0.3,0,0.3-0.1,0.3-0.3v-0.2h-0.9v-0.1      c0.3-0.5,0.7-0.9,1-1.4h0.1v1.3H24v0.2H23.6z M23.4,42.2L23.4,42.2c-0.2,0.3-0.4,0.6-0.6,0.9h0.6V42.2z"/><path class="st3" d="M24.5,42.7c0.1-0.1,0.3-0.1,0.4-0.1c0.4,0,0.6,0.3,0.6,0.5c0,0.2-0.1,0.4-0.3,0.5c-0.2,0.1-0.4,0.2-0.6,0.2      c-0.1,0-0.3-0.1-0.3-0.1c0,0-0.1-0.1-0.1-0.1c0,0,0-0.1,0.1-0.1c0,0,0.1,0,0.1,0c0.1,0.1,0.2,0.2,0.4,0.2c0.3,0,0.4-0.2,0.4-0.5      c0-0.3-0.2-0.5-0.5-0.5c-0.1,0-0.3,0-0.3,0.1l0.1-1h1l0,0l-0.1,0.2h-0.8L24.5,42.7z"/><path class="st3" d="M26.5,41.8c0.3,0,0.5,0.2,0.5,0.5c0,0.1,0,0.2-0.1,0.3c0,0-0.1,0.1-0.3,0.2c0.2,0.1,0.4,0.3,0.4,0.6      c0,0.4-0.4,0.6-0.7,0.6c-0.4,0-0.6-0.2-0.6-0.5c0-0.1,0.1-0.2,0.1-0.3c0.1-0.1,0.2-0.1,0.3-0.2c-0.2-0.1-0.4-0.3-0.4-0.5      C25.9,42.1,26.1,41.8,26.5,41.8L26.5,41.8z M26.5,43.8c0.2,0,0.3-0.1,0.3-0.4c0-0.2-0.2-0.4-0.5-0.5c-0.1,0.1-0.3,0.3-0.3,0.4      C26.1,43.6,26.3,43.8,26.5,43.8L26.5,43.8z M26.4,41.9c-0.2,0-0.3,0.2-0.3,0.3c0,0.2,0.2,0.3,0.4,0.5c0.1-0.1,0.2-0.2,0.2-0.4      C26.8,42,26.6,41.9,26.4,41.9L26.4,41.9z"/><path class="st3" d="M29.8,41.8c0.4,0,0.7,0.4,0.7,0.8c0,0.6-0.3,1-0.8,1.2c-0.2,0.1-0.4,0.1-0.5,0.1l0-0.1      c0.5-0.1,0.8-0.4,0.9-0.9l-0.2,0.1c-0.1,0-0.1,0.1-0.2,0.1c-0.4,0-0.6-0.3-0.6-0.6C29.1,42.2,29.4,41.8,29.8,41.8L29.8,41.8z       M29.8,41.9c-0.2,0-0.3,0.3-0.3,0.5c0,0.3,0.2,0.5,0.4,0.5c0.1,0,0.2,0,0.3-0.1c0-0.1,0-0.2,0-0.2      C30.2,42.3,30.1,41.9,29.8,41.9L29.8,41.9z"/><path class="st3" d="M31.3,42.7c0.1,0,0.1-0.1,0.2-0.1c0.4,0,0.6,0.3,0.6,0.6c0,0.4-0.3,0.7-0.7,0.7c-0.4,0-0.7-0.3-0.7-0.8      c0-0.7,0.5-1.1,0.9-1.2c0.1,0,0.3-0.1,0.4-0.1l0,0.1c-0.1,0-0.2,0.1-0.4,0.1c-0.2,0.1-0.5,0.3-0.6,0.7L31.3,42.7z M31.4,42.8      c-0.1,0-0.2,0-0.3,0.1c0,0.1,0,0.1,0,0.2c0,0.4,0.2,0.7,0.4,0.7c0.3,0,0.3-0.3,0.3-0.5C31.8,43,31.7,42.8,31.4,42.8L31.4,42.8z"/><path class="st3" d="M33.1,41.8c0.3,0,0.5,0.2,0.5,0.5c0,0.1,0,0.2-0.1,0.3c0,0-0.1,0.1-0.3,0.2c0.2,0.1,0.4,0.3,0.4,0.6      c0,0.4-0.4,0.6-0.7,0.6c-0.4,0-0.6-0.2-0.6-0.5c0-0.1,0.1-0.2,0.1-0.3c0.1-0.1,0.2-0.1,0.3-0.2c-0.2-0.1-0.4-0.3-0.4-0.5      C32.5,42.1,32.7,41.8,33.1,41.8L33.1,41.8z M33.1,43.8c0.2,0,0.3-0.1,0.3-0.4c0-0.2-0.2-0.4-0.5-0.5c-0.1,0.1-0.3,0.3-0.3,0.4      C32.7,43.6,32.9,43.8,33.1,43.8L33.1,43.8z M33,41.9c-0.2,0-0.3,0.2-0.3,0.3c0,0.2,0.2,0.3,0.4,0.5c0.1-0.1,0.2-0.2,0.2-0.4      C33.3,42,33.2,41.9,33,41.9L33,41.9z"/><path class="st3" d="M35.4,41.9c-0.3,0.7-0.6,1.3-0.9,2l-0.3,0l0,0c0.4-0.5,0.7-1.2,1-1.8h-0.7c-0.2,0-0.2,0-0.3,0.2H34      c0-0.2,0-0.4,0.1-0.5L35.4,41.9L35.4,41.9z"/><path class="st3" d="M38.7,43.4c0,0.1-0.1,0.3-0.1,0.4h-1.3v-0.1c0.2-0.2,0.4-0.4,0.5-0.5c0.2-0.2,0.4-0.5,0.4-0.8      c0-0.3-0.1-0.4-0.4-0.4c-0.2,0-0.4,0.2-0.5,0.3l-0.1-0.1l0.2-0.3c0.1-0.1,0.3-0.2,0.5-0.2c0.3,0,0.6,0.2,0.6,0.6      c0,0.3-0.1,0.5-0.4,0.8l-0.5,0.5h0.6C38.5,43.6,38.5,43.6,38.7,43.4L38.7,43.4z"/><path class="st3" d="M39.2,43.9L39.2,43.9c0.3-0.1,0.3-0.1,0.3-0.4v-1.2c0-0.2,0-0.2-0.2-0.2l-0.2,0V42c0.2,0,0.4-0.1,0.6-0.2      v1.7c0,0.2,0,0.3,0.3,0.3v0.1H39.2z"/><path class="st3" d="M41.6,43.3v0.2c0,0.2,0,0.2,0.3,0.3v0.1H41v-0.1c0.3,0,0.3-0.1,0.3-0.3v-0.2h-0.9v-0.1      c0.3-0.5,0.7-0.9,1-1.4h0.1v1.3H42v0.2H41.6z M41.3,42.2L41.3,42.2c-0.2,0.3-0.4,0.6-0.6,0.9h0.6V42.2z"/><path class="st3" d="M42.4,42.7c0.1-0.1,0.3-0.1,0.4-0.1c0.4,0,0.6,0.3,0.6,0.5c0,0.2-0.1,0.4-0.3,0.5c-0.2,0.1-0.4,0.2-0.6,0.2      c-0.1,0-0.3-0.1-0.3-0.1c0,0-0.1-0.1-0.1-0.1c0,0,0-0.1,0.1-0.1c0,0,0.1,0,0.1,0c0.1,0.1,0.2,0.2,0.4,0.2c0.3,0,0.4-0.2,0.4-0.5      c0-0.3-0.2-0.5-0.5-0.5c-0.1,0-0.3,0-0.3,0.1l0.1-1h1l0,0l-0.1,0.2h-0.8L42.4,42.7z"/></g><g><rect class="st17" height="1.7" width="6.9" x="12" y="46.8"/><rect class="st17" height="1.7" width="6.9" x="20.5" y="46.8"/></g></g><g class="st37"><polygon class="st3" points="29.8,25.8 8,47.6 8,43 25.2,25.8    "/><path class="st3" d="M42.4,25.8L16,52.1h-6c-0.1,0-0.2,0-0.3,0c0,0-0.1,0-0.1,0c0,0-0.1,0-0.1,0c0,0-0.1,0-0.1,0     c0,0-0.1,0-0.2-0.1c0,0-0.1,0-0.1-0.1c-0.1,0-0.2-0.1-0.3-0.2c0,0-0.1-0.1-0.1-0.1c0,0-0.1-0.1-0.1-0.1c0,0-0.1-0.1-0.1-0.1     c0-0.1-0.1-0.1-0.1-0.2c0,0-0.1-0.1-0.1-0.1c0,0,0-0.1,0-0.1c0-0.1-0.1-0.1-0.1-0.2c0-0.1,0-0.1-0.1-0.2C8,50.5,8,50.4,8,50.2     l15.9-15.9l8.6-8.6H42.4z"/></g><g class="st38"><polygon class="st3" points="43.7,11.9 29.8,25.8 25.2,25.8 39.1,11.9    "/><path class="st3" d="M55.5,12.6L42.4,25.8h-9.9l13.9-13.9h7.5c0.1,0,0.2,0,0.3,0c0,0,0.1,0,0.1,0c0.1,0,0.2,0,0.2,0.1     c0.1,0,0.1,0,0.2,0.1C55.1,12.2,55.3,12.4,55.5,12.6z"/></g></g></g></svg>