<?xml version="1.0" ?><svg id="Icons_Children" overflow="hidden" version="1.1" viewBox="0 0 96 96" xmlns="http://www.w3.org/2000/svg" xmlns:xlink="http://www.w3.org/1999/xlink"><circle cx="78.5" cy="28" r="6"/><path d=" M 90.9 52.1 L 87.9 43 L 86.9 40.1 C 86.8 39.8 86.7 39.6 86.5 39.3 C 84.9 37.6 82.8 36.5 80.4 36.1 C 79.7 36 79.1 36 78.5 36 C 77.9 36 77.3 36 76.8 36.1 C 74.4 36.5 72.3 37.6 70.7 39.3 C 70.5 39.5 70.3 39.8 70.3 40.1 L 69.3 43 L 68.6 45.1 L 67.8 43 L 66.8 40.1 C 66.7 39.8 66.6 39.6 66.4 39.3 C 64.8 37.6 62.7 36.5 60.3 36.1 C 59.7 36 59.1 36 58.5 36 C 57.9 36 57.3 36 56.8 36.1 C 54.4 36.5 52.3 37.6 50.7 39.3 C 50.5 39.5 50.3 39.8 50.3 40.1 L 49.3 43 L 48.6 45.1 L 47.8 43 L 46.8 40.1 C 46.7 39.8 46.6 39.6 46.4 39.3 C 44.8 37.6 42.7 36.5 40.3 36.1 C 39.7 36 39.1 36 38.5 36 C 37.9 36 37.3 36 36.8 36.1 C 34.4 36.5 32.3 37.6 30.7 39.3 C 30.5 39.5 30.3 39.8 30.3 40.1 L 29.3 43 L 28.6 45.1 L 27.8 43 L 26.8 40.1 C 26.7 39.8 26.6 39.6 26.4 39.3 C 24.8 37.6 22.7 36.5 20.3 36.1 C 19.6 36 19.1 36 18.5 36 C 17.9 36 17.3 36 16.8 36.1 C 14.4 36.5 12.3 37.6 10.7 39.3 C 10.5 39.5 10.3 39.8 10.3 40.1 L 9.3 43 L 6.3 52.1 C 5.9 53.3 6.4 54.7 7.6 55.3 C 8 55.5 8.3 55.5 8.7 55.5 C 9.7 55.5 10.7 54.8 11.1 53.8 L 12.7 48.9 L 12.7 53.9 L 9.7 61.9 L 12.7 61.9 L 12.7 70.9 L 17.7 70.9 L 17.7 61.9 L 19.7 61.9 L 19.7 70.9 L 24.7 70.9 L 24.7 61.9 L 27.7 61.9 L 24.7 53.7 L 24.7 48.8 L 26.3 53.7 C 26.6 54.7 27.6 55.4 28.7 55.4 C 28.7 55.4 28.7 55.4 28.7 55.4 C 28.7 55.4 28.7 55.4 28.7 55.4 L 28.7 55.4 L 28.7 55.4 C 29.7 55.4 30.7 54.7 31.1 53.7 L 32.7 48.8 L 32.7 71 L 37.7 71 L 37.7 56 L 39.7 56 L 39.7 71 L 44.7 71 L 44.7 48.9 L 46.3 53.8 C 46.7 54.9 47.6 55.5 48.7 55.5 L 48.7 55.5 C 48.7 55.5 48.7 55.5 48.7 55.5 C 49.7 55.5 50.7 54.8 51.1 53.8 L 52.7 48.9 L 52.7 53.8 L 49.7 62 L 52.7 62 L 52.7 71 L 57.7 71 L 57.7 62 L 59.7 62 L 59.7 71 L 64.7 71 L 64.7 62 L 67.7 62 L 64.7 54 L 64.7 49 L 66.3 53.9 C 66.6 54.9 67.6 55.6 68.7 55.6 C 68.7 55.6 68.7 55.6 68.7 55.6 C 68.7 55.6 68.7 55.6 68.7 55.6 C 68.7 55.6 68.7 55.6 68.7 55.6 C 68.7 55.6 68.7 55.6 68.7 55.6 C 69.7 55.6 70.7 54.9 71.1 53.9 L 72.7 49 L 72.7 71 L 77.7 71 L 77.7 56 L 79.7 56 L 79.7 71 L 84.7 71 L 84.7 48.9 L 86.3 53.8 C 86.6 54.8 87.6 55.5 88.7 55.5 C 89.1 55.5 89.4 55.4 89.8 55.3 C 90.8 54.7 91.3 53.3 90.9 52.1 Z"/><circle cx="18.5" cy="28" r="6"/><circle cx="58.5" cy="28" r="6"/><circle cx="38.5" cy="28" r="6"/></svg>