<?xml version="1.0" ?><svg id="Icons_DiaperChange" overflow="hidden" version="1.1" viewBox="0 0 96 96" xmlns="http://www.w3.org/2000/svg" xmlns:xlink="http://www.w3.org/1999/xlink"><g><circle cx="77" cy="57.5" r="7"/><circle cx="50" cy="20.5" r="8"/><path d=" M 43.2 49.3 L 50.1 52.4 L 46.3 58.1 C 46 58.6 45.7 59.2 45.6 59.9 C 45.3 62.2 46.9 64.2 49.1 64.5 C 49.3 64.5 64 64.5 64 64.5 C 66.2 64.5 68 62.7 68 60.5 L 67 49.3 C 66.9 48.2 65.9 47.4 64.8 47.5 C 63.7 47.6 62.9 48.6 63 49.7 L 63.7 56.5 L 54.3 56.5 L 54.9 51.7 C 55 50.9 54.6 50 53.8 49.7 L 44.8 45.7 C 43.8 45.3 42.6 45.7 42.2 46.7 C 41.7 47.7 42.2 48.9 43.2 49.3 Z"/><rect height="4" width="43" x="42" y="67.5"/><path d=" M 54 45.5 C 55.5 45.5 57 44.6 57.6 43.2 C 58.5 41.2 57.6 38.8 55.6 37.9 L 44 32.5 L 39.5 22.6 C 37.3 20.1 33.5 19.8 31 22 L 13 37.6 C 11.5 38.9 10.7 40.5 11 43 L 13 59.9 L 11 79.1 C 10.8 81.3 12.4 83.3 14.6 83.5 C 14.7 83.5 14.9 83.5 15 83.5 C 17 83.5 18.8 82 19 79.9 L 21 60.3 C 21 60 21 59.7 21 59.4 L 20.5 55 L 25 62.5 L 24 79.3 C 23.9 81.5 25.6 83.4 27.8 83.5 C 27.9 83.5 28 83.5 28 83.5 C 30.1 83.5 31.9 81.9 32 79.7 L 33 61.7 C 33 60.9 32.8 60.1 32.4 59.4 L 23.4 44.4 L 35.8 33.7 L 37.3 37.1 C 37.7 38 38.4 38.7 39.3 39.1 L 52.3 45.1 C 52.9 45.4 53.4 45.5 54 45.5 Z"/></g></svg>