<svg id="_006_DEVICES" data-name="006_DEVICES" xmlns="http://www.w3.org/2000/svg" width="24" height="24" viewBox="0 0 24 24"><title>006_054</title><path d="M19.24268,10H14V4.75781a1,1,0,0,1,2,0V8h3.24268a1,1,0,0,1,0,2Z" style="fill:#333"/><path d="M15.707,9.293A1,1,0,0,1,15,7.58594l5.293-5.293A.99989.99989,0,0,1,21.707,3.707L16.41406,9A.99676.99676,0,0,1,15.707,9.293Z" style="fill:#333"/><path d="M17.34424,22a5.79024,5.79024,0,0,1-2.47266-.64648.99989.99989,0,0,1,.85742-1.80664c1.17969.55957,1.98291.62988,2.51221.09961L20.084,17.80371,16.98877,14.709a.199.199,0,0,0-.14209-.05859l-2.84131.53223a.99973.99973,0,0,1-.89258-.27539l-4.02-4.01953a.99983.99983,0,0,1-.27588-.89258l.5293-2.80566A.2157.2157,0,0,0,9.292,7.0127L6.1958,3.916,4.35254,5.75977A1.17568,1.17568,0,0,0,4,6.65625c0,1.11133.94629,3.38281,5.45361,7.89063,1.14307,1.14258,2.2085,2.12109,3.16748,2.90918A.9995.9995,0,1,1,11.35254,19.001c-1.00928-.82812-2.124-1.85059-3.313-3.04C3.91895,11.84082,2,8.88379,2,6.65625A3.15532,3.15532,0,0,1,2.93848,4.3457L5.48877,1.79492a1.02932,1.02932,0,0,1,1.41406,0l3.80273,3.80273a2.18218,2.18218,0,0,1,.644,1.55469,2.22028,2.22028,0,0,1-.03711.4043l-.43213,2.29,3.27295,3.27246,2.28564-.43066a2.16671,2.16671,0,0,1,1.96387.60645l3.80225,3.80176a.99964.99964,0,0,1,0,1.41406l-2.55029,2.55078A3.155,3.155,0,0,1,17.34424,22Z" style="fill:#333"/></svg>