<svg id="_006_DEVICES" data-name="006_DEVICES" xmlns="http://www.w3.org/2000/svg" width="24" height="24" viewBox="0 0 24 24"><title>006_013</title><path d="M10,12H6a1,1,0,0,1,0-2h4a1,1,0,0,1,0,2Z" style="fill:#333"/><path d="M8,14a1,1,0,0,1-1-1V9A1,1,0,0,1,9,9v4A1,1,0,0,1,8,14Z" style="fill:#333"/><path d="M16,10a.99042.99042,0,0,1-1-1,1,1,0,0,1,1.71-.71A1.03393,1.03393,0,0,1,17,9a.99042.99042,0,0,1-1,1Z" style="fill:#333"/><path d="M14,12a.99042.99042,0,0,1-1-1,1,1,0,0,1,1.71-.71A1.03393,1.03393,0,0,1,15,11a.99042.99042,0,0,1-1,1Z" style="fill:#333"/><path d="M18,12a.99042.99042,0,0,1-1-1,1,1,0,1,1,2,0,.99042.99042,0,0,1-1,1Z" style="fill:#333"/><path d="M16,14a.99042.99042,0,0,1-1-1,1,1,0,1,1,2,0,.99042.99042,0,0,1-1,1Z" style="fill:#333"/><path d="M12,6a1,1,0,0,1-1-1V3a1,1,0,0,1,2,0V5A1,1,0,0,1,12,6Z" style="fill:#333"/><path d="M18.5,21a3.50529,3.50529,0,0,1-3.46436-3H8.96436A3.50014,3.50014,0,0,1,2,17.5V9A5.00589,5.00589,0,0,1,7,4h5a1,1,0,0,1,0,2H7A3.00328,3.00328,0,0,0,4,9v8.5a1.5,1.5,0,0,0,3,0V17a1,1,0,0,1,1-1h8a1,1,0,0,1,1,1v.5a1.5,1.5,0,0,0,3,0V9a3.00328,3.00328,0,0,0-3-3H16a1,1,0,0,1,0-2h1a5.00589,5.00589,0,0,1,5,5v8.5A3.50425,3.50425,0,0,1,18.5,21Z" style="fill:#333"/></svg>