<svg id="_006_DEVICES" data-name="006_DEVICES" xmlns="http://www.w3.org/2000/svg" width="24" height="24" viewBox="0 0 24 24"><title>006_004</title><path d="M12,22a1,1,0,0,1-1-1V18H5a3.00328,3.00328,0,0,1-3-3V5A3.00328,3.00328,0,0,1,5,2H19a3.00328,3.00328,0,0,1,3,3V15a3.00328,3.00328,0,0,1-3,3H16a1,1,0,0,1,0-2h3a1.0013,1.0013,0,0,0,1-1V5a1.0013,1.0013,0,0,0-1-1H5A1.0013,1.0013,0,0,0,4,5V15a1.0013,1.0013,0,0,0,1,1h7a1,1,0,0,1,1,1v4A1,1,0,0,1,12,22Z" style="fill:#333"/><path d="M15,22H9a1,1,0,0,1,0-2h6a1,1,0,0,1,0,2Z" style="fill:#333"/><path d="M12,15a.99042.99042,0,0,1-1-1,1,1,0,1,1,2,0,.99042.99042,0,0,1-1,1Z" style="fill:#333"/></svg>