<svg id="_006_DEVICES" data-name="006_DEVICES" xmlns="http://www.w3.org/2000/svg" width="24" height="24" viewBox="0 0 24 24"><title>006_042</title><path d="M21,15a1,1,0,0,1-1-1V12A8,8,0,0,0,4,12v2a1,1,0,0,1-2,0V12a10,10,0,0,1,20,0v2A1,1,0,0,1,21,15Z" style="fill:#333"/><path d="M5,21a3.00328,3.00328,0,0,1-3-3V13.14258a1,1,0,0,1,2,0V18a1,1,0,0,0,2,0V15a.996.996,0,0,0-.373-.77881,1,1,0,0,1,1.25586-1.55664A2.98745,2.98745,0,0,1,8,15v3A3.00328,3.00328,0,0,1,5,21Z" style="fill:#333"/><path d="M19,21a3.00328,3.00328,0,0,1-3-3V15a3.00328,3.00328,0,0,1,3-3h2a1,1,0,0,1,1,1v5A3.00328,3.00328,0,0,1,19,21Zm0-7a1.0013,1.0013,0,0,0-1,1v3a1,1,0,0,0,2,0V14Z" style="fill:#333"/></svg>