<svg id="_006_DEVICES" data-name="006_DEVICES" xmlns="http://www.w3.org/2000/svg" width="24" height="24" viewBox="0 0 24 24"><title>006_064</title><path d="M21,21H3a.99974.99974,0,0,1-1-1V11a1,1,0,0,1,2,0v8H20V12H19a1,1,0,0,1,0-2h2a.99974.99974,0,0,1,1,1v9A.99974.99974,0,0,1,21,21Z" style="fill:#333"/><path d="M2.99951,12a1.00021,1.00021,0,0,1-.26709-1.96387L20,5.24023V3.4209L3.26758,8.06934A1.00032,1.00032,0,0,1,2.73242,6.1416l18-5A1.00082,1.00082,0,0,1,22,2.10547V6a1,1,0,0,1-.73242.96387l-18,5A1.01782,1.01782,0,0,1,2.99951,12Z" style="fill:#333"/><path d="M17,8a.99974.99974,0,0,1-1-1V3.5498a1,1,0,0,1,2,0V7A.99974.99974,0,0,1,17,8Z" style="fill:#333"/><path d="M13,9a.99974.99974,0,0,1-1-1V4.5498a1,1,0,0,1,2,0V8A.99974.99974,0,0,1,13,9Z" style="fill:#333"/><path d="M9,10A.99974.99974,0,0,1,8,9V5.5498a1,1,0,0,1,2,0V9A.99974.99974,0,0,1,9,10Z" style="fill:#333"/><path d="M5,11a.99974.99974,0,0,1-1-1V6.5498a1,1,0,0,1,2,0V10A.99974.99974,0,0,1,5,11Z" style="fill:#333"/></svg>