<svg id="_006_DEVICES" data-name="006_DEVICES" xmlns="http://www.w3.org/2000/svg" width="24" height="24" viewBox="0 0 24 24"><title>006_034</title><path d="M12,15a3.999,3.999,0,0,1-4-4,4.17461,4.17461,0,0,1,.10986-.93994,1.003,1.003,0,1,1,1.9502.46973A1.83378,1.83378,0,0,0,10,11a2,2,0,1,0,2-2,1,1,0,0,1,0-2,4,4,0,0,1,0,8Z" style="fill:#333"/><path d="M19,22H5a2.002,2.002,0,0,1-2-2V19a1.00013,1.00013,0,0,1,.293-.707l1.6748-1.6748A8.92991,8.92991,0,0,1,3,10.99951a9.41768,9.41768,0,0,1,.16748-1.76074,8.96113,8.96113,0,0,1,7.0376-7.064A9.36016,9.36016,0,0,1,12,2a9.00037,9.00037,0,0,1,6.96,14.70654,1.00019,1.00019,0,0,1-1.5459-1.26953A6.99993,6.99993,0,0,0,12,4a7.40291,7.40291,0,0,0-1.41309.1377A6.94548,6.94548,0,0,0,5.13232,9.61328,7.41186,7.41186,0,0,0,5,10.99951a6.95263,6.95263,0,0,0,2.05029,4.9502.99964.99964,0,0,1,0,1.41406L5,19.41406V20H19v-.69678a1.00016,1.00016,0,0,1,1.63379-1.0835l.07324.07324A1.00013,1.00013,0,0,1,21,19v1A2.002,2.002,0,0,1,19,22Z" style="fill:#333"/></svg>