<svg id="_006_DEVICES" data-name="006_DEVICES" xmlns="http://www.w3.org/2000/svg" width="24" height="24" viewBox="0 0 24 24"><title>006_062</title><path d="M8.54346,16.0498a.99781.99781,0,0,1-.71045-.2959c-3.98-4.01562-5.8335-6.90625-5.8335-9.09766A3.153,3.153,0,0,1,2.939,4.34473l2.5498-2.5498a1.02932,1.02932,0,0,1,1.41406,0l3.80273,3.80273a2.18218,2.18218,0,0,1,.644,1.55469,2.22028,2.22028,0,0,1-.03711.4043l-.43213,2.29,1.46582,1.46582a.99989.99989,0,0,1-1.41406,1.41406L9.09277,10.8877a.99983.99983,0,0,1-.27588-.89258l.52979-2.80566A.21736.21736,0,0,0,9.292,7.0127L6.1958,3.916,4.35254,5.75977a1.17428,1.17428,0,0,0-.353.89648c0,1.08984.91162,3.30859,5.25439,7.68945a1.00025,1.00025,0,0,1-.71045,1.7041Z" style="fill:#333"/><path d="M17.34424,22c-1.72852,0-3.9375-1.19141-6.75293-3.64258a.99984.99984,0,1,1,1.31348-1.50781C14.896,19.45313,16.51367,20,17.34424,20a1.17293,1.17293,0,0,0,.897-.35352L20.084,17.80371,16.98877,14.709a.199.199,0,0,0-.14209-.05859L14.97021,15a.9997.9997,0,1,1-.37012-1.96484l1.83936-.34668a2.16269,2.16269,0,0,1,1.96338.60645l3.80225,3.80176a.99964.99964,0,0,1,0,1.41406l-2.55029,2.55078A3.155,3.155,0,0,1,17.34424,22Z" style="fill:#333"/><path d="M4,21a1,1,0,0,1-.707-1.707l16-16A.99989.99989,0,0,1,20.707,4.707l-16,16A.99676.99676,0,0,1,4,21Z" style="fill:#333"/></svg>