<svg id="_006_DEVICES" data-name="006_DEVICES" xmlns="http://www.w3.org/2000/svg" width="24" height="24" viewBox="0 0 24 24"><title>006_052</title><path d="M20.79785,17H17.457a2.19277,2.19277,0,0,1-1.83936-.99316L14.30225,14H9.69775L8.38281,16.00586A2.19282,2.19282,0,0,1,6.543,17H3.20215A2.20484,2.20484,0,0,1,1,14.79785v-2.4043c0-2.07422,1.39111-3.39844,4.25244-4.04883a1.00035,1.00035,0,0,1,.44238,1.95117C3,10.90723,3,11.874,3,12.39355v2.4043A.20255.20255,0,0,0,3.20215,15H6.543a.20108.20108,0,0,0,.16748-.09082l1.61084-2.457A1.00038,1.00038,0,0,1,9.15771,12h5.68457a1.00038,1.00038,0,0,1,.83643.45215l1.61133,2.458A.201.201,0,0,0,17.457,15h3.34082A.20255.20255,0,0,0,21,14.79785v-2.4043c0-.71289,0-2.60742-9-2.60742-1.10107,0-2.11035.02832-2.999.084a1.01141,1.01141,0,0,1-1.06055-.93555A.99991.99991,0,0,1,8.876,7.874c.93018-.05859,1.981-.08789,3.124-.08789,7.813,0,11,1.335,11,4.60742v2.4043A2.20484,2.20484,0,0,1,20.79785,17Z" style="fill:#333"/></svg>