<svg id="_006_DEVICES" data-name="006_DEVICES" xmlns="http://www.w3.org/2000/svg" width="24" height="24" viewBox="0 0 24 24"><title>006_035</title><path d="M10.19336,14.396a.99518.99518,0,0,1-.60156-.20215,4.00008,4.00008,0,1,1,5.606-5.59717,1.0001,1.0001,0,0,1-1.59863,1.20215,2.00014,2.00014,0,1,0-2.80225,2.79932,1,1,0,0,1-.60352,1.79785Z" style="fill:#333"/><path d="M19,22H8a1,1,0,0,1,0-2H19v-.58594l-2.05029-2.05029a.99964.99964,0,0,1,0-1.41406A6.954,6.954,0,0,0,19,11a7.06776,7.06776,0,0,0-.1377-1.38867,1,1,0,1,1,1.96094-.39355A9.07469,9.07469,0,0,1,21,11a8.93056,8.93056,0,0,1-1.96777,5.61816L20.707,18.293A1.00013,1.00013,0,0,1,21,19v1A2.002,2.002,0,0,1,19,22Z" style="fill:#333"/><path d="M6.34326,17.65674a.99676.99676,0,0,1-.707-.293A8.93813,8.93813,0,0,1,3,10.99951a9.41768,9.41768,0,0,1,.16748-1.76074,8.96113,8.96113,0,0,1,7.0376-7.064,9.09613,9.09613,0,0,1,8.65674,3.001A1.00008,1.00008,0,0,1,17.3374,6.4707a7.0855,7.0855,0,0,0-6.75049-2.333A6.94548,6.94548,0,0,0,5.13232,9.61328,7.41186,7.41186,0,0,0,5,10.99951a6.95263,6.95263,0,0,0,2.05029,4.9502,1,1,0,0,1-.707,1.707Z" style="fill:#333"/><path d="M4,21a1,1,0,0,1-.707-1.707l16-16A.99989.99989,0,0,1,20.707,4.707l-16,16A.99676.99676,0,0,1,4,21Z" style="fill:#333"/></svg>