<svg id="_006_DEVICES" data-name="006_DEVICES" xmlns="http://www.w3.org/2000/svg" width="24" height="24" viewBox="0 0 24 24"><title>006_017</title><path d="M16,19H8a3.00328,3.00328,0,0,1-3-3V8A3.00328,3.00328,0,0,1,8,5h8a3.00328,3.00328,0,0,1,3,3,1,1,0,0,1-2,0,1.001,1.001,0,0,0-1-1H8A1.001,1.001,0,0,0,7,8v8a1.001,1.001,0,0,0,1,1h8a1.001,1.001,0,0,0,1-1V12a1,1,0,0,1,2,0v4A3.00328,3.00328,0,0,1,16,19Z" style="fill:#333"/><path d="M6,17H3a1,1,0,0,1,0-2H6a1,1,0,0,1,0,2Z" style="fill:#333"/><path d="M12,7a.99974.99974,0,0,1-1-1V3a1,1,0,0,1,2,0V6A.99974.99974,0,0,1,12,7Z" style="fill:#333"/><path d="M16,7a.99974.99974,0,0,1-1-1V3a1,1,0,0,1,2,0V6A.99974.99974,0,0,1,16,7Z" style="fill:#333"/><path d="M8,22a.99974.99974,0,0,1-1-1V18a1,1,0,0,1,2,0v3A.99974.99974,0,0,1,8,22Z" style="fill:#333"/><path d="M12,22a.99974.99974,0,0,1-1-1V18a1,1,0,0,1,2,0v3A.99974.99974,0,0,1,12,22Z" style="fill:#333"/><path d="M16,22a.99974.99974,0,0,1-1-1V18a1,1,0,0,1,2,0v3A.99974.99974,0,0,1,16,22Z" style="fill:#333"/><path d="M8,7A.99974.99974,0,0,1,7,6V3A1,1,0,0,1,9,3V6A.99974.99974,0,0,1,8,7Z" style="fill:#333"/><path d="M6,13H3a1,1,0,0,1,0-2H6a1,1,0,0,1,0,2Z" style="fill:#333"/><path d="M6,9H3A1,1,0,0,1,3,7H6A1,1,0,0,1,6,9Z" style="fill:#333"/><path d="M21,17H18a1,1,0,0,1,0-2h3a1,1,0,0,1,0,2Z" style="fill:#333"/><path d="M21,13H18a1,1,0,0,1,0-2h3a1,1,0,0,1,0,2Z" style="fill:#333"/><path d="M21,9H18a1,1,0,0,1,0-2h3a1,1,0,0,1,0,2Z" style="fill:#333"/><path d="M14,13H10a1,1,0,0,1,0-2h4a1,1,0,0,1,0,2Z" style="fill:#333"/></svg>