<svg id="_006_DEVICES" data-name="006_DEVICES" xmlns="http://www.w3.org/2000/svg" width="24" height="24" viewBox="0 0 24 24"><title>006_020</title><path d="M17,22H14.85742a1,1,0,0,1,0-2H17a1.001,1.001,0,0,0,1-1V5a1.001,1.001,0,0,0-1-1H7A1.001,1.001,0,0,0,6,5V19a1.001,1.001,0,0,0,1,1h3.85742a1,1,0,0,1,0,2H7a3.00328,3.00328,0,0,1-3-3V5A3.00328,3.00328,0,0,1,7,2H17a3.00328,3.00328,0,0,1,3,3V19A3.00328,3.00328,0,0,1,17,22Z" style="fill:#333"/><path d="M14,7a.99974.99974,0,0,1-1-1V3a1,1,0,0,1,2,0V6A.99974.99974,0,0,1,14,7Z" style="fill:#333"/><path d="M10,7A.99974.99974,0,0,1,9,6V3a1,1,0,0,1,2,0V6A.99974.99974,0,0,1,10,7Z" style="fill:#333"/></svg>