<svg id="_006_DEVICES" data-name="006_DEVICES" xmlns="http://www.w3.org/2000/svg" width="24" height="24" viewBox="0 0 24 24"><title>006_058</title><path d="M21,9a.99676.99676,0,0,1-.707-.293l-5-5A.99989.99989,0,0,1,16.707,2.293l5,5A1,1,0,0,1,21,9Z" style="fill:#333"/><path d="M16,9a1,1,0,0,1-.707-1.707l5-5A.99989.99989,0,0,1,21.707,3.707l-5,5A.99676.99676,0,0,1,16,9Z" style="fill:#333"/><path d="M17.34473,22a5.78811,5.78811,0,0,1-2.47363-.64746,1.00031,1.00031,0,1,1,.85938-1.80664c1.1748.55957,1.98145.63184,2.50977.10156L20.084,17.80371,16.98828,14.709a.1973.1973,0,0,0-.14062-.05859l-2.84277.53223a1.003,1.003,0,0,1-.89258-.27539L9.09277,10.8877a.99954.99954,0,0,1-.27539-.89258l.5293-2.80566A.21377.21377,0,0,0,9.292,7.01367L6.19629,3.916,4.35254,5.75977a1.169,1.169,0,0,0-.35352.89551c0,1.11133.94629,3.38281,5.4541,7.8916,1.14551,1.14551,2.21094,2.124,3.168,2.9082A1.00057,1.00057,0,0,1,11.35156,19.002c-1.00684-.82617-2.12109-1.84961-3.3125-3.041C3.918,11.83887,1.999,8.88281,1.999,6.65527a3.14586,3.14586,0,0,1,.94141-2.31152L5.48926,1.79492a.99928.99928,0,0,1,.707-.293h0a.99928.99928,0,0,1,.707.293l3.80176,3.80273a2.1793,2.1793,0,0,1,.64453,1.55469,2.2645,2.2645,0,0,1-.03711.4043l-.43164,2.29,3.27246,3.27246,2.28613-.43066a2.17851,2.17851,0,0,1,1.96484.60742l3.80078,3.80078a.99964.99964,0,0,1,0,1.41406L19.6543,21.06152A3.1512,3.1512,0,0,1,17.34473,22Z" style="fill:#333"/></svg>