<svg id="_006_DEVICES" data-name="006_DEVICES" xmlns="http://www.w3.org/2000/svg" width="24" height="24" viewBox="0 0 24 24"><title>006_033</title><path d="M20,22H4a1,1,0,0,1-1-1V18a1,1,0,0,1,2,0v2H19V5a1.0013,1.0013,0,0,0-1-1H6A1.0013,1.0013,0,0,0,5,5v9a1,1,0,0,1-2,0V5A3.00328,3.00328,0,0,1,6,2H18a3.00328,3.00328,0,0,1,3,3V21A1,1,0,0,1,20,22Z" style="fill:#333"/><path d="M20,10H7A1,1,0,0,1,7,8H20a1,1,0,0,1,0,2Z" style="fill:#333"/><path d="M8,22a1,1,0,0,1-1-1V14a2.002,2.002,0,0,1,2-2h6a2.002,2.002,0,0,1,2,2v4a1,1,0,0,1-2,0V14H9v7A1,1,0,0,1,8,22Z" style="fill:#333"/><rect x="11" y="13" width="2" height="3" style="fill:#333"/><path d="M16,6a1,1,0,0,1-1-1V3a1,1,0,0,1,2,0V5A1,1,0,0,1,16,6Z" style="fill:#333"/></svg>