<svg id="_006_DEVICES" data-name="006_DEVICES" xmlns="http://www.w3.org/2000/svg" width="24" height="24" viewBox="0 0 24 24"><title>006_011</title><path d="M18,23H6a3.00328,3.00328,0,0,1-3-3V10a1,1,0,0,1,2,0V20a1.0013,1.0013,0,0,0,1,1H18a1.0013,1.0013,0,0,0,1-1V10a1,1,0,0,1,2,0V20A3.00328,3.00328,0,0,1,18,23Z" style="fill:#333"/><path d="M20,6a1,1,0,0,1-1-1V4a1.0013,1.0013,0,0,0-1-1H6A1.0013,1.0013,0,0,0,5,4V5A1,1,0,0,1,3,5V4A3.00328,3.00328,0,0,1,6,1H18a3.00328,3.00328,0,0,1,3,3V5A1,1,0,0,1,20,6Z" style="fill:#333"/><path d="M8,15a.99042.99042,0,0,1-1-1,1,1,0,0,1,1.71-.71A1.05235,1.05235,0,0,1,9,14a.99042.99042,0,0,1-1,1Z" style="fill:#333"/><path d="M12,15a.99042.99042,0,0,1-1-1,1,1,0,1,1,2,0,.99042.99042,0,0,1-1,1Z" style="fill:#333"/><path d="M8,19a.99042.99042,0,0,1-1-1,1.03173,1.03173,0,0,1,.29-.71,1.04667,1.04667,0,0,1,1.41992,0A1.03393,1.03393,0,0,1,9,18a.99042.99042,0,0,1-1,1Z" style="fill:#333"/><path d="M12,19a.99042.99042,0,0,1-1-1,1.03173,1.03173,0,0,1,.29-.71,1.04667,1.04667,0,0,1,1.41992,0A1.03393,1.03393,0,0,1,13,18a.99042.99042,0,0,1-1,1Z" style="fill:#333"/><path d="M16,15a.99042.99042,0,0,1-1-1,1,1,0,1,1,2,0,.99042.99042,0,0,1-1,1Z" style="fill:#333"/><path d="M8,11a1.00645,1.00645,0,0,1-.71-.29A.98783.98783,0,0,1,7,10a1,1,0,0,1,1.71-.71A1.05235,1.05235,0,0,1,9,10a.99042.99042,0,0,1-1,1Z" style="fill:#333"/><path d="M16,11H12a1,1,0,0,1,0-2h4a1,1,0,0,1,0,2Z" style="fill:#333"/><path d="M16,19a.99042.99042,0,0,1-1-1,1.03173,1.03173,0,0,1,.29-.71,1.04667,1.04667,0,0,1,1.41992,0A1.03393,1.03393,0,0,1,17,18a.99042.99042,0,0,1-1,1Z" style="fill:#333"/></svg>