<svg id="_006_DEVICES" data-name="006_DEVICES" xmlns="http://www.w3.org/2000/svg" width="24" height="24" viewBox="0 0 24 24"><title>006_047</title><path d="M13.001,22H11a7.00818,7.00818,0,0,1-7-7V9a7.00818,7.00818,0,0,1,7-7h2a7.00818,7.00818,0,0,1,7,7v2.64307a1,1,0,0,1-2,0V9a5.00589,5.00589,0,0,0-5-5H11A5.00589,5.00589,0,0,0,6,9v6a5.00589,5.00589,0,0,0,5,5h2.001a4.98649,4.98649,0,0,0,4.97168-4.46387.99977.99977,0,1,1,1.98828.21191A6.9818,6.9818,0,0,1,13.001,22Z" style="fill:#333"/><path d="M12,10a.99974.99974,0,0,1-1-1V3a1,1,0,0,1,2,0V9A.99974.99974,0,0,1,12,10Z" style="fill:#333"/><path d="M14,10H10a1,1,0,0,1,0-2h4a1,1,0,0,1,0,2Z" style="fill:#333"/></svg>