<svg id="_006_DEVICES" data-name="006_DEVICES" xmlns="http://www.w3.org/2000/svg" width="24" height="24" viewBox="0 0 24 24"><title>006_008</title><path d="M16,23H8a3.00328,3.00328,0,0,1-3-3V8A3.00328,3.00328,0,0,1,8,5h8a3.00328,3.00328,0,0,1,3,3v5.57178a1,1,0,0,1-2,0V8a1.001,1.001,0,0,0-1-1H8A1.001,1.001,0,0,0,7,8V20a1.001,1.001,0,0,0,1,1h8a1.001,1.001,0,0,0,1-1V17.57178a1,1,0,1,1,2,0V20A3.00328,3.00328,0,0,1,16,23Z" style="fill:#333"/><path d="M14,11H10a1,1,0,0,1,0-2h4a1,1,0,0,1,0,2Z" style="fill:#333"/><path d="M8,7A.99974.99974,0,0,1,7,6V2A1,1,0,0,1,9,2V6A.99974.99974,0,0,1,8,7Z" style="fill:#333"/></svg>