<svg id="_006_DEVICES" data-name="006_DEVICES" xmlns="http://www.w3.org/2000/svg" width="24" height="24" viewBox="0 0 24 24"><title>006_043</title><path d="M21,15a1,1,0,0,1-1-1V12A8,8,0,0,0,4,12v2a1,1,0,0,1-2,0V12a10,10,0,0,1,20,0v2A1,1,0,0,1,21,15Z" style="fill:#333"/><path d="M5,21a3.00328,3.00328,0,0,1-3-3V13a1,1,0,0,1,1-1H5a3.00328,3.00328,0,0,1,3,3v3A3.00328,3.00328,0,0,1,5,21ZM4,14v4a1,1,0,0,0,2,0V15a1.0013,1.0013,0,0,0-1-1Z" style="fill:#333"/><path d="M19,21a1,1,0,0,1,0-2,1.0013,1.0013,0,0,0,1-1V14H19a1.0013,1.0013,0,0,0-1,1v1.71436a1,1,0,0,1-2,0V15a3.00328,3.00328,0,0,1,3-3h2a1,1,0,0,1,1,1v5A3.00328,3.00328,0,0,1,19,21Z" style="fill:#333"/><path d="M19,21H13a1,1,0,0,1,0-2h6a1,1,0,0,1,0,2Z" style="fill:#333"/><circle cx="12.5" cy="19.5" r="1.5" style="fill:#333"/></svg>