<svg id="_006_DEVICES" data-name="006_DEVICES" xmlns="http://www.w3.org/2000/svg" width="24" height="24" viewBox="0 0 24 24"><title>006_015</title><path d="M13,16H9a1,1,0,0,1,0-2h4a1,1,0,0,1,0,2Z" style="fill:#333"/><path d="M11,18a1,1,0,0,1-1-1V13a1,1,0,0,1,2,0v4A1,1,0,0,1,11,18Z" style="fill:#333"/><path d="M15,10H9A1,1,0,0,1,9,8h6a1,1,0,0,1,0,2Z" style="fill:#333"/><path d="M17,22H7a3.00328,3.00328,0,0,1-3-3V5A3.00328,3.00328,0,0,1,7,2H17a3.00328,3.00328,0,0,1,3,3V6a1,1,0,0,1-2,0V5a1.0013,1.0013,0,0,0-1-1H7A1.0013,1.0013,0,0,0,6,5V19a1.0013,1.0013,0,0,0,1,1H17a1.0013,1.0013,0,0,0,1-1V9a1,1,0,0,1,2,0V19A3.00328,3.00328,0,0,1,17,22Z" style="fill:#333"/><path d="M15,18a.99042.99042,0,0,1-1-1,1,1,0,1,1,2,0,.99042.99042,0,0,1-1,1Z" style="fill:#333"/><path d="M15,14a.99042.99042,0,0,1-1-1,1,1,0,1,1,2,0,.99042.99042,0,0,1-1,1Z" style="fill:#333"/></svg>