<svg id="_006_DEVICES" data-name="006_DEVICES" xmlns="http://www.w3.org/2000/svg" width="24" height="24" viewBox="0 0 24 24"><title>006_037</title><path d="M4,21a1,1,0,0,1-.707-1.707l16-16A.99989.99989,0,0,1,20.707,4.707l-16,16A.99676.99676,0,0,1,4,21Z" style="fill:#333"/><path d="M8.417,16.4873a.99785.99785,0,0,1-.7168-.30225A5.96585,5.96585,0,0,1,6,12V8A6.00058,6.00058,0,0,1,17.85254,6.67334a1.00013,1.00013,0,0,1-1.95117.44043A4.00043,4.00043,0,0,0,8,8v4a3.975,3.975,0,0,0,1.13379,2.78955A1.0005,1.0005,0,0,1,8.417,16.4873Z" style="fill:#333"/><path d="M12,18a1,1,0,0,1,0-2,4.00427,4.00427,0,0,0,4-4,1,1,0,0,1,2,0A6.00656,6.00656,0,0,1,12,18Z" style="fill:#333"/><path d="M12,22a9.95648,9.95648,0,0,1-3.70605-.70947,1.00011,1.00011,0,0,1,.74219-1.85742A8.005,8.005,0,0,0,20,12V10a1,1,0,0,1,2,0v2A10.01146,10.01146,0,0,1,12,22Z" style="fill:#333"/><path d="M5.56055,19.28711a.99825.99825,0,0,1-.71582-.30127A9.948,9.948,0,0,1,2,12V10a1,1,0,0,1,2,0v2a7.95576,7.95576,0,0,0,2.27637,5.58838,1.0005,1.0005,0,0,1-.71582,1.69873Z" style="fill:#333"/><path d="M12,22a.99974.99974,0,0,1-1-1V17a1,1,0,0,1,2,0v4A.99974.99974,0,0,1,12,22Z" style="fill:#333"/></svg>