<svg id="_006_DEVICES" data-name="006_DEVICES" xmlns="http://www.w3.org/2000/svg" width="24" height="24" viewBox="0 0 24 24"><title>006_029</title><path d="M17,22H14a.99928.99928,0,0,1-.707-.293l-.707-.707H11.41406l-.707.707A.99928.99928,0,0,1,10,22H7a3.00328,3.00328,0,0,1-3-3V14a1.00013,1.00013,0,0,1,.293-.707l.707-.707V10.41406l-.707-.707A1.00013,1.00013,0,0,1,4,9V5A3.00328,3.00328,0,0,1,7,2H17a3.00328,3.00328,0,0,1,3,3V8a1,1,0,0,1-2,0V5a1.001,1.001,0,0,0-1-1H7A1.001,1.001,0,0,0,6,5V8.58594l.707.707A1.00013,1.00013,0,0,1,7,10v3a1.00013,1.00013,0,0,1-.293.707l-.707.707V19a1.001,1.001,0,0,0,1,1H9.58594l.707-.707A.99928.99928,0,0,1,11,19h2a.99928.99928,0,0,1,.707.293l.707.707H17a1.001,1.001,0,0,0,1-1V13a1,1,0,0,1,0-2h1a.99974.99974,0,0,1,1,1v7A3.00328,3.00328,0,0,1,17,22Z" style="fill:#333"/><rect x="9" y="3" width="6" height="3.05" style="fill:#333"/></svg>