<svg id="_006_DEVICES" data-name="006_DEVICES" xmlns="http://www.w3.org/2000/svg" width="24" height="24" viewBox="0 0 24 24"><title>006_024</title><path d="M8,14a.99042.99042,0,0,1-1-1,1,1,0,0,1,1.71-.71A1.05235,1.05235,0,0,1,9,13a.99042.99042,0,0,1-1,1Z" style="fill:#333"/><path d="M12,14a.99042.99042,0,0,1-1-1,1,1,0,1,1,2,0,.99042.99042,0,0,1-1,1Z" style="fill:#333"/><path d="M8,18a.99042.99042,0,0,1-1-1,1,1,0,0,1,1.71-.71A1.05235,1.05235,0,0,1,9,17a.99042.99042,0,0,1-1,1Z" style="fill:#333"/><path d="M12,18a.99042.99042,0,0,1-1-1,1,1,0,1,1,2,0,.99042.99042,0,0,1-1,1Z" style="fill:#333"/><path d="M16,14a.99042.99042,0,0,1-1-1,1,1,0,0,1,1.71-.71A1.03393,1.03393,0,0,1,17,13a.99042.99042,0,0,1-1,1Z" style="fill:#333"/><path d="M16,18a.99042.99042,0,0,1-1-1,1,1,0,0,1,1.71-.71A1.03393,1.03393,0,0,1,17,17a.99042.99042,0,0,1-1,1Z" style="fill:#333"/><path d="M20,11H16.61816A1.98939,1.98939,0,0,1,14.8291,9.89453L14.38184,9H9.61768l-.44678.894A1.989,1.989,0,0,1,7.38184,11H4A2.002,2.002,0,0,1,2,9V7C2,3.86963,6.41016,3.36719,7.85938,3.20166A1.00009,1.00009,0,1,1,8.08594,5.189C6.85742,5.3291,4,5.78564,4,7V9H7.38184L8.105,7.55322A.99942.99942,0,0,1,8.99951,7H15a.99985.99985,0,0,1,.89453.55273L16.61816,9H20V7c0-.46924-.57666-2-8-2a1.0004,1.0004,0,1,1,.04-1.999h.01221C16.30371,3.001,22,3.418,22,7V9A2.002,2.002,0,0,1,20,11Z" style="fill:#333"/><path d="M17,21.94189H7A3.94665,3.94665,0,0,1,3.05811,18V13a1,1,0,0,1,2,0v5A1.944,1.944,0,0,0,7,19.94189H17A1.944,1.944,0,0,0,18.94189,18V13a1,1,0,0,1,2,0v5A3.94665,3.94665,0,0,1,17,21.94189Z" style="fill:#333"/></svg>