<svg id="_006_DEVICES" data-name="006_DEVICES" xmlns="http://www.w3.org/2000/svg" width="24" height="24" viewBox="0 0 24 24"><title>006_041</title><path d="M5.3125,22.15137a3.31767,3.31767,0,0,1-2.34619-5.66309L8.0166,11.437l.64795-3.23828A.99889.99889,0,0,1,8.938,7.688L10.43848,6.1875a.99964.99964,0,0,1,1.41406,0L17.959,12.29395a.99964.99964,0,0,1,0,1.41406L16.4585,15.2085a.99889.99889,0,0,1-.51074.27344l-3.23877.64795-.36816.36768a.99989.99989,0,0,1-1.41406-1.41406l.582-.582a.99889.99889,0,0,1,.51074-.27344l3.23877-.64795.57959-.5791L11.14551,8.30859l-.5791.57959-.64795,3.23828a.99889.99889,0,0,1-.27344.51074L4.38086,17.90186a1.31851,1.31851,0,0,0,0,1.86377,1.3511,1.3511,0,0,0,1.86377,0l1.85352-1.85352a.99989.99989,0,0,1,1.41406,1.41406L7.65869,21.17969A3.29678,3.29678,0,0,1,5.3125,22.15137Z" style="fill:#333"/><path d="M17.76563,7.23438a1,1,0,0,1-.707-1.707l1.5-1.5a.99989.99989,0,0,1,1.41406,1.41406l-1.5,1.5A.99676.99676,0,0,1,17.76563,7.23438Z" style="fill:#333"/><path d="M21,11H18.87891a1,1,0,0,1,0-2H21a1,1,0,0,1,0,2Z" style="fill:#333"/><path d="M14,6.12109a1,1,0,0,1-1-1V3a1,1,0,0,1,2,0V5.12109A1,1,0,0,1,14,6.12109Z" style="fill:#333"/></svg>