<svg id="_006_DEVICES" data-name="006_DEVICES" xmlns="http://www.w3.org/2000/svg" width="24" height="24" viewBox="0 0 24 24"><title>006_063</title><path d="M6.01025,17a4.99569,4.99569,0,1,1,4.83545-3.76367,1.00023,1.00023,0,0,1-1.93848-.49414A3.00027,3.00027,0,1,0,6,15c.06445-.001.13916-.00293.21289-.00781a.99969.99969,0,1,1,.14453,1.99414C6.24268,16.99512,6.127,16.999,6.01025,17Z" style="fill:#333"/><path d="M18.28418,16.98926a.99975.99975,0,0,1-.06885-1.99707A2.99705,2.99705,0,1,0,15.106,12.793a1,1,0,1,1-1.92871.5293A5.00059,5.00059,0,1,1,18.355,16.98633C18.33105,16.98828,18.30762,16.98926,18.28418,16.98926Z" style="fill:#333"/><path d="M18,17H6a1,1,0,0,1,0-2H18a1,1,0,0,1,0,2Z" style="fill:#333"/></svg>