<svg id="_006_DEVICES" data-name="006_DEVICES" xmlns="http://www.w3.org/2000/svg" width="24" height="24" viewBox="0 0 24 24"><title>006_056</title><path d="M20.79785,21H17.457a2.19716,2.19716,0,0,1-1.83887-.99219L14.30273,18H9.69727L8.38379,20.00586A2.20022,2.20022,0,0,1,6.543,21H3.20215A2.20516,2.20516,0,0,1,1,18.79785v-2.4043c0-2.07422,1.39063-3.39941,4.252-4.04883a1.00045,1.00045,0,0,1,.44336,1.95117C3,14.90723,3,15.874,3,16.39355v2.4043A.20255.20255,0,0,0,3.20215,19H6.543a.20283.20283,0,0,0,.16895-.0918l1.6084-2.45605A1.00186,1.00186,0,0,1,9.15723,16h5.68555a1.00186,1.00186,0,0,1,.83691.45215l1.61035,2.458A.19976.19976,0,0,0,17.457,19h3.34082A.20255.20255,0,0,0,21,18.79785v-2.4043c0-.71289,0-2.60742-9-2.60742-1.10547.001-2.11523.0293-2.999.085a1.01237,1.01237,0,0,1-1.06055-.93555A.99991.99991,0,0,1,8.876,11.875c.9248-.05762,1.97559-.08789,3.123-.08887,7.81445,0,11.001,1.335,11.001,4.60742v2.4043A2.20516,2.20516,0,0,1,20.79785,21Z" style="fill:#333"/><path d="M6,9.24219a.99942.99942,0,0,1-1-1V3h5.24219a1,1,0,0,1,0,2H7V8.24219A.99942.99942,0,0,1,6,9.24219Z" style="fill:#333"/><path d="M12,11a.99676.99676,0,0,1-.707-.293l-5-5A.99989.99989,0,0,1,7.707,4.293L12,8.58594l5.293-5.293A.99989.99989,0,0,1,18.707,4.707l-6,6A.99676.99676,0,0,1,12,11Z" style="fill:#333"/></svg>