<svg id="_006_DEVICES" data-name="006_DEVICES" xmlns="http://www.w3.org/2000/svg" width="24" height="24" viewBox="0 0 24 24"><title>006_022</title><path d="M17,17a.99042.99042,0,0,1-1-1,1,1,0,1,1,2,0,.99042.99042,0,0,1-1,1Z" style="fill:#333"/><path d="M17,13a.99042.99042,0,0,1-1-1,1,1,0,1,1,2,0,.99042.99042,0,0,1-1,1Z" style="fill:#333"/><path d="M19,20H12a1,1,0,0,1,0-2h7a1.0013,1.0013,0,0,0,1-1V7a1.0013,1.0013,0,0,0-1-1H16a1,1,0,0,1,0-2h3a3.00328,3.00328,0,0,1,3,3V17A3.00328,3.00328,0,0,1,19,20Z" style="fill:#333"/><path d="M6,20H5a3.00328,3.00328,0,0,1-3-3V7A3.00328,3.00328,0,0,1,5,4H7A1,1,0,0,1,7,6H5A1.0013,1.0013,0,0,0,4,7V17a1.0013,1.0013,0,0,0,1,1H6a1,1,0,0,1,0,2Z" style="fill:#333"/><path d="M10,22H9a3.00328,3.00328,0,0,1-3-3V5A3.00328,3.00328,0,0,1,9,2h1a3.00328,3.00328,0,0,1,3,3V8.57178a1,1,0,0,1-2,0V5a1.0013,1.0013,0,0,0-1-1H9A1.0013,1.0013,0,0,0,8,5V19a1.0013,1.0013,0,0,0,1,1h1a1.0013,1.0013,0,0,0,1-1V12.57178a1,1,0,0,1,2,0V19A3.00328,3.00328,0,0,1,10,22Z" style="fill:#333"/><path d="M20,10H16a1,1,0,0,1,0-2h4a1,1,0,0,1,0,2Z" style="fill:#333"/></svg>