<svg id="_006_DEVICES" data-name="006_DEVICES" xmlns="http://www.w3.org/2000/svg" width="24" height="24" viewBox="0 0 24 24"><title>006_044</title><path d="M6,12a.99042.99042,0,0,1-1-1,1,1,0,0,1,1.71-.71A1.05235,1.05235,0,0,1,7,11a.99042.99042,0,0,1-1,1Z" style="fill:#333"/><path d="M6,16a.99042.99042,0,0,1-1-1,1,1,0,0,1,1.71-.71A1.05235,1.05235,0,0,1,7,15a.99042.99042,0,0,1-1,1Z" style="fill:#333"/><path d="M10,12a.99042.99042,0,0,1-1-1,1,1,0,0,1,1.71-.71A1.05235,1.05235,0,0,1,11,11a.99042.99042,0,0,1-1,1Z" style="fill:#333"/><path d="M14,12a.99042.99042,0,0,1-1-1,1,1,0,1,1,2,0,.99042.99042,0,0,1-1,1Z" style="fill:#333"/><path d="M14,16H10a1,1,0,0,1,0-2h4a1,1,0,0,1,0,2Z" style="fill:#333"/><path d="M18,12a.99042.99042,0,0,1-1-1,1,1,0,1,1,2,0,.99042.99042,0,0,1-1,1Z" style="fill:#333"/><path d="M18,16a.99042.99042,0,0,1-1-1,1,1,0,1,1,2,0,.99042.99042,0,0,1-1,1Z" style="fill:#333"/><path d="M21,20H16a1,1,0,0,1,0-2h5V8H3V18h9a1,1,0,0,1,0,2H3a2.002,2.002,0,0,1-2-2V8A2.002,2.002,0,0,1,3,6H21a2.002,2.002,0,0,1,2,2V18A2.002,2.002,0,0,1,21,20Z" style="fill:#333"/></svg>