<svg id="_006_DEVICES" data-name="006_DEVICES" xmlns="http://www.w3.org/2000/svg" width="24" height="24" viewBox="0 0 24 24"><title>006_019</title><path d="M17,22H14.85742a1,1,0,0,1,0-2H17a1.001,1.001,0,0,0,1-1V5a1.001,1.001,0,0,0-1-1H7A1.001,1.001,0,0,0,6,5V19a1.001,1.001,0,0,0,1,1h3.85742a1,1,0,0,1,0,2H7a3.00328,3.00328,0,0,1-3-3V5A3.00328,3.00328,0,0,1,7,2H17a3.00328,3.00328,0,0,1,3,3V19A3.00328,3.00328,0,0,1,17,22Z" style="fill:#333"/><path d="M12,17.99951c-.07227,0-.14355-.00146-.21582-.00537A4.08891,4.08891,0,0,1,8,13.83008V13a1.00013,1.00013,0,0,1,.293-.707l1.293-1.29346L8.293,9.707A1.00013,1.00013,0,0,1,8,9V7A.99974.99974,0,0,1,9,6h6a.99974.99974,0,0,1,1,1V8.0459a1,1,0,1,1-2,0V8H10v.58594l1.707,1.70654a.99964.99964,0,0,1,0,1.41406L10,13.41406v.416a2.11881,2.11881,0,0,0,1.8916,2.167L12,15.99951A2.00219,2.00219,0,0,0,14,14V12.0459a1,1,0,0,1,2,0V14A4.00385,4.00385,0,0,1,12,17.99951Z" style="fill:#333"/></svg>