<svg id="_006_DEVICES" data-name="006_DEVICES" xmlns="http://www.w3.org/2000/svg" width="24" height="24" viewBox="0 0 24 24"><title>006_023</title><path d="M12,14a.99042.99042,0,0,1-1-1,1,1,0,1,1,2,0,.99042.99042,0,0,1-1,1Z" style="fill:#333"/><path d="M14,18H10a3.00328,3.00328,0,0,1-3-3V13.543a1,1,0,0,1,2,0V15a1.0013,1.0013,0,0,0,1,1h4a1.0013,1.0013,0,0,0,1-1V5a1.0013,1.0013,0,0,0-1-1H10A1.0013,1.0013,0,0,0,9,5V9.543a1,1,0,0,1-2,0V5a3.00328,3.00328,0,0,1,3-3h4a3.00328,3.00328,0,0,1,3,3V15A3.00328,3.00328,0,0,1,14,18Z" style="fill:#333"/><path d="M19,22H5a3.00328,3.00328,0,0,1-3-3V12A3.00328,3.00328,0,0,1,5,9H8a1,1,0,0,1,0,2H5a1.0013,1.0013,0,0,0-1,1v7a1.0013,1.0013,0,0,0,1,1H19a1.0013,1.0013,0,0,0,1-1V12a1.0013,1.0013,0,0,0-1-1,1,1,0,0,1,0-2,3.00328,3.00328,0,0,1,3,3v7A3.00328,3.00328,0,0,1,19,22Z" style="fill:#333"/></svg>