<svg id="_006_DEVICES" data-name="006_DEVICES" xmlns="http://www.w3.org/2000/svg" width="24" height="24" viewBox="0 0 24 24"><title>006_049</title><path d="M13.82031,15.84473a.99991.99991,0,0,1-.86523-1.5l4.77637-8.27295a1.00016,1.00016,0,0,1,1.73242,1L14.6875,15.34473A1.0001,1.0001,0,0,1,13.82031,15.84473Z" style="fill:#333"/><path d="M15.3916,12.87207a1.0001,1.0001,0,0,1-.86719-.5l-4.793-8.30029a1.00016,1.00016,0,0,1,1.73242-1l4.793,8.30029a.99991.99991,0,0,1-.86523,1.5Z" style="fill:#333"/><path d="M12.00879,22.00146a10.00569,10.00569,0,1,1,5.793-1.85645.99974.99974,0,1,1-1.1582-1.62988,7.95837,7.95837,0,1,0-3.251,1.36572.99992.99992,0,1,1,.3457,1.96973A10.03381,10.03381,0,0,1,12.00879,22.00146Z" style="fill:#333"/><path d="M13.55273,10H7A1,1,0,0,1,7,8h6.55273a1,1,0,0,1,0,2Z" style="fill:#333"/><path d="M5.40137,18.42822a.99991.99991,0,0,1-.86523-1.5l4.792-8.30029a1.00016,1.00016,0,0,1,1.73242,1l-4.792,8.30029A1.0001,1.0001,0,0,1,5.40137,18.42822Z" style="fill:#333"/><path d="M13.40332,21.42822a1.0001,1.0001,0,0,1-.86719-.5L7.75977,12.65527a1.00016,1.00016,0,1,1,1.73242-1l4.77637,8.27295a.99991.99991,0,0,1-.86523,1.5Z" style="fill:#333"/><path d="M20,16H10.416a1,1,0,0,1,0-2H20a1,1,0,0,1,0,2Z" style="fill:#333"/></svg>