<svg id="_006_DEVICES" data-name="006_DEVICES" xmlns="http://www.w3.org/2000/svg" width="24" height="24" viewBox="0 0 24 24"><title>006_030</title><path d="M17,22H7a3.00328,3.00328,0,0,1-3-3V5A3.00328,3.00328,0,0,1,7,2h9a.99928.99928,0,0,1,.707.293l3,3A1.00013,1.00013,0,0,1,20,6v6a1,1,0,0,1-2,0V6.41406L15.58594,4H7A1.001,1.001,0,0,0,6,5V19a1.001,1.001,0,0,0,1,1H17a1.001,1.001,0,0,0,1-1V16a1,1,0,0,1,2,0v3A3.00328,3.00328,0,0,1,17,22Z" style="fill:#333"/><rect x="9" y="10" width="2" height="6" rx="1" ry="1" style="fill:#333"/><rect x="13" y="10" width="2" height="6" rx="1" ry="1" style="fill:#333"/><rect x="10" y="12" width="4" height="2" style="fill:#333"/></svg>