<svg id="_006_DEVICES" data-name="006_DEVICES" xmlns="http://www.w3.org/2000/svg" width="24" height="24" viewBox="0 0 24 24"><title>006_038</title><path d="M15,16.04a7.002,7.002,0,0,1-6.0625-10.502A.9998.9998,0,1,1,10.668,6.54,5.00121,5.00121,0,1,0,15,4.04h-.00293a4.95762,4.95762,0,0,0-1.85547.356,1,1,0,0,1-.74414-1.85645A6.95181,6.95181,0,0,1,14.99609,2.04H15.001a7,7,0,0,1-.001,14Z" style="fill:#333"/><path d="M6.624,20.57031a3.1527,3.1527,0,0,1-2.499-5.07812L8.207,10.187A1.00037,1.00037,0,0,1,9.793,11.40674L5.71,16.7124a1.1495,1.1495,0,0,0,.09766,1.51953,1.17508,1.17508,0,0,0,1.52051.09863l2.66113-2.04932a1.00028,1.00028,0,0,1,1.2207,1.585L8.54785,19.91553A3.13273,3.13273,0,0,1,6.624,20.57031Z" style="fill:#333"/><path d="M3,22a1,1,0,0,1-.707-1.707l2-2A.99989.99989,0,0,1,5.707,19.707l-2,2A.99676.99676,0,0,1,3,22Z" style="fill:#333"/></svg>