<svg id="_006_DEVICES" data-name="006_DEVICES" xmlns="http://www.w3.org/2000/svg" width="24" height="24" viewBox="0 0 24 24"><title>006_040</title><path d="M6,19H4a3.01022,3.01022,0,0,1-2.99316-2.78613A.99962.99962,0,1,1,3.001,16.07129,1.00519,1.00519,0,0,0,4,17H6a1,1,0,0,1,0,2ZM2,13.14258a.99974.99974,0,0,1-1-1V8A3.00328,3.00328,0,0,1,4,5H14a3.00328,3.00328,0,0,1,3,3,1,1,0,0,1-2,0,1.001,1.001,0,0,0-1-1H4A1.001,1.001,0,0,0,3,8v4.14258A.99974.99974,0,0,1,2,13.14258Z" style="fill:#333"/><path d="M14,19H11a1,1,0,0,1,0-2h3a1.001,1.001,0,0,0,1-1V14a1,1,0,0,1,2,0v2A3.00328,3.00328,0,0,1,14,19Z" style="fill:#333"/><path d="M22,18a1.00294,1.00294,0,0,1-.44727-.10547l-6-3a1.00012,1.00012,0,0,1,.89453-1.78906L21,15.38184V8.61816l-.55273.27637a1.00012,1.00012,0,1,1-.89453-1.78906l2-1A1.00038,1.00038,0,0,1,23,7V17a1.00062,1.00062,0,0,1-1,1Z" style="fill:#333"/><path d="M4,21a1,1,0,0,1-.707-1.707l16-16A.99989.99989,0,0,1,20.707,4.707l-16,16A.99676.99676,0,0,1,4,21Z" style="fill:#333"/></svg>