<svg id="_006_DEVICES" data-name="006_DEVICES" xmlns="http://www.w3.org/2000/svg" width="24" height="24" viewBox="0 0 24 24"><title>006_039</title><path d="M14,19H9a1,1,0,0,1,0-2h5a1.001,1.001,0,0,0,1-1V8a1.001,1.001,0,0,0-1-1H4A1.001,1.001,0,0,0,3,8v8a1.001,1.001,0,0,0,1,1H5a1,1,0,0,1,0,2H4a3.00328,3.00328,0,0,1-3-3V8A3.00328,3.00328,0,0,1,4,5H14a3.00328,3.00328,0,0,1,3,3v8A3.00328,3.00328,0,0,1,14,19Z" style="fill:#333"/><path d="M22,18a1.00294,1.00294,0,0,1-.44727-.10547l-6-3a1.00012,1.00012,0,0,1,.89453-1.78906L21,15.38184V8.61816l-4.55273,2.27637a1.00012,1.00012,0,1,1-.89453-1.78906l6-3A1.00038,1.00038,0,0,1,23,7V17a1.00062,1.00062,0,0,1-1,1Z" style="fill:#333"/></svg>