<svg id="_006_DEVICES" data-name="006_DEVICES" xmlns="http://www.w3.org/2000/svg" width="24" height="24" viewBox="0 0 24 24"><title>006_025</title><path d="M12,22a9.99467,9.99467,0,1,1,8.81592-5.27588.99989.99989,0,1,1-1.76172-.94629,8.0032,8.0032,0,1,0-2.311,2.66553.99974.99974,0,0,1,1.18652,1.60938A9.92086,9.92086,0,0,1,12,22Z" style="fill:#333"/><path d="M12,15.5A3.5,3.5,0,1,1,15.5,12,3.50425,3.50425,0,0,1,12,15.5Zm0-5A1.5,1.5,0,1,0,13.5,12,1.50164,1.50164,0,0,0,12,10.5Z" style="fill:#333"/><path d="M13.76758,11.23242a1,1,0,0,1-.707-1.707L17.65674,4.9292A.99989.99989,0,0,1,19.0708,6.34326l-4.59619,4.59619A.99676.99676,0,0,1,13.76758,11.23242Z" style="fill:#333"/><path d="M8,17a1,1,0,0,1-.707-1.707l2.23242-2.23242a.99989.99989,0,0,1,1.41406,1.41406L8.707,16.707A.99676.99676,0,0,1,8,17Z" style="fill:#333"/></svg>