<svg id="_006_DEVICES" data-name="006_DEVICES" xmlns="http://www.w3.org/2000/svg" width="24" height="24" viewBox="0 0 24 24"><title>006_012</title><path d="M19,21H5a3.00328,3.00328,0,0,1-3-3V8A3.00328,3.00328,0,0,1,5,5H7.58594L9.293,3.293A1.00013,1.00013,0,0,1,10,3h4a1.00013,1.00013,0,0,1,.707.293L16.41406,5H19a3.00328,3.00328,0,0,1,3,3v3.14258a1,1,0,0,1-2,0V8a1.0013,1.0013,0,0,0-1-1H16a1.00013,1.00013,0,0,1-.707-.293L13.58594,5H10.41406L8.707,6.707A1.00013,1.00013,0,0,1,8,7H5A1.0013,1.0013,0,0,0,4,8V18a1.0013,1.0013,0,0,0,1,1H19a1.0013,1.0013,0,0,0,1-1V15.14258a1,1,0,1,1,2,0V18A3.00328,3.00328,0,0,1,19,21Z" style="fill:#333"/><path d="M12,17.5a4.52309,4.52309,0,0,1-4.31885-3.23242.99984.99984,0,0,1,1.91895-.5625A2.50059,2.50059,0,1,0,12,10.5h-.001a2.49121,2.49121,0,0,0-2.103,1.14844.99984.99984,0,1,1-1.68164-1.082A4.48274,4.48274,0,0,1,11.99854,8.5h.002A4.5,4.5,0,0,1,12,17.5Z" style="fill:#333"/></svg>