<svg id="_006_DEVICES" data-name="006_DEVICES" xmlns="http://www.w3.org/2000/svg" width="24" height="24" viewBox="0 0 24 24"><title>006_014</title><path d="M15,20H9a7.00786,7.00786,0,0,1-7-7V11A7.00786,7.00786,0,0,1,9,4h2.64307a1,1,0,0,1,0,2H9a5.00589,5.00589,0,0,0-5,5v2a5.00589,5.00589,0,0,0,5,5h6a5.00589,5.00589,0,0,0,5-5V11a4.98524,4.98524,0,0,0-4.46387-4.97119,1.00094,1.00094,0,0,1-.88867-1.10059A1.01128,1.01128,0,0,1,15.748,4.03955,6.98224,6.98224,0,0,1,22,11v2A7.00786,7.00786,0,0,1,15,20Z" style="fill:#333"/><path d="M10,13H6a1,1,0,0,1,0-2h4a1,1,0,0,1,0,2Z" style="fill:#333"/><path d="M8,15a1,1,0,0,1-1-1V10a1,1,0,0,1,2,0v4A1,1,0,0,1,8,15Z" style="fill:#333"/><path d="M16,11a.99042.99042,0,0,1-1-1,1,1,0,0,1,1.71-.71A1.03393,1.03393,0,0,1,17,10a.99042.99042,0,0,1-1,1Z" style="fill:#333"/><path d="M14,13a.99042.99042,0,0,1-1-1,1.03173,1.03173,0,0,1,.29-.71,1.04669,1.04669,0,0,1,1.41992,0A1.03393,1.03393,0,0,1,15,12a.99042.99042,0,0,1-1,1Z" style="fill:#333"/><path d="M18,13a.99042.99042,0,0,1-1-1,1,1,0,1,1,2,0,.99042.99042,0,0,1-1,1Z" style="fill:#333"/><path d="M16,15a.99042.99042,0,0,1-1-1,1,1,0,0,1,1.71-.71A1.03393,1.03393,0,0,1,17,14a.99042.99042,0,0,1-1,1Z" style="fill:#333"/><path d="M12,6a1,1,0,0,1-1-1V3a1,1,0,0,1,2,0V5A1,1,0,0,1,12,6Z" style="fill:#333"/></svg>