<svg id="_006_DEVICES" data-name="006_DEVICES" xmlns="http://www.w3.org/2000/svg" width="24" height="24" viewBox="0 0 24 24"><title>006_002</title><path d="M16,23H8a3.00328,3.00328,0,0,1-3-3V4A3.00328,3.00328,0,0,1,8,1h8a3.00328,3.00328,0,0,1,3,3V15.57178a1,1,0,0,1-2,0V4a1.0013,1.0013,0,0,0-1-1H8A1.0013,1.0013,0,0,0,7,4V20a1.0013,1.0013,0,0,0,1,1h8a1.0013,1.0013,0,0,0,1-1v-.42822a1,1,0,1,1,2,0V20A3.00328,3.00328,0,0,1,16,23Z" style="fill:#333"/><path d="M12,20a.99042.99042,0,0,1-1-1,1,1,0,1,1,2,0,.99042.99042,0,0,1-1,1Z" style="fill:#333"/></svg>