<svg id="_006_DEVICES" data-name="006_DEVICES" xmlns="http://www.w3.org/2000/svg" width="24" height="24" viewBox="0 0 24 24"><title>006_021</title><path d="M12,19a.99042.99042,0,0,1-1-1,1,1,0,1,1,2,0,.99042.99042,0,0,1-1,1Z" style="fill:#333"/><path d="M16.001,23H8a3.00328,3.00328,0,0,1-3-3V10A3.00328,3.00328,0,0,1,8,7h8a3.00328,3.00328,0,0,1,3,3v7.57178a1,1,0,0,1-2,0V10a1.0013,1.0013,0,0,0-1-1H8a1.0013,1.0013,0,0,0-1,1V20a1.0013,1.0013,0,0,0,1,1h8a.996.996,0,0,0,.707-.293.99989.99989,0,0,1,1.41406,1.41406A2.98165,2.98165,0,0,1,16.001,23Z" style="fill:#333"/><path d="M9,9A1,1,0,0,1,8,8V2A1,1,0,0,1,9,1h6a1,1,0,0,1,1,1V5a1,1,0,0,1-2,0V3H10V8A1,1,0,0,1,9,9Z" style="fill:#333"/></svg>