<svg id="_006_DEVICES" data-name="006_DEVICES" xmlns="http://www.w3.org/2000/svg" width="24" height="24" viewBox="0 0 24 24"><title>006_065</title><path d="M15,22H9a5.00589,5.00589,0,0,1-5-5V15a.99986.99986,0,0,1,1.394-.91895l3.69238,1.582A.99987.99987,0,0,1,8.29834,17.501L6,16.5166V17a3.00328,3.00328,0,0,0,3,3h6a3.00328,3.00328,0,0,0,3-3v-.4834l-5.23682,2.24414a.99987.99987,0,0,1-.78809-1.83789l6.63086-2.8418A.99986.99986,0,0,1,20,15v2A5.00589,5.00589,0,0,1,15,22Z" style="fill:#333"/><path d="M12,14A8.00917,8.00917,0,0,1,4,6a7.92027,7.92027,0,0,1,.77979-3.42969,1.0011,1.0011,0,0,1,1.57373-.3125l2.61182,2.3623L11.293,2.293a.99964.99964,0,0,1,1.41406,0l2.772,2.77148a.99989.99989,0,0,1-1.41406,1.41406L12,4.41406,9.707,6.707a1.00274,1.00274,0,0,1-1.37793.03516L6.13232,4.75488A5.90582,5.90582,0,0,0,6,6,6,6,0,0,0,18,6a5.88275,5.88275,0,0,0-.18555-1.4707A.99994.99994,0,0,1,17.05713,2.791l.58984-.5332a1.0007,1.0007,0,0,1,1.57324.3125A7.92027,7.92027,0,0,1,20,6,8.00917,8.00917,0,0,1,12,14Z" style="fill:#333"/><path d="M12,19a.99974.99974,0,0,1-1-1V13a1,1,0,0,1,2,0v5A.99974.99974,0,0,1,12,19Z" style="fill:#333"/></svg>