<svg id="_006_DEVICES" data-name="006_DEVICES" xmlns="http://www.w3.org/2000/svg" width="24" height="24" viewBox="0 0 24 24"><title>006_016</title><path d="M8,14a.99974.99974,0,0,1-1-1V9A1,1,0,0,1,9,9v4A.99974.99974,0,0,1,8,14Z" style="fill:#333"/><path d="M12,14a.99974.99974,0,0,1-1-1V9a1,1,0,0,1,2,0v4A.99974.99974,0,0,1,12,14Z" style="fill:#333"/><path d="M16,14a.99974.99974,0,0,1-1-1V9a1,1,0,0,1,2,0v4A.99974.99974,0,0,1,16,14Z" style="fill:#333"/><path d="M9,20a.99974.99974,0,0,1-1-1V17a1,1,0,0,1,2,0v2A.99974.99974,0,0,1,9,20Z" style="fill:#333"/><path d="M13,20a.99974.99974,0,0,1-1-1V17a1,1,0,0,1,2,0v2A.99974.99974,0,0,1,13,20Z" style="fill:#333"/><path d="M5,20a.99974.99974,0,0,1-1-1V17a1,1,0,0,1,2,0v2A.99974.99974,0,0,1,5,20Z" style="fill:#333"/><path d="M17,20a.99974.99974,0,0,1-1-1V18H3a.99974.99974,0,0,1-1-1V12.5a.99974.99974,0,0,1,1-1,.5.5,0,0,0,0-1,.99974.99974,0,0,1-1-1V5A.99974.99974,0,0,1,3,4H21a.99974.99974,0,0,1,1,1V9.5a.99974.99974,0,0,1-1,1,.5.5,0,0,0,0,1,.99974.99974,0,0,1,1,1V17a1,1,0,0,1-2,0V13.291a2.49958,2.49958,0,0,1,0-4.582V6H4V8.709a2.49958,2.49958,0,0,1,0,4.582V16H17a.99974.99974,0,0,1,1,1v2A.99974.99974,0,0,1,17,20Z" style="fill:#333"/></svg>