<svg id="_006_DEVICES" data-name="006_DEVICES" xmlns="http://www.w3.org/2000/svg" width="24" height="24" viewBox="0 0 24 24"><title>006_060</title><path d="M22,20H17.457a2.19716,2.19716,0,0,1-1.83887-.99219L14.30273,17H9.69727L8.38379,19.00586A2.20022,2.20022,0,0,1,6.543,20H2a.99942.99942,0,0,1-1-1V15.39355a3.64047,3.64047,0,0,1,2.43164-3.46191.9996.9996,0,0,1,.82227,1.82227C3.09668,14.27637,3,14.874,3,15.39355V18H6.543a.20283.20283,0,0,0,.16895-.0918l1.6084-2.45605A1.00186,1.00186,0,0,1,9.15723,15h5.68555a1.00186,1.00186,0,0,1,.83691.45215l1.61035,2.458A.19976.19976,0,0,0,17.457,18H21V15.39355c0-.71289,0-2.60742-9-2.60742a39.63755,39.63755,0,0,0-4.65137.23242,1.0004,1.0004,0,0,1-.24023-1.98633A41.792,41.792,0,0,1,12,10.78613c7.81348,0,11,1.335,11,4.60742V19A.99942.99942,0,0,1,22,20Z" style="fill:#333"/><path d="M8,7A.99042.99042,0,0,1,7,6a1,1,0,0,1,1.71-.71A1.05235,1.05235,0,0,1,9,6,.99042.99042,0,0,1,8,7Z" style="fill:#333"/><path d="M12,7a.99042.99042,0,0,1-1-1,1.02775,1.02775,0,0,1,.29-.71A1,1,0,0,1,13,6a.99347.99347,0,0,1-.29.71A1.02749,1.02749,0,0,1,12,7Z" style="fill:#333"/><path d="M16,7a.99042.99042,0,0,1-1-1,1,1,0,0,1,1.71-.71A1.03212,1.03212,0,0,1,17,6a.99042.99042,0,0,1-1,1Z" style="fill:#333"/></svg>