<svg id="_006_DEVICES" data-name="006_DEVICES" xmlns="http://www.w3.org/2000/svg" width="24" height="24" viewBox="0 0 24 24"><title>006_036</title><path d="M12,18a6.00656,6.00656,0,0,1-6-6V8A6,6,0,0,1,18,8v4a6.02067,6.02067,0,0,1-.69238,2.80078,1.00035,1.00035,0,0,1-1.76953-.93359A3.95389,3.95389,0,0,0,16,12V8A4,4,0,0,0,8,8v4a4.00269,4.00269,0,0,0,5.127,3.83887,1.00031,1.00031,0,0,1,.5625,1.91992A6.018,6.018,0,0,1,12,18Z" style="fill:#333"/><path d="M12,22A10.01146,10.01146,0,0,1,2,12V10a1,1,0,0,1,2,0v2a8,8,0,0,0,16,0V10a1,1,0,0,1,2,0v2A10.01146,10.01146,0,0,1,12,22Z" style="fill:#333"/><path d="M12,22a.99974.99974,0,0,1-1-1V17a1,1,0,0,1,2,0v4A.99974.99974,0,0,1,12,22Z" style="fill:#333"/></svg>