<svg id="_006_DEVICES" data-name="006_DEVICES" xmlns="http://www.w3.org/2000/svg" width="24" height="24" viewBox="0 0 24 24"><title>006_007</title><path d="M16,23H8a3.00328,3.00328,0,0,1-3-3V4A3.00328,3.00328,0,0,1,8,1h8a3.00328,3.00328,0,0,1,3,3V15.57178a1,1,0,0,1-2,0V4a1.001,1.001,0,0,0-1-1H8A1.001,1.001,0,0,0,7,4V20a1.001,1.001,0,0,0,1,1h8a1.001,1.001,0,0,0,1-1v-.42822a1,1,0,1,1,2,0V20A3.00328,3.00328,0,0,1,16,23Z" style="fill:#333"/><path d="M10,15a.99042.99042,0,0,1-1-1,1.02954,1.02954,0,0,1,.29-.71,1.04668,1.04668,0,0,1,1.41992,0A1.03393,1.03393,0,0,1,11,14a.99042.99042,0,0,1-1,1Z" style="fill:#333"/><path d="M14,15a.99042.99042,0,0,1-1-1,1,1,0,1,1,2,0,.99042.99042,0,0,1-1,1Z" style="fill:#333"/><path d="M14,11a.99042.99042,0,0,1-1-1,1,1,0,1,1,2,0,.99042.99042,0,0,1-1,1Z" style="fill:#333"/><path d="M10,11a.99042.99042,0,0,1-1-1,1,1,0,1,1,2,0,.99042.99042,0,0,1-1,1Z" style="fill:#333"/><path d="M10,19a.99042.99042,0,0,1-1-1,1.02954,1.02954,0,0,1,.29-.71,1.04668,1.04668,0,0,1,1.41992,0A1.03393,1.03393,0,0,1,11,18a.99042.99042,0,0,1-1,1Z" style="fill:#333"/><path d="M14,19a.99042.99042,0,0,1-1-1,1,1,0,1,1,2,0,.99042.99042,0,0,1-1,1Z" style="fill:#333"/><path d="M10,2h4a0,0,0,0,1,0,0V3a2,2,0,0,1-2,2h0a2,2,0,0,1-2-2V2A0,0,0,0,1,10,2Z" style="fill:#333"/></svg>