<svg id="_006_DEVICES" data-name="006_DEVICES" xmlns="http://www.w3.org/2000/svg" width="24" height="24" viewBox="0 0 24 24"><title>006_050</title><path d="M21,21a1.00752,1.00752,0,0,1-.31641-.05127l-9.48633-3.1626a1.0001,1.0001,0,0,1,.63281-1.89746L20,18.6123V4a1,1,0,0,1,2,0V20a1.00005,1.00005,0,0,1-1,1ZM7.71875,16.57324a.99832.99832,0,0,1-.31641-.05176L2.68359,14.94873A1,1,0,0,1,2,14V10a1,1,0,0,1,.68359-.94873l14-4.6665a1.0001,1.0001,0,0,1,.63281,1.89746L4,10.7207V13.2793L8.03516,14.624a1.00043,1.00043,0,0,1-.31641,1.94922Z" style="fill:#333"/><path d="M10,21H9a3.00328,3.00328,0,0,1-3-3V16a1,1,0,0,1,2,0v2a1.001,1.001,0,0,0,1,1h1a1.001,1.001,0,0,0,1-1V17a1,1,0,0,1,2,0v1A3.00328,3.00328,0,0,1,10,21Z" style="fill:#333"/><path d="M17,18.9375a.99974.99974,0,0,1-1-1V9a1,1,0,0,1,2,0v8.9375A.99974.99974,0,0,1,17,18.9375Z" style="fill:#333"/></svg>