<svg id="_006_DEVICES" data-name="006_DEVICES" xmlns="http://www.w3.org/2000/svg" width="24" height="24" viewBox="0 0 24 24"><title>006_005</title><path d="M18,21H6a3.00328,3.00328,0,0,1-3-3V8A3.00328,3.00328,0,0,1,6,5h5.78564a1,1,0,0,1,0,2H6A1.0013,1.0013,0,0,0,5,8V18a1.0013,1.0013,0,0,0,1,1H18a1.0013,1.0013,0,0,0,1-1V8a1.0013,1.0013,0,0,0-1-1h-.71436a1,1,0,0,1,0-2H18a3.00328,3.00328,0,0,1,3,3V18A3.00328,3.00328,0,0,1,18,21Z" style="fill:#333"/><path d="M12,7a.99676.99676,0,0,1-.707-.293l-3-3A.99989.99989,0,0,1,9.707,2.293L12,4.58594l2.293-2.293A.99989.99989,0,0,1,15.707,3.707l-3,3A.99676.99676,0,0,1,12,7Z" style="fill:#333"/><path d="M16,16a.99042.99042,0,0,1-1-1,1.03173,1.03173,0,0,1,.29-.71A1,1,0,0,1,17,15a.99042.99042,0,0,1-1,1Z" style="fill:#333"/><path d="M16,12a.99042.99042,0,0,1-1-1,1,1,0,1,1,2,0,.99042.99042,0,0,1-1,1Z" style="fill:#333"/></svg>