<svg id="_006_DEVICES" data-name="006_DEVICES" xmlns="http://www.w3.org/2000/svg" width="24" height="24" viewBox="0 0 24 24"><title>006_001</title><path d="M18,22H6a3.00328,3.00328,0,0,1-3-3V5A3.00328,3.00328,0,0,1,6,2H18a3.00328,3.00328,0,0,1,3,3v9.57178a1,1,0,0,1-2,0V5a1.0013,1.0013,0,0,0-1-1H6A1.0013,1.0013,0,0,0,5,5V19a1.0013,1.0013,0,0,0,1,1H18a1.0013,1.0013,0,0,0,1-1v-.42822a1,1,0,1,1,2,0V19A3.00328,3.00328,0,0,1,18,22Z" style="fill:#333"/><path d="M12,19a.99042.99042,0,0,1-1-1,1,1,0,1,1,2,0,.99042.99042,0,0,1-1,1Z" style="fill:#333"/></svg>