<svg id="_006_DEVICES" data-name="006_DEVICES" xmlns="http://www.w3.org/2000/svg" width="24" height="24" viewBox="0 0 24 24"><title>006_018</title><path d="M19,20H5a3.00328,3.00328,0,0,1-3-3V7A3.00328,3.00328,0,0,1,5,4H19a3.00328,3.00328,0,0,1,3,3V9.14258a1,1,0,0,1-2,0V7a1.001,1.001,0,0,0-1-1H5A1.001,1.001,0,0,0,4,7V17a1.001,1.001,0,0,0,1,1H19a1.001,1.001,0,0,0,1-1V13.14258a1,1,0,1,1,2,0V17A3.00328,3.00328,0,0,1,19,20Z" style="fill:#333"/><circle cx="7.5" cy="11.5" r="1.5" style="fill:#333"/><circle cx="16.5" cy="11.5" r="1.5" style="fill:#333"/><polygon points="5 19 8 16 16 16 19 19 5 19" style="fill:#333"/><path d="M13.91608,13a2.91187,2.91187,0,0,1,0-3H10.08392a2.91187,2.91187,0,0,1,0,3Z" style="fill:#333"/></svg>