<svg id="_006_DEVICES" data-name="006_DEVICES" xmlns="http://www.w3.org/2000/svg" width="24" height="24" viewBox="0 0 24 24"><title>006_067</title><path d="M17,13a.99042.99042,0,0,1-1-1,1,1,0,1,1,2,0,.99042.99042,0,0,1-1,1Z" style="fill:#333"/><path d="M17,17a.99042.99042,0,0,1-1-1,1,1,0,1,1,2,0,.99042.99042,0,0,1-1,1Z" style="fill:#333"/><path d="M19,22H14a1,1,0,0,1,0-2h5a1.00068,1.00068,0,0,0,1-1V9a1.00068,1.00068,0,0,0-1-1H5A1.00068,1.00068,0,0,0,4,9V19a1.00068,1.00068,0,0,0,1,1h5a1,1,0,0,1,0,2H5a3.00328,3.00328,0,0,1-3-3V9A3.00328,3.00328,0,0,1,5,6H19a3.00328,3.00328,0,0,1,3,3V19A3.00328,3.00328,0,0,1,19,22Z" style="fill:#333"/><path d="M17.999,8a.99657.99657,0,0,1-.624-.21875l-5-4a1.00049,1.00049,0,0,1,1.25-1.5625l5,4A1.00007,1.00007,0,0,1,17.999,8Z" style="fill:#333"/><path d="M10,18a4,4,0,1,1,4-4A4.004,4.004,0,0,1,10,18Zm0-6a2,2,0,1,0,2,2A2.00261,2.00261,0,0,0,10,12Z" style="fill:#333"/></svg>