<svg id="_006_DEVICES" data-name="006_DEVICES" xmlns="http://www.w3.org/2000/svg" width="24" height="24" viewBox="0 0 24 24"><title>006_048</title><path d="M20,22H10a1,1,0,0,1,0-2h9V19a1.001,1.001,0,0,0-1-1H6a1.001,1.001,0,0,0-1,1v1H6a1,1,0,0,1,0,2H4a.99974.99974,0,0,1-1-1V19a3.00328,3.00328,0,0,1,3-3H18a3.00328,3.00328,0,0,1,3,3v2A.99974.99974,0,0,1,20,22Z" style="fill:#333"/><path d="M15,15a.99974.99974,0,0,1-1-1V5a1.001,1.001,0,0,0-1-1H9A1.001,1.001,0,0,0,8,5v.58594L9.707,7.293A1.00013,1.00013,0,0,1,10,8v6a1,1,0,0,1-2,0V8.41406L6.293,6.707A1.00013,1.00013,0,0,1,6,6V5A3.00328,3.00328,0,0,1,9,2h4a3.00328,3.00328,0,0,1,3,3v9A.99974.99974,0,0,1,15,15Z" style="fill:#333"/><path d="M15,8H13a1,1,0,0,1,0-2h2a1,1,0,0,1,0,2Z" style="fill:#333"/><path d="M15,12H13a1,1,0,0,1,0-2h2a1,1,0,0,1,0,2Z" style="fill:#333"/></svg>