<svg id="_006_DEVICES" data-name="006_DEVICES" xmlns="http://www.w3.org/2000/svg" width="24" height="24" viewBox="0 0 24 24"><title>006_026</title><path d="M19,22H5a3.00328,3.00328,0,0,1-3-3V5A3.00328,3.00328,0,0,1,5,2H19a.99928.99928,0,0,1,.707.293l2,2A1.00013,1.00013,0,0,1,22,5V19a1,1,0,0,1-2,0V5.41406L18.58594,4H5A1.001,1.001,0,0,0,4,5V19a1.001,1.001,0,0,0,1,1H19a1,1,0,0,1,0,2Z" style="fill:#333"/><path d="M15,8H9A.99974.99974,0,0,1,8,7V3A.99974.99974,0,0,1,9,2h6a.99974.99974,0,0,1,1,1V7A.99974.99974,0,0,1,15,8ZM10,6h4V4H10Z" style="fill:#333"/><path d="M17,22a.99974.99974,0,0,1-1-1V13H8v5a1,1,0,0,1-2,0V12a.99974.99974,0,0,1,1-1H17a.99974.99974,0,0,1,1,1v9A.99974.99974,0,0,1,17,22Z" style="fill:#333"/><rect x="9" y="3" width="3" height="4" style="fill:#333"/><path d="M5,8H3A1,1,0,0,1,3,6H5A1,1,0,0,1,5,8Z" style="fill:#333"/></svg>