<svg id="_006_DEVICES" data-name="006_DEVICES" xmlns="http://www.w3.org/2000/svg" width="24" height="24" viewBox="0 0 24 24"><title>006_045</title><path d="M6,15a.99042.99042,0,0,1-1-1,1,1,0,0,1,1.71-.71A1.05235,1.05235,0,0,1,7,14a.99042.99042,0,0,1-1,1Z" style="fill:#333"/><path d="M6,19a.99042.99042,0,0,1-1-1,1,1,0,0,1,1.71-.71A1.05235,1.05235,0,0,1,7,18a.99042.99042,0,0,1-1,1Z" style="fill:#333"/><path d="M10,15a.99042.99042,0,0,1-1-1,1,1,0,0,1,1.71-.71A1.05235,1.05235,0,0,1,11,14a.99042.99042,0,0,1-1,1Z" style="fill:#333"/><path d="M14,15a.99042.99042,0,0,1-1-1,1,1,0,1,1,2,0,.99042.99042,0,0,1-1,1Z" style="fill:#333"/><path d="M14,19H10a1,1,0,0,1,0-2h4a1,1,0,0,1,0,2Z" style="fill:#333"/><path d="M18,15a.99042.99042,0,0,1-1-1,1,1,0,1,1,2,0,.99042.99042,0,0,1-1,1Z" style="fill:#333"/><path d="M18,19a.99042.99042,0,0,1-1-1,1,1,0,1,1,2,0,.99042.99042,0,0,1-1,1Z" style="fill:#333"/><path d="M21,23H16a1,1,0,0,1,0-2h5V11H3V21h9a1,1,0,0,1,0,2H3a2.002,2.002,0,0,1-2-2V11A2.002,2.002,0,0,1,3,9H21a2.002,2.002,0,0,1,2,2V21A2.002,2.002,0,0,1,21,23Z" style="fill:#333"/><path d="M16.99951,4.67822a.99625.99625,0,0,1-.61328-.21045,7.18091,7.18091,0,0,0-8.57422,0,1.00005,1.00005,0,0,1-1.22754-1.5791,8.99349,8.99349,0,0,1,11.0293,0,1,1,0,0,1-.61426,1.78955Z" style="fill:#333"/><path d="M14.11963,7.55811a.9934.9934,0,0,1-.50586-.13818,3.03516,3.03516,0,0,0-3.02832-.00049A.99988.99988,0,1,1,9.56982,5.69678a5.063,5.063,0,0,1,5.05762-.00049.99995.99995,0,0,1-.50781,1.86182Z" style="fill:#333"/></svg>