<svg id="_006_DEVICES" data-name="006_DEVICES" xmlns="http://www.w3.org/2000/svg" width="24" height="24" viewBox="0 0 24 24"><title>006_032</title><path d="M7,18H5a3.00328,3.00328,0,0,1-3-3V12A3.00328,3.00328,0,0,1,5,9H19a3.00328,3.00328,0,0,1,3,3v3a2.97867,2.97867,0,0,1-.87891,2.12109A.99989.99989,0,0,1,19.707,15.707.99317.99317,0,0,0,20,15V12a1.0013,1.0013,0,0,0-1-1H5a1.0013,1.0013,0,0,0-1,1v3a1.0013,1.0013,0,0,0,1,1H7a1,1,0,0,1,0,2Z" style="fill:#333"/><path d="M7,11a1,1,0,0,1-1-1V6A1,1,0,0,1,7,5H9l.00049-2a1,1,0,0,1,1-1H17a1,1,0,0,1,1,1V7a1,1,0,0,1-2,0V4H11.00049L11,6a1,1,0,0,1-1,1H8v3A1,1,0,0,1,7,11Z" style="fill:#333"/><path d="M7,22a1,1,0,0,1-1-1V15a1,1,0,0,1,2,0v6A1,1,0,0,1,7,22Z" style="fill:#333"/><path d="M17,22a1,1,0,0,1-1-1V15a1,1,0,0,1,2,0v6A1,1,0,0,1,17,22Z" style="fill:#333"/><path d="M12,22a1,1,0,0,1-1-1V15a1,1,0,0,1,2,0v6A1,1,0,0,1,12,22Z" style="fill:#333"/><rect x="9" y="5" width="2" height="2" style="fill:#333"/></svg>