<?xml version="1.0" ?><svg height="48" viewBox="0 0 48 48" width="48" xmlns="http://www.w3.org/2000/svg"><defs><style>.cls-1{fill:#a4b0c0;}.cls-2{fill:#fed049;}.cls-3{fill:#d0d7df;}.cls-4{fill:#474c54;}</style></defs><title/><g data-name="14-Barrier" id="_14-Barrier"><g data-name="&lt;Group&gt;" id="_Group_"><path class="cls-1" d="M47,24V34a1,1,0,0,1-1,1H30l3-3,6-6,3-3h4A1,1,0,0,1,47,24Z"/><path class="cls-2" d="M47,6V16a1,1,0,0,1-1,1H30l3-3,6-6,3-3h4A1,1,0,0,1,47,6Z"/><polygon class="cls-3" points="42 35 42 47 38 47 38 43 10 43 10 47 6 47 6 35 10 35 10 39 38 39 38 35 42 35"/><rect class="cls-3" height="6" width="4" x="38" y="17"/><polygon class="cls-1" points="42 5 39 8 33 14 30 17 18.02 16.98 21 14 27 8 30 5 32 5 36 5 40 5 42 5"/><polygon class="cls-2" points="42.111 23 39.091 26 33.05 32 30.03 35 18 35 18 34.95 20.97 32 27.01 26 30 23.03 30 23 38.084 23 42.111 23"/><path class="cls-3" d="M40,2V5H8V2A1,1,0,0,1,9,1H39A1,1,0,0,1,40,2Z"/><polygon class="cls-2" points="30.12 5 27.12 8 18.12 17 10.12 17 6.12 17 9.12 14 15.12 8 18 5.12 18 5 30.12 5"/><polygon class="cls-1" points="30 23 30 23.03 27.01 26 18 34.95 18 35 9.896 35 5.869 35 8.889 32 14.93 26 17.95 23 30 23"/><path class="cls-2" d="M18,23l-3,3L9,32,6,35H2a1,1,0,0,1-1-1V24a1,1,0,0,1,1-1H18Z"/><path class="cls-1" d="M18,5v.12L15.1,8,9.057,14,6.036,17H2a1,1,0,0,1-1-1V6A1,1,0,0,1,2,5H18Z"/><rect class="cls-3" height="6" width="4" x="6" y="17"/><path class="cls-4" d="M38,34H10a1,1,0,0,0-1,1v4a1,1,0,0,0,1,1H38a1,1,0,0,0,1-1V35A1,1,0,0,0,38,34Zm-1,4H11V36H37Z"/><path class="cls-4" d="M46,18a2,2,0,0,0,2-2V6a2,2,0,0,0-2-2H41V2a2,2,0,0,0-2-2H9A2,2,0,0,0,7,2V4H2A2,2,0,0,0,0,6V16a2,2,0,0,0,2,2H5v4H2a2,2,0,0,0-2,2V34a2,2,0,0,0,2,2H5V47a1,1,0,0,0,1,1h4a1,1,0,0,0,1-1V44H37v3a1,1,0,0,0,1,1h4a1,1,0,0,0,1-1V36h3a2,2,0,0,0,2-2V24a2,2,0,0,0-2-2H43V18ZM2,6H32a1,1,0,0,0,0-2H9V2H39V4H36a1,1,0,0,0,0,2H46V16H2Zm9,16V18H37v4ZM7,18H9v4H7Zm32,0h2v4H39Zm7,16H42a1,1,0,0,0-1,1V46H39V43a1,1,0,0,0-1-1H10a1,1,0,0,0-1,1v3H7V35a1,1,0,0,0-1-1H2V24H46Z"/><path class="cls-4" d="M9.707,32.707l6-6a1,1,0,0,0-1.414-1.414l-6,6a1,1,0,1,0,1.414,1.414Z"/><path class="cls-4" d="M21,33a1,1,0,0,0,.707-.293l6-6a1,1,0,0,0-1.414-1.414l-6,6A1,1,0,0,0,21,33Z"/><path class="cls-4" d="M38.293,25.293l-6,6a1,1,0,1,0,1.414,1.414l6-6a1,1,0,0,0-1.414-1.414Z"/><path class="cls-4" d="M9,15a1,1,0,0,0,.707-.293l6-6a1,1,0,1,0-1.414-1.414l-6,6A1,1,0,0,0,9,15Z"/><path class="cls-4" d="M21,15a1,1,0,0,0,.707-.293l6-6a1,1,0,1,0-1.414-1.414l-6,6A1,1,0,0,0,21,15Z"/><path class="cls-4" d="M33,15a1,1,0,0,0,.707-.293l6-6a1,1,0,1,0-1.414-1.414l-6,6A1,1,0,0,0,33,15Z"/></g></g></svg>