<?xml version="1.0" ?><svg height="48" viewBox="0 0 48 48" width="48" xmlns="http://www.w3.org/2000/svg"><defs><style>.cls-1{fill:#d0d7df;}.cls-2{fill:#a4b0c0;}.cls-3{fill:#f1f2f2;}.cls-4{fill:#474c54;}</style></defs><title/><g data-name="20-Mouse" id="_20-Mouse"><path class="cls-1" d="M47,19V41a4,4,0,0,1-4,4H5a4,4,0,0,1-4-4V7A4,4,0,0,1,5,3H43a4,4,0,0,1,4,4V19Z"/><path class="cls-2" d="M39,21v3H31V17h4A4,4,0,0,1,39,21Z"/><path class="cls-2" d="M31,17v7H23V21a4,4,0,0,1,4-4Z"/><path class="cls-3" d="M39,24V35a4,4,0,0,1-4,4H27a4,4,0,0,1-4-4V24H39Z"/><path class="cls-4" d="M43,2H5A5.006,5.006,0,0,0,0,7V41a5.006,5.006,0,0,0,5,5H43a5.006,5.006,0,0,0,5-5V19a1,1,0,0,0-2,0V41a3,3,0,0,1-3,3H5a3,3,0,0,1-3-3V7A3,3,0,0,1,5,4H43a3,3,0,0,1,3,3v4a1,1,0,0,0,2,0V7A5.006,5.006,0,0,0,43,2Z"/><path class="cls-4" d="M27,18a1,1,0,0,0,0-2,5.006,5.006,0,0,0-5,5V35a5.006,5.006,0,0,0,5,5h8a5.006,5.006,0,0,0,5-5V21a5.006,5.006,0,0,0-5-5H31a1,1,0,0,0-1,1v6H27a1,1,0,0,0,0,2h8a1,1,0,0,0,0-2H32V18h3a3,3,0,0,1,3,3V35a3,3,0,0,1-3,3H27a3,3,0,0,1-3-3V21A3,3,0,0,1,27,18Z"/><path class="cls-4" d="M43,16h4a1,1,0,0,0,0-2H43a.915.915,0,0,1-1-1V11a2.916,2.916,0,0,0-3-3H33a2.916,2.916,0,0,0-3,3v2a1,1,0,0,0,2,0V11.012A.918.918,0,0,1,33,10h5.988A.919.919,0,0,1,40,11v2A2.916,2.916,0,0,0,43,16Z"/></g></svg>