<?xml version="1.0" ?><svg height="48" viewBox="0 0 48 48" width="48" xmlns="http://www.w3.org/2000/svg"><defs><style>.cls-1{fill:#d0d7df;}.cls-2{fill:#f1f2f2;}.cls-3{fill:#a4b0c0;}.cls-4{fill:#474c54;}</style></defs><title/><g data-name="15-Cpu" id="_15-Cpu"><rect class="cls-1" height="46" rx="4" ry="4" width="34" x="7" y="1"/><circle class="cls-2" cx="24" cy="36" r="4"/><rect class="cls-3" height="3" width="20" x="14" y="22"/><rect class="cls-3" height="3" width="20" x="14" y="14"/><rect class="cls-3" height="3" width="20" x="14" y="6"/><path class="cls-4" d="M37,0H11A5.006,5.006,0,0,0,6,5V43a5.006,5.006,0,0,0,5,5H37a5.006,5.006,0,0,0,5-5V5A5.006,5.006,0,0,0,37,0Zm3,43a3,3,0,0,1-3,3H11a3,3,0,0,1-3-3V5a3,3,0,0,1,3-3H37a3,3,0,0,1,3,3Z"/><path class="cls-4" d="M36,5H12a1,1,0,0,0,0,2h1V9a1,1,0,0,0,1,1H34a1,1,0,0,0,1-1V7h1a1,1,0,0,0,0-2ZM33,8H15V7H33Z"/><path class="cls-4" d="M36,13H12a1,1,0,0,0,0,2h1v2a1,1,0,0,0,1,1H34a1,1,0,0,0,1-1V15h1a1,1,0,0,0,0-2Zm-3,3H15V15H33Z"/><path class="cls-4" d="M36,21H12a1,1,0,0,0,0,2h1v2a1,1,0,0,0,1,1H34a1,1,0,0,0,1-1V23h1a1,1,0,0,0,0-2Zm-3,3H15V23H33Z"/><path class="cls-4" d="M24,31a5,5,0,0,0,0,10,1,1,0,0,0,0-2,3,3,0,1,1,3-3,1,1,0,0,0,2,0A5.006,5.006,0,0,0,24,31Z"/><path class="cls-4" d="M24.707,35.293a1,1,0,0,0-1.414,1.414l2,2a1,1,0,0,0,1.414-1.414Z"/></g></svg>