<?xml version="1.0" ?><svg height="48" viewBox="0 0 48 48" width="48" xmlns="http://www.w3.org/2000/svg"><defs><style>.cls-1{fill:#a4b0c0;}.cls-2{fill:#f1f2f2;}.cls-3{fill:#d0d7df;}.cls-4{fill:#474c54;}</style></defs><title/><g data-name="23-Browser-Interface-layout" id="_23-Browser-Interface-layout"><path class="cls-1" d="M47,5V9H1V5A4,4,0,0,1,5,1H43S47,1,47,5Z"/><path class="cls-2" d="M47,9V43a4,4,0,0,1-4,4H5a4,4,0,0,1-4-4V9Z"/><g data-name="&lt;Group&gt;" id="_Group_"><path class="cls-3" d="M42,17V28H24V15H40A2.006,2.006,0,0,1,42,17Z"/><path class="cls-3" d="M42,28V39a2.006,2.006,0,0,1-2,2H24V28Z"/><path class="cls-3" d="M24,28V41H8a2.006,2.006,0,0,1-2-2V28Z"/><path class="cls-3" d="M24,15V28H6V17a2.006,2.006,0,0,1,2-2Z"/><path class="cls-4" d="M47,8H6a1,1,0,0,0,0,2H46V43a3,3,0,0,1-3,3H5a3,3,0,0,1-3-3V5A3,3,0,0,1,5,2H43A2.853,2.853,0,0,1,46,5a1,1,0,0,0,2,0,4.821,4.821,0,0,0-5-5H5A5.006,5.006,0,0,0,0,5V43a5.006,5.006,0,0,0,5,5H43a5.006,5.006,0,0,0,5-5V9A1,1,0,0,0,47,8Z"/><path class="cls-4" d="M6,4A1,1,0,0,0,6,6H8A1,1,0,0,0,8,4Z"/><path class="cls-4" d="M12,4a1,1,0,0,0,0,2h2a1,1,0,0,0,0-2Z"/><path class="cls-4" d="M41,4a1,1,0,0,0,0,2h2a1,1,0,0,0,0-2Z"/><path class="cls-4" d="M8,16H20a1,1,0,0,0,0-2H8a3,3,0,0,0-3,3V28a1,1,0,0,0,1,1H23V40H8a1,1,0,0,1-1-1V32a1,1,0,0,0-2,0v7a3,3,0,0,0,3,3H40a3,3,0,0,0,3-3V17a3,3,0,0,0-3-3H24a1,1,0,0,0-1,1V27H7V17A1,1,0,0,1,8,16ZM40,40H25V29H41V39A1,1,0,0,1,40,40ZM25,16H40a1,1,0,0,1,1,1V27H25Z"/></g></g></svg>