<?xml version="1.0" ?><svg height="48" viewBox="0 0 48 48" width="48" xmlns="http://www.w3.org/2000/svg"><defs><style>.cls-1{fill:#f6b445;}.cls-2{fill:#fed049;}.cls-3{fill:#f1f2f2;}.cls-4{fill:#a4b0c0;}.cls-5{fill:#d0d7df;}.cls-6{fill:#474c54;}</style></defs><title/><g data-name="14-Folder" id="_14-Folder"><path class="cls-1" d="M39,13H22V7H38a.979.979,0,0,1,1,1Z"/><path class="cls-2" d="M22,7v6H43a4,4,0,0,1,4,4V43a4,4,0,0,1-4,4H5a4,4,0,0,1-4-4V5S1,1,5,1H18s4,0,4,4Z"/><g data-name="&lt;Group&gt;" id="_Group_"><circle class="cls-3" cx="27" cy="39" r="4"/><path class="cls-4" d="M33,28v3H21V28a1,1,0,0,1,1-1H32A1,1,0,0,1,33,28Z"/><path class="cls-5" d="M39,43v4H17a2.006,2.006,0,0,1-2-2V33a2.006,2.006,0,0,1,2-2H37a2.006,2.006,0,0,1,2,2Zm-8-4a4,4,0,1,0-4,4A4,4,0,0,0,31,39Z"/><path class="cls-6" d="M43,12H12a1,1,0,0,0,0,2H43a3,3,0,0,1,3,3V43a3,3,0,0,1-3,3H17a1,1,0,0,1-1-1V33a1,1,0,0,1,1-1h4a1,1,0,0,0,1-1V28H32v2H25a1,1,0,0,0,0,2H37a1,1,0,0,1,1,1V43a1,1,0,0,0,2,0V33a3,3,0,0,0-3-3H34V28a2,2,0,0,0-2-2H22a2,2,0,0,0-2,2v2H17a3,3,0,0,0-3,3V45a3,3,0,0,0,3,3H43a5.006,5.006,0,0,0,5-5V17A5.006,5.006,0,0,0,43,12Z"/><path class="cls-6" d="M11,46H5a3,3,0,0,1-3-3V5.005A2.853,2.853,0,0,1,5,2H18a2.853,2.853,0,0,1,3,3V7a1,1,0,0,0,1,1H38V9a1,1,0,0,0,2,0V8a1.959,1.959,0,0,0-2-2H23V5a4.821,4.821,0,0,0-5-5H5A4.821,4.821,0,0,0,0,5V43a5.006,5.006,0,0,0,5,5h6a1,1,0,0,0,0-2Z"/><path class="cls-6" d="M22,39a5,5,0,1,0,5-5A5.006,5.006,0,0,0,22,39Zm8,0a3,3,0,1,1-3-3A3,3,0,0,1,30,39Z"/><path class="cls-6" d="M34,34a1,1,0,0,0,0,2h1a1,1,0,0,0,0-2Z"/></g></g></svg>