<?xml version="1.0" ?><svg height="48" viewBox="0 0 48 48" width="48" xmlns="http://www.w3.org/2000/svg"><defs><style>.cls-1{fill:#a4b0c0;}.cls-2{fill:#d0d7df;}.cls-3{fill:#f1f2f2;}.cls-4{fill:#474c54;}</style></defs><title/><g data-name="13-Digital Camera" id="_13-Digital_Camera"><g data-name="&lt;Group&gt;" id="_Group_"><path class="cls-1" d="M33,4V8H15V3a1,1,0,0,1,1-1H32a1,1,0,0,1,1,1Z"/><path class="cls-1" d="M10,5a.979.979,0,0,1,1,1V8H6V6A.979.979,0,0,1,7,5Z"/><path class="cls-2" d="M47,11V37a3,3,0,0,1-3,3H4a3,3,0,0,1-3-3V11A3,3,0,0,1,4,8H44A3,3,0,0,1,47,11Z"/></g><g data-name="&lt;Group&gt;" id="_Group_2"><rect class="cls-3" height="4" rx="1" ry="1" width="6" x="37" y="12"/><circle class="cls-3" cx="24" cy="24" r="6"/><path class="cls-1" d="M24,13A11,11,0,1,1,13,24,10.994,10.994,0,0,1,24,13Zm6,11a6,6,0,1,0-6,6A6,6,0,0,0,30,24Z"/></g><g data-name="&lt;Group&gt;" id="_Group_3"><circle class="cls-3" cx="36" cy="35" r="3"/><path class="cls-1" d="M47,34v2a1,1,0,0,1-1,1H43.74a8.285,8.285,0,0,1-.85,2.06l1.6,1.6a1,1,0,0,1,0,1.41l-1.42,1.42a1,1,0,0,1-1.41,0l-1.6-1.6a8.285,8.285,0,0,1-2.06.85V45a1,1,0,0,1-1,1H35a1,1,0,0,1-1-1V42.74a8.285,8.285,0,0,1-2.06-.85l-1.6,1.6a1,1,0,0,1-1.41,0l-1.42-1.42a1,1,0,0,1,0-1.41l1.6-1.6A8.285,8.285,0,0,1,28.26,37H26a1,1,0,0,1-1-1V34a1,1,0,0,1,1-1h2.26a8.285,8.285,0,0,1,.85-2.06l-1.6-1.6a1,1,0,0,1,0-1.41l1.42-1.42a1,1,0,0,1,1.41,0l1.6,1.6A8.285,8.285,0,0,1,34,27.26V25a1,1,0,0,1,1-1h2a1,1,0,0,1,1,1v2.26a8.285,8.285,0,0,1,2.06.85l1.6-1.6a1,1,0,0,1,1.41,0l1.42,1.42a1,1,0,0,1,0,1.41l-1.6,1.6A8.285,8.285,0,0,1,43.74,33H46A1,1,0,0,1,47,34Zm-8,1a3,3,0,1,0-3,3A3,3,0,0,0,39,35Z"/><path class="cls-4" d="M23,39H4a2,2,0,0,1-2-2V11A2,2,0,0,1,4,9H6A1,1,0,0,0,7,8V6h3V8a1,1,0,0,0,1,1h4a1,1,0,0,0,1-1V3H32V4a1,1,0,0,0,2,0V3a2,2,0,0,0-2-2H16a2,2,0,0,0-2,2V7H12V6a1.959,1.959,0,0,0-2-2H7A1.959,1.959,0,0,0,5,6V7H4a4,4,0,0,0-4,4V37a4,4,0,0,0,4,4H23a1,1,0,0,0,0-2Z"/><path class="cls-4" d="M44,7H19a1,1,0,0,0,0,2H44a2,2,0,0,1,2,2V24a1,1,0,0,0,2,0V11A4,4,0,0,0,44,7Z"/><path class="cls-4" d="M32.293,18.41a1,1,0,0,0,1.657-1.12,12,12,0,1,0-16.5,16.768,1,1,0,0,0,1.093-1.675A10,10,0,1,1,32.293,18.41Z"/><path class="cls-4" d="M24,19a5.01,5.01,0,0,1,3.714,1.652A1,1,0,1,0,29.2,19.313a7,7,0,1,0-9.068,10.521,1,1,0,1,0,1.106-1.666A5,5,0,0,1,24,19Z"/><path class="cls-4" d="M42,17a2,2,0,0,0,2-2V13a2,2,0,0,0-2-2H38a2,2,0,0,0-2,2v2a2,2,0,0,0,2,2Zm-4-4h4v2H38Z"/><path class="cls-4" d="M11,12a1,1,0,0,0-1-1H5a1,1,0,0,0,0,2h5A1,1,0,0,0,11,12Z"/><path class="cls-4" d="M5,15a1,1,0,0,0,0,2H6a1,1,0,0,0,0-2Z"/><path class="cls-4" d="M46,32H44.478q-.158-.443-.361-.873l1.08-1.08a2,2,0,0,0,0-2.824l-1.42-1.42a2,2,0,0,0-2.824,0l-1.08,1.08q-.431-.2-.873-.361V25a2,2,0,0,0-2-2H35a2,2,0,0,0-2,2v1.522q-.443.157-.873.361l-1.08-1.08a2,2,0,0,0-2.824,0l-1.42,1.42a2,2,0,0,0,0,2.824l1.08,1.08q-.2.431-.361.873H26a2,2,0,0,0-2,2v2a2,2,0,0,0,2,2h1.522q.157.443.361.873l-1.08,1.08a2,2,0,0,0,0,2.824l1.42,1.42a2,2,0,0,0,2.824,0l1.08-1.08q.431.2.873.361V45a2,2,0,0,0,2,2h2a2,2,0,0,0,2-2V43.478q.443-.158.873-.361l1.08,1.08a2,2,0,0,0,2.824,0l1.42-1.42a2,2,0,0,0,0-2.824l-1.08-1.08q.2-.431.361-.873H46a2,2,0,0,0,2-2V34A2,2,0,0,0,46,32Zm0,4H43.74a1,1,0,0,0-.968.748,7.273,7.273,0,0,1-.748,1.812,1,1,0,0,0,.159,1.207l1.6,1.6-1.416,1.42-1.6-1.6a1,1,0,0,0-1.207-.159,7.273,7.273,0,0,1-1.812.748A1,1,0,0,0,37,42.74V45H35V42.74a1,1,0,0,0-.748-.968,7.273,7.273,0,0,1-1.812-.748,1,1,0,0,0-1.207.159l-1.6,1.6-1.42-1.416,1.6-1.6a1,1,0,0,0,.159-1.207,7.273,7.273,0,0,1-.748-1.812A1,1,0,0,0,28.26,36H26V34h2.26a1,1,0,0,0,.968-.748,7.273,7.273,0,0,1,.748-1.812,1,1,0,0,0-.159-1.207l-1.6-1.6,1.416-1.42,1.6,1.6a1,1,0,0,0,1.207.159,7.273,7.273,0,0,1,1.812-.748A1,1,0,0,0,35,27.26V25h2v2.26a1,1,0,0,0,.748.968,7.273,7.273,0,0,1,1.812.748,1,1,0,0,0,1.207-.159l1.6-1.6,1.42,1.416-1.6,1.6a1,1,0,0,0-.159,1.207,7.273,7.273,0,0,1,.748,1.812A1,1,0,0,0,43.74,34H46Z"/><path class="cls-4" d="M36,31a4,4,0,1,0,4,4A4,4,0,0,0,36,31Zm0,6a2,2,0,1,1,2-2A2,2,0,0,1,36,37Z"/></g></g></svg>