<?xml version="1.0" ?><svg height="48" viewBox="0 0 48 48" width="48" xmlns="http://www.w3.org/2000/svg"><defs><style>.cls-1{fill:#d0d7df;}.cls-2{fill:#49aaee;}.cls-3{fill:#a4b0c0;}.cls-4{fill:#f1f2f2;}.cls-5{fill:#474c54;}</style></defs><title/><g data-name="11-Smartphone" id="_11-Smartphone"><path class="cls-1" d="M39,40v3a4,4,0,0,1-4,4H13a4,4,0,0,1-4-4V40Z"/><path class="cls-1" d="M39,5V8H9V5a4,4,0,0,1,4-4H35A4,4,0,0,1,39,5Z"/><rect class="cls-2" height="32" width="30" x="9" y="8"/><path class="cls-3" d="M33,21H28a2.006,2.006,0,0,1-2-2V14Z"/><path class="cls-4" d="M33,21V32a2.006,2.006,0,0,1-2,2H17a2.006,2.006,0,0,1-2-2V16a2.006,2.006,0,0,1,2-2h9v5a2.006,2.006,0,0,0,2,2Z"/><path class="cls-5" d="M40,8V5a5.006,5.006,0,0,0-5-5H13A5.006,5.006,0,0,0,8,5V43a5.006,5.006,0,0,0,5,5H35a5.006,5.006,0,0,0,5-5V13a1,1,0,0,0-2,0V43a3,3,0,0,1-3,3H13a3,3,0,0,1-3-3V5a3,3,0,0,1,3-3H35a3,3,0,0,1,3,3V7H14a1,1,0,0,0,0,2H39A1,1,0,0,0,40,8Z"/><path class="cls-5" d="M13,40a1,1,0,0,0,1,1H34a1,1,0,0,0,0-2H14A1,1,0,0,0,13,40Z"/><path class="cls-5" d="M31,35a3,3,0,0,0,3-3V21a1.009,1.009,0,0,0-.293-.707l-7-7A1,1,0,0,0,26,13H17a3,3,0,0,0-3,3V32a3,3,0,0,0,3,3ZM16,32V16a1,1,0,0,1,1-1h8.586l5,5H28a1,1,0,0,1-1-1V18a1,1,0,0,0-2,0v1a3,3,0,0,0,3,3h4V32a1,1,0,0,1-1,1H17A1,1,0,0,1,16,32Z"/><path class="cls-5" d="M20,26h8a1,1,0,0,0,0-2H20a1,1,0,0,0,0,2Z"/><path class="cls-5" d="M20,30h8a1,1,0,0,0,0-2H20a1,1,0,0,0,0,2Z"/></g></svg>