<?xml version="1.0" ?><svg height="48" viewBox="0 0 48 48" width="48" xmlns="http://www.w3.org/2000/svg"><defs><style>.cls-1{fill:#f1f2f2;}.cls-2{fill:#d0d7df;}.cls-3{fill:#474c54;}</style></defs><title/><g data-name="32-File Exchange" id="_32-File_Exchange"><g data-name="&lt;Group&gt;" id="_Group_"><path class="cls-1" d="M43,14V43a4,4,0,0,1-4,4H9s-4,0-4-4V5A4,4,0,0,1,9,1H30v9a4,4,0,0,0,4,4Z"/><path class="cls-2" d="M43,14H34a4,4,0,0,1-4-4V1Z"/></g><path class="cls-3" d="M10,25H31.586l-2.293,2.293a1,1,0,1,0,1.414,1.414l4-4a.99.99,0,0,0,.217-.326,1,1,0,0,0,0-.764.99.99,0,0,0-.217-.326l-4-4a1,1,0,0,0-1.414,1.414L31.586,23H10a3.85,3.85,0,0,1-4-4V5A3,3,0,0,1,9,2H29.586l11,11H34a3,3,0,0,1-3-3V7a1,1,0,0,0-2,0v3a5.006,5.006,0,0,0,5,5h8V29a1,1,0,0,0,2,0V14a.988.988,0,0,0-.078-.385,1,1,0,0,0-.216-.323l-13-13A1,1,0,0,0,30,0H9A5.006,5.006,0,0,0,4,5V19A5.785,5.785,0,0,0,10,25Z"/><path class="cls-3" d="M42.966,33.916C41.924,32.645,40.253,32,38,32H15.414l2.293-2.293a1,1,0,0,0-1.414-1.414l-4,4a.99.99,0,0,0-.217.326,1,1,0,0,0,0,.764.99.99,0,0,0,.217.326l4,4a1,1,0,0,0,1.414-1.414L15.414,34H38a4.248,4.248,0,0,1,3.41,1.173,3.568,3.568,0,0,1,.61,2.631A.925.925,0,0,0,42,38v5a3,3,0,0,1-3,3H9a2.852,2.852,0,0,1-3-3V27a1,1,0,0,0-2,0V43a4.821,4.821,0,0,0,5,5H39a5.006,5.006,0,0,0,5-5V38.083A5.517,5.517,0,0,0,42.966,33.916Z"/></g></svg>