<?xml version="1.0" ?><svg height="48" viewBox="0 0 48 48" width="48" xmlns="http://www.w3.org/2000/svg"><defs><style>.cls-1{fill:#a4b0c0;}.cls-2{fill:#f1f2f2;}.cls-3{fill:#d0d7df;}.cls-4{fill:#474c54;}</style></defs><title/><g data-name="19-Browser-Interface-layout" id="_19-Browser-Interface-layout"><path class="cls-1" d="M47,5V9H1V5A4,4,0,0,1,5,1H43S47,1,47,5Z"/><path class="cls-2" d="M47,9V43a4,4,0,0,1-4,4H5a4,4,0,0,1-4-4V9Z"/><g data-name="&lt;Group&gt;" id="_Group_"><path class="cls-3" d="M42,17V39a2.006,2.006,0,0,1-2,2H24V15H40A2.006,2.006,0,0,1,42,17Z"/><path class="cls-3" d="M24,15V41H8a2.006,2.006,0,0,1-2-2V17a2.006,2.006,0,0,1,2-2Z"/><path class="cls-4" d="M47,8H6a1,1,0,0,0,0,2H46V43a3,3,0,0,1-3,3H5a3,3,0,0,1-3-3V5A3,3,0,0,1,5,2H42.994A2.854,2.854,0,0,1,46,5a1,1,0,0,0,2,0,4.821,4.821,0,0,0-5-5H5A5.006,5.006,0,0,0,0,5V43a5.006,5.006,0,0,0,5,5H43a5.006,5.006,0,0,0,5-5V9A1,1,0,0,0,47,8Z"/><path class="cls-4" d="M6,4A1,1,0,0,0,6,6H8A1,1,0,0,0,8,4Z"/><path class="cls-4" d="M12,4a1,1,0,0,0,0,2h2a1,1,0,0,0,0-2Z"/><path class="cls-4" d="M41,4a1,1,0,0,0,0,2h2a1,1,0,0,0,0-2Z"/><path class="cls-4" d="M24,14H8a3,3,0,0,0-3,3V39a3,3,0,0,0,3,3H40a3,3,0,0,0,3-3V17a3,3,0,0,0-3-3H28a1,1,0,0,0,0,2H40a1,1,0,0,1,1,1V39a1,1,0,0,1-1,1H25V15A1,1,0,0,0,24,14ZM23,40H8a1,1,0,0,1-1-1V17a1,1,0,0,1,1-1H23Z"/></g></g></svg>