<?xml version="1.0" ?><svg height="48" viewBox="0 0 48 48" width="48" xmlns="http://www.w3.org/2000/svg"><defs><style>.cls-1{fill:#49aaee;}.cls-2{fill:#d0d7df;}.cls-3{fill:#fa5c66;}.cls-4{fill:#474c54;}</style></defs><title/><g data-name="28-Smartphone-Bookmark" id="_28-Smartphone-Bookmark"><rect class="cls-1" height="46" rx="4" ry="4" width="36" x="6" y="1"/><path class="cls-2" d="M42,5a4,4,0,0,0-4-4H10A4,4,0,0,0,6,5V8H42Z"/><path class="cls-2" d="M6,43a4,4,0,0,0,4,4H38a4,4,0,0,0,4-4V40H6Z"/><path class="cls-3" d="M21,12V26l-5-5-5,5V11a2.938,2.938,0,0,1,3-3h7Z"/><path class="cls-4" d="M43,8V5a5.006,5.006,0,0,0-5-5H10A5.006,5.006,0,0,0,5,5V43a5.006,5.006,0,0,0,5,5H38a5.006,5.006,0,0,0,5-5V13a1,1,0,0,0-2,0V43a3,3,0,0,1-3,3H10a3,3,0,0,1-3-3V5a3,3,0,0,1,3-3H38a3,3,0,0,1,3,3V7H14a3.888,3.888,0,0,0-4,4V26a1,1,0,0,0,1.707.707L16,22.414l4.293,4.293A1,1,0,0,0,22,26V12a1,1,0,0,0-2,0V23.586l-3-3V15a1,1,0,0,0-2,0v5.586l-3,3V11a1.882,1.882,0,0,1,2-2H42A1,1,0,0,0,43,8Z"/><path class="cls-4" d="M11,39a1,1,0,0,0,0,2H37a1,1,0,0,0,0-2Z"/></g></svg>