<?xml version="1.0" ?><svg height="48" viewBox="0 0 48 48" width="48" xmlns="http://www.w3.org/2000/svg"><defs><style>.cls-1{fill:#d0d7df;}.cls-2{fill:#49aaee;}.cls-3{fill:#f1f2f2;}.cls-4{fill:#498dee;}.cls-5{fill:#474c54;}</style></defs><title/><g data-name="23-Usb" id="_23-Usb"><path class="cls-1" d="M31,10H15V2a1,1,0,0,1,1-1H30a1,1,0,0,1,1,1Z"/><path class="cls-2" d="M34,10V44a3,3,0,0,1-3,3H15a3,3,0,0,1-3-3V10H34Z"/><rect class="cls-3" height="12" width="22" x="12" y="22"/><rect class="cls-4" height="4" width="22" x="12" y="18"/><rect class="cls-4" height="4" width="22" x="12" y="34"/><path class="cls-5" d="M34,9H19a1,1,0,0,0,0,2H33V21H16a1,1,0,0,0,0,2H33V44a2,2,0,0,1-2,2H15a2,2,0,0,1-2-2V35H30a1,1,0,0,0,0-2H13V11h2a1,1,0,0,0,1-1V2H30V7a1,1,0,0,0,2,0V2a2,2,0,0,0-2-2H16a2,2,0,0,0-2,2V9H12a1,1,0,0,0-1,1V44a4,4,0,0,0,4,4H31a4,4,0,0,0,4-4V10A1,1,0,0,0,34,9Z"/><path class="cls-5" d="M20,4a1,1,0,0,0,0,2h1a1,1,0,0,0,0-2Z"/><path class="cls-5" d="M25,4a1,1,0,0,0,0,2h1a1,1,0,0,0,0-2Z"/><path class="cls-5" d="M15,18a1,1,0,0,0,1,1H30a1,1,0,0,0,0-2H16A1,1,0,0,0,15,18Z"/><path class="cls-5" d="M30,37H16a1,1,0,0,0,0,2H30a1,1,0,0,0,0-2Z"/></g></svg>