<?xml version="1.0" ?><svg height="48" viewBox="0 0 48 48" width="48" xmlns="http://www.w3.org/2000/svg"><defs><style>.cls-1{fill:#a4b0c0;}.cls-2{fill:#f1f2f2;}.cls-3{fill:#d0d7df;}.cls-4{fill:#49aaee;}.cls-5{fill:#474c54;}</style></defs><title/><g data-name="13-Browser" id="_13-Browser"><path class="cls-1" d="M47,5V9H1V5A4,4,0,0,1,5,1H43S47,1,47,5Z"/><path class="cls-2" d="M47,9V43a4,4,0,0,1-4,4H5a4,4,0,0,1-4-4V9Z"/><rect class="cls-3" height="24" rx="3" ry="3" width="24" x="12" y="16"/><circle class="cls-4" cx="24" cy="28" r="8"/><path class="cls-5" d="M47,8H6a1,1,0,0,0,0,2H46V43a3,3,0,0,1-3,3H5a3,3,0,0,1-3-3V5A3,3,0,0,1,5,2H43A2.853,2.853,0,0,1,46,5a1,1,0,0,0,2,0,4.821,4.821,0,0,0-5-5H5A5.006,5.006,0,0,0,0,5V43a5.006,5.006,0,0,0,5,5H43a5.006,5.006,0,0,0,5-5V9A1,1,0,0,0,47,8Z"/><path class="cls-5" d="M6,4A1,1,0,0,0,6,6H8A1,1,0,0,0,8,4Z"/><path class="cls-5" d="M12,4a1,1,0,0,0,0,2h2a1,1,0,0,0,0-2Z"/><path class="cls-5" d="M41,4a1,1,0,0,0,0,2h2a1,1,0,0,0,0-2Z"/><path class="cls-5" d="M24,12a1,1,0,0,0-1,1v2H15a4,4,0,0,0-4,4v8H9a1,1,0,0,0,0,2h2v8a4,4,0,0,0,4,4h8v2a1,1,0,0,0,2,0V41h8a4,4,0,0,0,4-4V29h2a1,1,0,0,0,0-2H37V19a4,4,0,0,0-4-4H25V13A1,1,0,0,0,24,12ZM13,19a2,2,0,0,1,2-2h8v2.059A9.013,9.013,0,0,0,15.059,27H13ZM23,29v5.92A7,7,0,0,1,17.08,29Zm-5.92-2A7,7,0,0,1,23,21.08V27ZM25,29h5.92A7,7,0,0,1,25,34.92Zm0-2V21.08A7,7,0,0,1,30.92,27ZM15,39a2,2,0,0,1-2-2V29h2.059A9.013,9.013,0,0,0,23,36.941V39Zm20-2a2,2,0,0,1-2,2H25V36.941A9.013,9.013,0,0,0,32.941,29H35ZM33,17a2,2,0,0,1,2,2v8H32.941A9.013,9.013,0,0,0,25,19.059V17Z"/></g></svg>