<?xml version="1.0" ?><svg height="48" viewBox="0 0 48 48" width="48" xmlns="http://www.w3.org/2000/svg"><defs><style>.cls-1{fill:#49aaee;}.cls-2{fill:#4c7ee7;}.cls-3{fill:#f1f2f2;}.cls-4{fill:#474c54;}</style></defs><title/><g data-name="42-Mail Box-arrow" id="_42-Mail_Box-arrow"><g data-name="&lt;Group&gt;" id="_Group_"><path class="cls-1" d="M47,44a3,3,0,0,1-3,3H4a3,3,0,0,1-3-3V4A2.938,2.938,0,0,1,4,1H44a2.938,2.938,0,0,1,3,3Z"/></g><path class="cls-2" d="M43,6V26H34a3,3,0,0,0-3,3v4H17V29a3,3,0,0,0-3-3H5V6A.979.979,0,0,1,6,5H42A.979.979,0,0,1,43,6Z"/><path class="cls-3" d="M31,38v3a1,1,0,0,1-1,1H18a1,1,0,0,1-1-1V38Z"/><circle class="cls-3" cx="35" cy="13" r="12"/><path class="cls-4" d="M14,25H5a1,1,0,0,0,0,2h9a2,2,0,0,1,2,2v4a1,1,0,0,0,1,1H31a1,1,0,0,0,1-1V29a1,1,0,0,0-2,0v3H18V29A4,4,0,0,0,14,25Z"/><path class="cls-4" d="M18,43H30a2,2,0,0,0,2-2V39h2a1,1,0,0,0,0-2H14a1,1,0,0,0,0,2h2v2A2,2,0,0,0,18,43Zm12-2H18V39H30Z"/><path class="cls-4" d="M35,0a13,13,0,1,0,8.7,22.655,1,1,0,0,0-1.34-1.484A11,11,0,1,1,46,13V44a2,2,0,0,1-2,2H4a2,2,0,0,1-2-2V4A1.882,1.882,0,0,1,4,2H24a1,1,0,0,0,0-2H4A3.888,3.888,0,0,0,0,4V44a4,4,0,0,0,4,4H44a4,4,0,0,0,4-4V13A13.015,13.015,0,0,0,35,0Z"/><path class="cls-4" d="M35,20a1,1,0,0,0,1-1V9.414l2.293,2.293a1,1,0,0,0,1.414-1.414l-4-4a1,1,0,0,0-1.416,0l-4,4a1,1,0,0,0,1.414,1.414L34,9.414V19A1,1,0,0,0,35,20Z"/></g></svg>