<?xml version="1.0" ?><svg height="48" viewBox="0 0 48 48" width="48" xmlns="http://www.w3.org/2000/svg"><defs><style>.cls-1{fill:#c47c6c;}.cls-2{fill:#d0d7df;}.cls-3{fill:#c48e6c;}.cls-4{fill:#a4b0c0;}.cls-5{fill:#768ba0;}.cls-6{fill:#f1f2f2;}.cls-7{fill:#474c54;}</style></defs><title/><g data-name="16-Marketing Strategy" id="_16-Marketing_Strategy"><polygon class="cls-1" points="31 7 31 11 21 11 17 11 17 1 31 1 31 7"/><path class="cls-2" d="M31,11v3a2.006,2.006,0,0,1-2,2H19a2.006,2.006,0,0,1-2-2V11H31Z"/><path class="cls-3" d="M47,43c0,4-4,4-4,4H5a4,4,0,0,1-4-4V5A4,4,0,0,1,5,1H17V14a2.006,2.006,0,0,0,2,2H29a2.006,2.006,0,0,0,2-2V1H43a4,4,0,0,1,4,4Z"/><path class="cls-4" d="M33,43V39H43v4h1a1,1,0,0,1,1,1v3H31V44a1,1,0,0,1,1-1Z"/><rect class="cls-4" height="4" width="6" x="35" y="28"/><rect class="cls-2" height="7" width="6" x="35" y="32"/><polygon class="cls-2" points="44 20 44 24 43 25 43 28 41 28 35 28 33 28 33 25 32 24 32 20 36 20 36 23 40 23 40 20 44 20"/><rect class="cls-5" height="4" width="10" x="33" y="39"/><rect class="cls-6" height="8" rx="1" ry="1" width="8" x="6" y="34"/><path class="cls-7" d="M43,0H5A5.006,5.006,0,0,0,0,5V43a5.006,5.006,0,0,0,5,5H25a1,1,0,0,0,0-2H5a3,3,0,0,1-3-3V5A3,3,0,0,1,5,2H16V14a3,3,0,0,0,3,3H29a3,3,0,0,0,3-3V11a1,1,0,0,0-1-1H21a1,1,0,0,0,0,2h9v2a1,1,0,0,1-1,1H19a1,1,0,0,1-1-1V2H30V7a1,1,0,0,0,2,0V2H43a3,3,0,0,1,3,3V17a1,1,0,0,0,2,0V5A5.006,5.006,0,0,0,43,0Z"/><path class="cls-7" d="M47,46H46V44a2,2,0,0,0-2-2V39a1,1,0,0,0-1-1H42V33h1a1,1,0,0,0,0-2H42V29h1a1,1,0,0,0,1-1V25.414l.707-.707A1,1,0,0,0,45,24V20a1,1,0,0,0-1-1H40a1,1,0,0,0-1,1v2H37V20a1,1,0,0,0-1-1H32a1,1,0,0,0-1,1v4a1,1,0,0,0,.293.707l.707.707V28a1,1,0,0,0,1,1h1v2H33a1,1,0,0,0,0,2h1v5H33a1,1,0,0,0-1,1v3a2,2,0,0,0-2,2v2H29a1,1,0,0,0,0,2H47a1,1,0,0,0,0-2ZM35,27H34V25a1,1,0,0,0-.293-.707L33,23.586V21h2v2a1,1,0,0,0,1,1h4a1,1,0,0,0,1-1V21h2v2.586l-.707.707A1,1,0,0,0,42,25v2H39a1,1,0,0,0,0,2h1v2H36V28A1,1,0,0,0,35,27Zm1,6h4v5H36ZM32,44h7a1,1,0,0,0,0-2H34V40h8v3a1,1,0,0,0,1,1h1v2H32Z"/><path class="cls-7" d="M7,33a2,2,0,0,0-2,2v6a2,2,0,0,0,2,2h6a2,2,0,0,0,2-2V35a2,2,0,0,0-2-2Zm6,8L7,41V35h6Z"/><path class="cls-7" d="M27,35H18a1,1,0,0,0,0,2h9a1,1,0,0,0,0-2Z"/><path class="cls-7" d="M18,39a1,1,0,0,0,0,2h1a1,1,0,0,0,0-2Z"/><path class="cls-7" d="M23,39a1,1,0,0,0,0,2h1a1,1,0,0,0,0-2Z"/></g></svg>