<?xml version="1.0" ?><svg height="48" viewBox="0 0 48 48" width="48" xmlns="http://www.w3.org/2000/svg"><defs><style>.cls-1{fill:#fed049;}.cls-2{fill:#f1f2f2;}.cls-3{fill:#474c54;}</style></defs><title/><g data-name="15-Solution" id="_15-Solution"><path class="cls-1" d="M47,5V9H1V5A4,4,0,0,1,5,1H43S47,1,47,5Z"/><path class="cls-2" d="M47,9V43a4,4,0,0,1-4,4H5a4,4,0,0,1-4-4V9Z"/><path class="cls-3" d="M28,19a1,1,0,0,0,.707-1.707l-4-4a1,1,0,0,0-1.414,0l-4,4a1,1,0,0,0,1.414,1.414L23,16.414V47a1,1,0,0,0,2,0V16.414l2.293,2.293A1,1,0,0,0,28,19Z"/><path class="cls-3" d="M36.293,28.293a1,1,0,1,0,1.414,1.414l4-4a1,1,0,0,0,0-1.414l-4-4a1,1,0,0,0-1.414,1.414L38.586,24H32a3.887,3.887,0,0,0-4,4V47a1,1,0,0,0,2,0V28a1.882,1.882,0,0,1,2-2h6.586Z"/><path class="cls-3" d="M16,24H9.414l2.293-2.293a1,1,0,0,0-1.414-1.414l-4,4a1,1,0,0,0,0,1.414l4,4a1,1,0,0,0,1.414-1.414L9.414,26H16a1.882,1.882,0,0,1,2,2V47a1,1,0,0,0,2,0V28A3.887,3.887,0,0,0,16,24Z"/><path class="cls-3" d="M14,46H5a3,3,0,0,1-3-3V5A3,3,0,0,1,5,2H43A2.853,2.853,0,0,1,46,5a1,1,0,0,0,2,0,4.821,4.821,0,0,0-5-5H5A5.006,5.006,0,0,0,0,5V43a5.006,5.006,0,0,0,5,5h9a1,1,0,0,0,0-2Z"/><path class="cls-3" d="M47,8H6a1,1,0,0,0,0,2H46V43a3,3,0,0,1-3,3H34a1,1,0,0,0,0,2h9a5.006,5.006,0,0,0,5-5V9A1,1,0,0,0,47,8Z"/><path class="cls-3" d="M6,4A1,1,0,0,0,6,6H8A1,1,0,0,0,8,4Z"/><path class="cls-3" d="M12,4a1,1,0,0,0,0,2h2a1,1,0,0,0,0-2Z"/><path class="cls-3" d="M41,4a1,1,0,0,0,0,2h2a1,1,0,0,0,0-2Z"/></g></svg>