<?xml version="1.0" ?><svg height="48" viewBox="0 0 48 48" width="48" xmlns="http://www.w3.org/2000/svg"><defs><style>.cls-1{fill:#f6b445;}.cls-2{fill:#fed049;}.cls-3{fill:#474c54;}</style></defs><title/><g data-name="8-Email-sent" id="_8-Email-sent"><path class="cls-1" d="M47,4V32a4.025,4.025,0,0,1-1.17,2.83L39,28,28,17l-.28-.43Z"/><path class="cls-2" d="M39,28l6.83,6.83A4.025,4.025,0,0,1,43,36H5a4.025,4.025,0,0,1-2.83-1.17L9,28,20,17l.25-.39L24,19l3.72-2.43L28,17Z"/><path class="cls-1" d="M20.25,16.61,20,17,9,28,2.17,34.83A4.025,4.025,0,0,1,1,32V6a3.944,3.944,0,0,1,.18-1.19L2,5Z"/><path class="cls-2" d="M47,4,27.72,16.57,24,19l-3.75-2.39L2,5l-.82-.19A4,4,0,0,1,5,2H42C46,2,47,4,47,4Z"/><path class="cls-3" d="M47.477,3.121a.994.994,0,0,0-1.023.042L23.993,17.811,2.612,4.2A2.986,2.986,0,0,1,5,3H42a1,1,0,0,0,0-2H5A5.006,5.006,0,0,0,0,6V32a5.006,5.006,0,0,0,5,5H15.988A.919.919,0,0,1,17,38v6a1,1,0,0,0,2,0V38a2.916,2.916,0,0,0-3-3H5a3,3,0,0,1-3-3V6.186L18.745,16.841,8.293,27.293a1,1,0,1,0,1.414,1.414L20.473,17.941l2.99,1.9a1,1,0,0,0,1.083-.007L27.5,17.912l10.795,10.8a1,1,0,0,0,1.414-1.414L29.21,16.8,46,5.846V32a3,3,0,0,1-3,3H32a2.916,2.916,0,0,0-3,3v6a1,1,0,0,0,2,0V38a.915.915,0,0,1,1-1H43a5.006,5.006,0,0,0,5-5V4A1,1,0,0,0,47.477,3.121Z"/><path class="cls-3" d="M24,35a1,1,0,0,0-1,1v4a1,1,0,0,0,2,0V36A1,1,0,0,0,24,35Z"/><path class="cls-3" d="M24,43a1,1,0,0,0-1,1v2a1,1,0,0,0,2,0V44A1,1,0,0,0,24,43Z"/></g></svg>