<?xml version="1.0" ?><svg height="48" viewBox="0 0 48 48" width="48" xmlns="http://www.w3.org/2000/svg"><defs><style>.cls-1{fill:#a4b0c0;}.cls-2{fill:#d0d7df;}.cls-3{fill:#49aaee;}.cls-4{fill:#f1f2f2;}.cls-5{fill:#474c54;}</style></defs><title/><g data-name="11-Accounting" id="_11-Accounting"><g data-name="&lt;Group&gt;" id="_Group_"><path class="cls-1" d="M42,19V43a4,4,0,0,1-4,4H10a4,4,0,0,1-4-4V15H42Z"/><path class="cls-2" d="M42,5V15H37V6H11v9H6V5a4,4,0,0,1,4-4H38A4,4,0,0,1,42,5Z"/><rect class="cls-3" height="9" width="26" x="11" y="6"/></g><g data-name="&lt;Group&gt;" id="_Group_2"><rect class="cls-4" height="4" rx="1" ry="1" width="4" x="31" y="38"/><rect class="cls-4" height="4" rx="1" ry="1" width="4" x="22" y="38"/><rect class="cls-4" height="4" rx="1" ry="1" width="4" x="13" y="38"/><rect class="cls-4" height="4" rx="1" ry="1" width="4" x="13" y="29"/><rect class="cls-4" height="4" rx="1" ry="1" width="4" x="22" y="29"/><rect class="cls-4" height="4" rx="1" ry="1" width="4" x="31" y="29"/><rect class="cls-4" height="4" rx="1" ry="1" width="4" x="31" y="20"/><rect class="cls-4" height="4" rx="1" ry="1" width="4" x="22" y="20"/><rect class="cls-4" height="4" rx="1" ry="1" width="4" x="13" y="20"/><path class="cls-5" d="M43,15V5a5.006,5.006,0,0,0-5-5H10A5.006,5.006,0,0,0,5,5V43a5.006,5.006,0,0,0,5,5H38a5.006,5.006,0,0,0,5-5V19a1,1,0,0,0-2,0V43a3,3,0,0,1-3,3H10a3,3,0,0,1-3-3V5a3,3,0,0,1,3-3H38a3,3,0,0,1,3,3v9H38V6a1,1,0,0,0-1-1H11a1,1,0,0,0-1,1v9a1,1,0,0,0,1,1H42A1,1,0,0,0,43,15Zm-7-1H12V7H36Z"/><path class="cls-5" d="M18,21a2,2,0,0,0-2-2H14a2,2,0,0,0-2,2v2a2,2,0,0,0,2,2h2a2,2,0,0,0,2-2Zm-2,2-2,0V21h2Z"/><path class="cls-5" d="M27,21a2,2,0,0,0-2-2H23a2,2,0,0,0-2,2v2a2,2,0,0,0,2,2h2a2,2,0,0,0,2-2Zm-2,2-2,0V21h2Z"/><path class="cls-5" d="M36,21a2,2,0,0,0-2-2H32a2,2,0,0,0-2,2v2a2,2,0,0,0,2,2h2a2,2,0,0,0,2-2Zm-2,2-2,0V21h2Z"/><path class="cls-5" d="M18,30a2,2,0,0,0-2-2H14a2,2,0,0,0-2,2v2a2,2,0,0,0,2,2h2a2,2,0,0,0,2-2Zm-2,2-2,0V30h2Z"/><path class="cls-5" d="M27,30a2,2,0,0,0-2-2H23a2,2,0,0,0-2,2v2a2,2,0,0,0,2,2h2a2,2,0,0,0,2-2Zm-2,2-2,0V30h2Z"/><path class="cls-5" d="M36,30a2,2,0,0,0-2-2H32a2,2,0,0,0-2,2v2a2,2,0,0,0,2,2h2a2,2,0,0,0,2-2Zm-2,2-2,0V30h2Z"/><path class="cls-5" d="M16,37H14a2,2,0,0,0-2,2v2a2,2,0,0,0,2,2h2a2,2,0,0,0,2-2V39A2,2,0,0,0,16,37Zm0,4-2,0V39h2Z"/><path class="cls-5" d="M25,37H23a2,2,0,0,0-2,2v2a2,2,0,0,0,2,2h2a2,2,0,0,0,2-2V39A2,2,0,0,0,25,37Zm0,4-2,0V39h2Z"/><path class="cls-5" d="M34,37H32a2,2,0,0,0-2,2v2a2,2,0,0,0,2,2h2a2,2,0,0,0,2-2V39A2,2,0,0,0,34,37Zm0,4-2,0V39h2Z"/></g></g></svg>