<?xml version="1.0" ?><svg height="48" viewBox="0 0 48 48" width="48" xmlns="http://www.w3.org/2000/svg"><defs><style>.cls-1{fill:#d0d7df;}.cls-2{fill:#49aaee;}.cls-3{fill:#fed049;}.cls-4{fill:#f1f2f2;}.cls-5{fill:#474c54;}</style></defs><title/><g data-name="10-Mobile-Security" id="_10-Mobile-Security"><path class="cls-1" d="M39,40v3a4,4,0,0,1-4,4H13a4,4,0,0,1-4-4V40Z"/><path class="cls-1" d="M39,5V8H9V5a4,4,0,0,1,4-4H35A4,4,0,0,1,39,5Z"/><rect class="cls-2" height="32" width="30" x="9" y="8"/><rect class="cls-3" height="14" rx="3" ry="3" width="16" x="16" y="18"/><path class="cls-4" d="M34,31v5H14V31a1,1,0,0,1,1-1H33A1,1,0,0,1,34,31Z"/><path class="cls-5" d="M40,8V5a5.006,5.006,0,0,0-5-5H13A5.006,5.006,0,0,0,8,5V43a5.006,5.006,0,0,0,5,5H35a5.006,5.006,0,0,0,5-5V13a1,1,0,0,0-2,0V43a3,3,0,0,1-3,3H13a3,3,0,0,1-3-3V5a3,3,0,0,1,3-3H35a3,3,0,0,1,3,3V7H14a1,1,0,0,0,0,2H39A1,1,0,0,0,40,8Z"/><path class="cls-5" d="M13,40a1,1,0,0,0,1,1H34a1,1,0,0,0,0-2H14A1,1,0,0,0,13,40Z"/><path class="cls-5" d="M26,11H22a2.916,2.916,0,0,0-3,3v3a4,4,0,0,0-4,4v5a1,1,0,0,0,2,0V21a2,2,0,0,1,2-2h1a1,1,0,0,0,1-1V14.012A.918.918,0,0,1,22,13h3.988A.919.919,0,0,1,27,14v3H24a1,1,0,0,0,0,2h5a2,2,0,0,1,2,2v5a1,1,0,0,0,2,0V21a4,4,0,0,0-4-4V14A2.916,2.916,0,0,0,26,11Z"/><path class="cls-5" d="M24,27a1,1,0,0,0,1-1V24h1a1,1,0,0,0,0-2H22a1,1,0,0,0,0,2h1v2A1,1,0,0,0,24,27Z"/><path class="cls-5" d="M35,31a2,2,0,0,0-2-2H15a2,2,0,0,0-2,2v5a1,1,0,0,0,2,0V31H33v5a1,1,0,0,0,2,0Z"/><path class="cls-5" d="M22,35a1,1,0,0,0,0-2H20a1,1,0,0,0,0,2Z"/><path class="cls-5" d="M28,35a1,1,0,0,0,0-2H26a1,1,0,0,0,0,2Z"/></g></svg>