<?xml version="1.0" ?><svg height="48" viewBox="0 0 48 48" width="48" xmlns="http://www.w3.org/2000/svg"><defs><style>.cls-1{fill:#a4b0c0;}.cls-2{fill:#768ba0;}.cls-3{fill:#f1f2f2;}.cls-4{fill:#474c54;}</style></defs><title/><g data-name="43-Movie" id="_43-Movie"><circle class="cls-1" cx="24" cy="24" r="23"/><circle class="cls-2" cx="24" cy="24" r="5"/><circle class="cls-3" cx="37" cy="18" r="4"/><circle class="cls-3" cx="37" cy="30" r="4"/><circle class="cls-3" cx="24" cy="10" r="4"/><circle class="cls-3" cx="24" cy="38" r="4"/><circle class="cls-3" cx="11" cy="30" r="4"/><circle class="cls-3" cx="11" cy="18" r="4"/><path class="cls-4" d="M47,46H24a21.995,21.995,0,1,1,12.435-3.849A1,1,0,0,0,37.567,43.8,24,24,0,1,0,24,48H47a1,1,0,0,0,0-2Z"/><path class="cls-4" d="M24,15a5,5,0,1,0-5-5A5.006,5.006,0,0,0,24,15Zm0-8a3,3,0,1,1-3,3A3,3,0,0,1,24,7Z"/><path class="cls-4" d="M19,38a5,5,0,1,0,5-5A5.006,5.006,0,0,0,19,38Zm8,0a3,3,0,1,1-3-3A3,3,0,0,1,27,38Z"/><path class="cls-4" d="M37,35a5,5,0,1,0-5-5A5.006,5.006,0,0,0,37,35Zm0-8a3,3,0,1,1-3,3A3,3,0,0,1,37,27Z"/><path class="cls-4" d="M11,25a5,5,0,1,0,5,5A5.006,5.006,0,0,0,11,25Zm0,8a3,3,0,1,1,3-3A3,3,0,0,1,11,33Z"/><path class="cls-4" d="M37,23a5,5,0,1,0-5-5A5.006,5.006,0,0,0,37,23Zm0-8a3,3,0,1,1-3,3A3,3,0,0,1,37,15Z"/><path class="cls-4" d="M11,13a5,5,0,1,0,5,5A5.006,5.006,0,0,0,11,13Zm0,8a3,3,0,1,1,3-3A3,3,0,0,1,11,21Z"/><path class="cls-4" d="M30,24a6,6,0,1,0-6,6,1,1,0,0,0,0-2,4,4,0,1,1,4-4,1,1,0,0,0,2,0Z"/><path class="cls-4" d="M26.707,25.293l-2-2a1,1,0,0,0-1.414,1.414l2,2a1,1,0,0,0,1.414-1.414Z"/></g></svg>