<?xml version="1.0" ?><svg height="48" viewBox="0 0 48 48" width="48" xmlns="http://www.w3.org/2000/svg"><defs><style>.cls-1{fill:#49aaee;}.cls-2{fill:#4988ee;}.cls-3{fill:#f1f2f2;}.cls-4{fill:#35dc86;}.cls-5{fill:#474c54;}</style></defs><title/><g data-name="9-Art" id="_9-Art"><path class="cls-1" d="M40,33a7,7,0,0,1,0,14H5s-4,0-4-4V12S1,8,5,8H33V40A7,7,0,0,1,40,33Z"/><path class="cls-1" d="M47,8V40a7,7,0,0,0-14,0V8A7,7,0,0,1,47,8Z"/><circle class="cls-2" cx="40" cy="40" r="7"/><rect class="cls-3" height="16" rx="1" ry="1" width="16" x="6" y="14"/><circle class="cls-4" cx="20" cy="32" r="8"/><path class="cls-5" d="M40,0a8.013,8.013,0,0,0-7.938,7H5a4.821,4.821,0,0,0-5,5V43a4.821,4.821,0,0,0,5,5H40a8.011,8.011,0,0,0,7.855-6.482A.994.994,0,0,0,48,41V8A8.009,8.009,0,0,0,40,0Zm0,46H5.006A2.854,2.854,0,0,1,2,43V12.005A2.853,2.853,0,0,1,5,9H32V40a1,1,0,0,0,2,0,6,6,0,1,1,6,6Zm6-11.286a7.989,7.989,0,0,0-12,0V8A6,6,0,0,1,46,8Z"/><path class="cls-5" d="M8,29H7V15H21v5a1,1,0,0,0,2,0V15a2,2,0,0,0-2-2H7a2,2,0,0,0-2,2V29a2,2,0,0,0,2,2H8a1,1,0,0,0,0-2Z"/><path class="cls-5" d="M20,23a9,9,0,1,0,9,9A9.01,9.01,0,0,0,20,23Zm0,16a7,7,0,1,1,7-7A7.008,7.008,0,0,1,20,39Z"/></g></svg>