<?xml version="1.0" ?><svg height="48" viewBox="0 0 48 48" width="48" xmlns="http://www.w3.org/2000/svg"><defs><style>.cls-1{fill:#a4b0c0;}.cls-2{fill:#d0d7df;}.cls-3{fill:#49aaee;}.cls-4{fill:#474c54;}</style></defs><title/><g data-name="9-Presentation-Strategy" id="_9-Presentation-Strategy"><path class="cls-1" d="M24,41v6H21V42a.979.979,0,0,1,1-1Z"/><path class="cls-2" d="M47,5V9H1V5H22V2a1,1,0,0,1,1-1h2a1,1,0,0,1,1,1V5Z"/><path class="cls-3" d="M45,12V34a3,3,0,0,1-3,3H6a3,3,0,0,1-3-3V9H45Z"/><path class="cls-4" d="M47,4H27V2a2,2,0,0,0-2-2H23a2,2,0,0,0-2,2V4H1A1,1,0,0,0,0,5V9a1,1,0,0,0,1,1H2V34a4,4,0,0,0,4,4H20a1,1,0,0,0,0-2H6a2,2,0,0,1-2-2V10H44V34a2,2,0,0,1-2,2H26a2.916,2.916,0,0,0-3,3v1H22a1.959,1.959,0,0,0-2,2v5a1,1,0,0,0,1,1h3a1,1,0,0,0,1-1V44a1,1,0,0,0-2,0v2H22V42h2a1,1,0,0,0,1-1V39a.915.915,0,0,1,1-1H42a4,4,0,0,0,4-4V10h1a1,1,0,0,0,1-1V5A1,1,0,0,0,47,4ZM46,8H2V6H22a1,1,0,0,0,1-1V2h2V5a1,1,0,0,0,1,1H46Z"/><path class="cls-4" d="M8,32a1,1,0,0,0,1,1H27.952c.113.01.365.028.719.028a9.712,9.712,0,0,0,6.39-2.247C37.011,29.036,38,26.417,38,23V16.414l1.293,1.293a1,1,0,0,0,1.414-1.414l-3-3a.99.99,0,0,0-.326-.217,1,1,0,0,0-.764,0,.99.99,0,0,0-.326.217l-3,3a1,1,0,0,0,1.414,1.414L36,16.414V23c0,2.816-.761,4.929-2.261,6.28a8.078,8.078,0,0,1-5.629,1.726A1,1,0,0,0,28,31H9A1,1,0,0,0,8,32Z"/><path class="cls-4" d="M9.293,26.707a1,1,0,0,0,1.414,0L12,25.414l1.293,1.293a1,1,0,0,0,1.414-1.414L13.414,24l1.293-1.293a1,1,0,0,0-1.414-1.414L12,22.586l-1.293-1.293a1,1,0,0,0-1.414,1.414L10.586,24,9.293,25.293A1,1,0,0,0,9.293,26.707Z"/><path class="cls-4" d="M15.293,18.707a1,1,0,0,0,1.414,0L18,17.414l1.293,1.293a1,1,0,0,0,1.414-1.414L19.414,16l1.293-1.293a1,1,0,0,0-1.414-1.414L18,14.586l-1.293-1.293a1,1,0,0,0-1.414,1.414L16.586,16l-1.293,1.293A1,1,0,0,0,15.293,18.707Z"/><path class="cls-4" d="M26.707,21.293a1,1,0,0,0-1.414,0L24,22.586l-1.293-1.293a1,1,0,0,0-1.414,1.414L22.586,24l-1.293,1.293a1,1,0,1,0,1.414,1.414L24,25.414l1.293,1.293a1,1,0,0,0,1.414-1.414L25.414,24l1.293-1.293A1,1,0,0,0,26.707,21.293Z"/></g></svg>