<?xml version="1.0" ?><svg height="48" viewBox="0 0 48 48" width="48" xmlns="http://www.w3.org/2000/svg"><defs><style>.cls-1{fill:#a4b0c0;}.cls-2{fill:#f1f2f2;}.cls-3{fill:#fa5c66;}.cls-4{fill:#474c54;}</style></defs><title/><g data-name="20-Browser-Bookmark" id="_20-Browser-Bookmark"><path class="cls-1" d="M47,5V9H1V5A4,4,0,0,1,5,1H43S47,1,47,5Z"/><path class="cls-2" d="M47,9V43a4,4,0,0,1-4,4H5a4,4,0,0,1-4-4V9Z"/><g data-name="&lt;Group&gt;" id="_Group_"><path class="cls-3" d="M12,30,6,36V12A2.938,2.938,0,0,1,9,9h9V36Z"/><path class="cls-4" d="M47,8H9a3.888,3.888,0,0,0-4,4V36a1,1,0,0,0,1.707.707L12,31.414l5.293,5.293A1,1,0,0,0,19,36V14a1,1,0,0,0-2,0V33.586l-4-4V20a1,1,0,0,0-2,0v9.586l-4,4V12a1.882,1.882,0,0,1,2-2H46V43a3,3,0,0,1-3,3H5a3,3,0,0,1-3-3V5A3,3,0,0,1,5,2H42.994A2.854,2.854,0,0,1,46,5a1,1,0,0,0,2,0,4.821,4.821,0,0,0-5-5H5A5.006,5.006,0,0,0,0,5V43a5.006,5.006,0,0,0,5,5H43a5.006,5.006,0,0,0,5-5V9A1,1,0,0,0,47,8Z"/><path class="cls-4" d="M6,4A1,1,0,0,0,6,6H8A1,1,0,0,0,8,4Z"/><path class="cls-4" d="M12,4a1,1,0,0,0,0,2h2a1,1,0,0,0,0-2Z"/><path class="cls-4" d="M42,4H40a1,1,0,0,0,0,2h2a1,1,0,0,0,0-2Z"/></g></g></svg>