<?xml version="1.0" ?><svg height="48" viewBox="0 0 48 48" width="48" xmlns="http://www.w3.org/2000/svg"><defs><style>.cls-1{fill:#d0d7df;}.cls-2{fill:#a4b0c0;}.cls-3{fill:#f1f2f2;}.cls-4{fill:#474c54;}</style></defs><title/><g data-name="29-Bandage" id="_29-Bandage"><path class="cls-1" d="M27,13H5A4,4,0,0,1,1,9V5A4,4,0,0,1,5,1H23a4,4,0,0,1,4,4Z"/><path class="cls-2" d="M23,47H5a4,4,0,0,1-4-4V9a4,4,0,0,0,4,4H41a1.959,1.959,0,0,1,2,2V45a1.959,1.959,0,0,1-2,2H23Z"/><path class="cls-3" d="M19,5a2,2,0,0,1,0,4H9A2,2,0,0,1,9,5Z"/><path class="cls-4" d="M9,4a3,3,0,0,0,0,6H19a3,3,0,0,0,0-6ZM20,7a1,1,0,0,1-1,1H9A1,1,0,0,1,9,6H19A1,1,0,0,1,20,7Z"/><path class="cls-4" d="M47,24a1,1,0,0,0,0-2H44V17h3a1,1,0,0,0,0-2H44a2.916,2.916,0,0,0-3-3H5A3,3,0,0,1,2,9V5A3,3,0,0,1,5,2H23a3,3,0,0,1,3,3V9a1,1,0,0,0,2,0V5a5.006,5.006,0,0,0-5-5H5A5.006,5.006,0,0,0,0,5V43a5.006,5.006,0,0,0,5,5H23a5.006,5.006,0,0,0,5-5V42a1,1,0,0,0-2,0v1a3,3,0,0,1-3,3H5a3,3,0,0,1-3-3V12.974A4.948,4.948,0,0,0,5,14H40.988A.919.919,0,0,1,42,15V44.988A.918.918,0,0,1,41,46H30a1,1,0,0,0,0,2H41a2.916,2.916,0,0,0,3-3h3a1,1,0,0,0,0-2H44V38h3a1,1,0,0,0,0-2H44V31h3a1,1,0,0,0,0-2H44V24Z"/><path class="cls-4" d="M27,35a1,1,0,0,0-1,1v1a1,1,0,0,0,2,0V36A1,1,0,0,0,27,35Z"/><path class="cls-4" d="M27,29a1,1,0,0,0-1,1v1a1,1,0,0,0,2,0V30A1,1,0,0,0,27,29Z"/><path class="cls-4" d="M27,23a1,1,0,0,0-1,1v1a1,1,0,0,0,2,0V24A1,1,0,0,0,27,23Z"/><path class="cls-4" d="M27,17a1,1,0,0,0-1,1v1a1,1,0,0,0,2,0V18A1,1,0,0,0,27,17Z"/></g></svg>